<svg width="477" height="305" viewBox="0 0 477 305" fill="none" xmlns="http://www.w3.org/2000/svg">
<g clip-path="url(#clip0_284_3270)">
<path d="M477 0.269592H0.204102V305H477V0.269592Z" fill="#E6E6E6"/>
<path d="M463.366 38.4908H13.8379V286.973H463.366V38.4908Z" fill="white"/>
<path d="M476.796 0H0V20.2142H476.796V0Z" fill="#6C63FF"/>
<path d="M424.749 65.6821H261.121V223.295H424.749V65.6821Z" fill="#E6E6E6"/>
<path d="M15.0521 14.0809C17.1255 14.0809 18.8063 12.4036 18.8063 10.3345C18.8063 8.26535 17.1255 6.588 15.0521 6.588C12.9787 6.588 11.2979 8.26535 11.2979 10.3345C11.2979 12.4036 12.9787 14.0809 15.0521 14.0809Z" fill="white"/>
<path d="M29.3031 14.0809C31.3765 14.0809 33.0573 12.4036 33.0573 10.3345C33.0573 8.26535 31.3765 6.588 29.3031 6.588C27.2297 6.588 25.5488 8.26535 25.5488 10.3345C25.5488 12.4036 27.2297 14.0809 29.3031 14.0809Z" fill="white"/>
<path d="M43.5531 14.0809C45.6265 14.0809 47.3073 12.4036 47.3073 10.3345C47.3073 8.26535 45.6265 6.588 43.5531 6.588C41.4797 6.588 39.7988 8.26535 39.7988 10.3345C39.7988 12.4036 41.4797 14.0809 43.5531 14.0809Z" fill="white"/>
<path d="M92.0399 65.358H48.4062V108.902H92.0399V65.358Z" fill="#6C63FF"/>
<path d="M152.719 65.6076H109.085V109.151H152.719V65.6076Z" fill="#E6E6E6"/>
<path d="M152.891 125.42H109.258V270.309H152.891V125.42Z" fill="#6C63FF"/>
<path d="M90.8495 125.097H47.2158V199.227H90.8495V125.097Z" fill="#E6E6E6"/>
<path d="M341.829 90.5777C334.644 78.4645 320.433 77.9003 320.433 77.9003C320.433 77.9003 306.584 76.1333 297.7 94.581C289.42 111.776 277.991 128.377 295.862 132.404L299.09 122.378L301.089 133.15C303.633 133.332 306.185 133.376 308.734 133.28C327.871 132.664 346.095 133.461 345.509 126.61C344.726 117.498 348.741 102.232 341.829 90.5777Z" fill="#2F2E41"/>
<path d="M292.788 205.599L268.562 222.386C268.562 222.386 254.429 237.161 264.524 237.161C274.619 237.161 278.656 224.401 278.656 224.401L309.612 210.97L292.788 205.599Z" fill="#FFB8B8"/>
<path d="M302.546 140.122C302.546 140.122 281.348 205.601 288.077 208.958C294.807 212.314 309.612 214.33 309.612 214.33L302.546 140.122Z" fill="#2F2E41"/>
<path opacity="0.1" d="M302.546 140.122C302.546 140.122 281.348 205.601 288.077 208.958C294.807 212.314 309.612 214.33 309.612 214.33L302.546 140.122Z" fill="black"/>
<path d="M369.19 222.726H321.47L355.374 205.601C356.121 206.085 356.838 206.614 357.52 207.186C362.548 211.409 366.54 216.725 369.19 222.726Z" fill="#2F2E41"/>
<path d="M316.005 123.331C325.669 123.331 333.502 115.514 333.502 105.871C333.502 96.2278 325.669 88.4104 316.005 88.4104C306.342 88.4104 298.509 96.2278 298.509 105.871C298.509 115.514 306.342 123.331 316.005 123.331Z" fill="#FFB8B8"/>
<path d="M315.669 120.31C315.669 120.31 319.707 133.07 315.669 137.771C311.632 142.472 337.877 131.055 337.877 131.055C337.877 131.055 328.456 117.624 331.147 111.58L315.669 120.31Z" fill="#FFB8B8"/>
<path d="M354.43 178.609L353.017 187.803C353.017 187.803 353.73 189.891 354.598 192.934C355.729 196.903 357.122 202.495 357.519 207.185C357.929 211.939 357.31 215.767 354.363 216.009C350.137 216.358 347.936 218.916 345.742 222.725H297.059C297.188 220.63 297.342 218.453 297.524 216.217C297.625 214.874 297.736 213.513 297.858 212.134C297.993 210.549 302.76 180.779 299.177 174.372C291.777 161.142 301.196 153.553 301.196 153.553C301.196 153.553 302.542 143.48 302.542 140.122C302.542 137.49 312.878 134.448 317.347 133.252C317.637 133.178 317.893 133.104 318.127 133.051C318.901 132.849 319.365 132.735 319.365 132.735L322.898 131.29C322.898 131.29 332.824 129.376 333.498 128.032C333.928 127.453 334.531 127.025 335.221 126.809C336.64 126.205 338.451 125.775 338.882 125.345C339.497 124.64 340.053 123.885 340.544 123.089C341.834 121.611 343.574 120.596 345.497 120.198C352.725 118.378 363.108 121.985 363.108 121.985L359.474 145.657L354.43 178.609Z" fill="#2F2E41"/>
<path d="M375.563 163.962L351.336 180.749C351.336 180.749 337.204 195.524 347.298 195.524C357.393 195.524 361.427 182.766 361.427 182.766L392.384 169.335L375.563 163.962Z" fill="#FFB8B8"/>
<path d="M333.942 89.4099L319.901 82.0726L311.095 83.4344C307.974 83.9179 305.071 85.3266 302.762 87.4776C300.454 89.6285 298.847 92.4225 298.15 95.4965L296.501 102.755L306.488 102.371L309.278 95.875V102.264L313.886 102.087L316.559 91.745L318.23 102.754L334.611 102.421L333.942 89.4099Z" fill="#2F2E41"/>
<path d="M358.402 123.332L363.113 121.989C363.113 121.989 410.893 141.465 409.547 158.254C408.201 175.043 410.22 175.04 402.145 175.714C394.069 176.388 370.518 168.327 371.186 166.984C371.854 165.641 376.57 158.924 376.57 158.924L358.399 144.821L358.402 123.332Z" fill="#2F2E41"/>
<path d="M333.503 108.558C334.989 108.558 336.195 107.355 336.195 105.872C336.195 104.388 334.989 103.185 333.503 103.185C332.016 103.185 330.811 104.388 330.811 105.872C330.811 107.355 332.016 108.558 333.503 108.558Z" fill="#FFB8B8"/>
<path d="M424.749 248.627H261.121V270.399H424.749V248.627Z" fill="#E6E6E6"/>
<path d="M90.8495 215.587H47.2158V269.986H90.8495V215.587Z" fill="#E6E6E6"/>
<path d="M214.933 65.905H171.3V199.227H214.933V65.905Z" fill="#E6E6E6"/>
<path d="M214.761 215.72H171.127V270.15H214.761V215.72Z" fill="#E6E6E6"/>
</g>
<defs>
<clipPath id="clip0_284_3270">
<rect width="477" height="305" fill="white"/>
</clipPath>
</defs>
</svg>
