<svg width="506" height="392" viewBox="0 0 506 392" fill="none" xmlns="http://www.w3.org/2000/svg">
<g clip-path="url(#clip0_311_1950)">
<path d="M22.4403 380.818C38.2122 392.193 58.6516 392.764 78.4084 391.366C81.1671 391.172 83.9064 390.943 86.6203 390.696C86.6367 390.692 86.6582 390.693 86.6749 390.689C86.8053 390.677 86.936 390.664 87.0608 390.657C87.6209 390.605 88.1813 390.552 88.7362 390.499L88.6051 390.75L88.1937 391.527C88.3416 391.267 88.4893 391.012 88.6372 390.752C88.6806 390.674 88.7294 390.596 88.7726 390.518C93.8907 381.602 98.967 372.358 100.262 362.177C101.6 351.61 97.8388 339.644 88.5482 334.45C87.3297 333.77 86.0394 333.229 84.7011 332.837C84.1455 332.668 83.5823 332.531 83.0128 332.409C79.5284 331.635 75.9008 331.803 72.5031 332.897C69.1053 333.992 66.06 335.972 63.6803 338.635C61.3005 341.298 59.6722 344.548 58.9629 348.049C58.2535 351.551 58.4886 355.179 59.644 358.56C51.7672 350.474 53.2366 337.357 55.9537 326.394C58.6761 315.432 61.9717 303.234 56.4347 293.388C53.3567 287.907 47.944 284.507 41.8696 283.137C41.6832 283.097 41.4971 283.056 41.3104 283.022C34.0729 281.554 26.5488 282.874 20.2409 286.717C8.62609 294.045 2.66058 307.937 0.724427 321.546C-2.39508 343.445 4.50843 367.885 22.4403 380.818Z" fill="#F2F2F2"/>
<path d="M27.5334 345.713C27.9913 350.544 29.1504 355.282 30.9741 359.777C32.6548 363.755 34.9202 367.46 37.6952 370.767C43.3638 377.594 50.8594 382.726 58.9997 386.146C65.224 388.698 71.7455 390.452 78.4093 391.366C81.1681 391.172 83.9073 390.943 86.6212 390.696C86.6376 390.692 86.6591 390.693 86.6758 390.689C86.8062 390.677 86.9369 390.664 87.0617 390.657C87.6218 390.605 88.1822 390.552 88.7371 390.499L88.6061 390.75L88.1946 391.527C88.3425 391.267 88.4902 391.012 88.6381 390.752C88.6816 390.674 88.7303 390.596 88.7735 390.518C83.7778 385.535 80.0478 379.426 77.8961 372.703C75.7445 365.98 75.2339 358.838 76.4071 351.877C77.6348 344.965 80.4771 338.44 84.702 332.837C84.1464 332.668 83.5832 332.531 83.0137 332.409C81.408 334.607 79.9996 336.942 78.8048 339.388C74.5177 348.111 73.15 357.983 74.9041 367.545C76.5348 376.197 80.5976 384.204 86.6154 390.625C86.0884 390.588 85.5564 390.545 85.0357 390.498C75.1737 389.661 65.3318 387.539 56.3868 383.192C48.7409 379.566 42.1029 374.113 37.0575 367.314C31.6402 359.835 29.253 350.838 28.8429 341.694C28.4081 331.905 29.6769 321.944 31.9086 312.424C34.1873 302.664 37.6505 293.22 42.2209 284.303C42.3231 284.101 42.3437 283.867 42.2785 283.65C42.2133 283.433 42.0672 283.249 41.8705 283.137C41.7066 283.026 41.5056 282.985 41.3114 283.022C41.2163 283.047 41.1281 283.093 41.0535 283.157C40.9788 283.221 40.9195 283.301 40.88 283.392C40.3162 284.493 39.7629 285.596 39.2306 286.71C34.7975 295.995 31.5338 305.795 29.5143 315.885C27.5539 325.619 26.5075 335.801 27.5334 345.713Z" fill="white"/>
<path d="M495.853 337.024H235.001C232.311 337.021 229.731 335.95 227.829 334.046C225.927 332.141 224.857 329.559 224.854 326.866V10.1585C224.857 7.46526 225.927 4.88315 227.829 2.97871C229.731 1.07428 232.311 0.00303194 235.001 0H495.853C498.543 0.00303194 501.122 1.07428 503.025 2.97871C504.927 4.88315 505.997 7.46526 506 10.1585V326.866C505.997 329.559 504.927 332.141 503.025 334.046C501.122 335.95 498.543 337.021 495.853 337.024ZM235.001 1.19512C232.627 1.19781 230.351 2.14303 228.673 3.82341C226.994 5.50379 226.05 7.78212 226.047 10.1585V326.866C226.05 329.242 226.994 331.521 228.673 333.201C230.351 334.881 232.627 335.827 235.001 335.829H495.853C498.226 335.827 500.502 334.881 502.181 333.201C503.859 331.521 504.804 329.242 504.806 326.866V10.1585C504.804 7.78212 503.859 5.50379 502.181 3.82341C500.502 2.14303 498.226 1.19781 495.853 1.19512H235.001Z" fill="#3F3D56"/>
<path d="M235.001 1.19512C232.627 1.19781 230.351 2.14303 228.673 3.82341C226.994 5.50379 226.05 7.78212 226.047 10.1585V326.866C226.05 329.242 226.994 331.521 228.673 333.201C230.351 334.881 232.627 335.827 235.001 335.829H495.853C498.226 335.827 500.502 334.881 502.181 333.201C503.859 331.521 504.804 329.242 504.806 326.866V10.1585C504.804 7.78212 503.859 5.50379 502.181 3.82341C500.502 2.14303 498.226 1.19781 495.853 1.19512H235.001Z" fill="white"/>
<path d="M505.404 24.8528H225.451V26.0479H505.404V24.8528Z" fill="#3F3D56"/>
<path d="M239.18 17.9268C241.817 17.9268 243.955 15.7865 243.955 13.1463C243.955 10.5061 241.817 8.36584 239.18 8.36584C236.542 8.36584 234.404 10.5061 234.404 13.1463C234.404 15.7865 236.542 17.9268 239.18 17.9268Z" fill="#3F3D56"/>
<path d="M254.101 17.9268C256.739 17.9268 258.877 15.7865 258.877 13.1463C258.877 10.5061 256.739 8.36584 254.101 8.36584C251.464 8.36584 249.326 10.5061 249.326 13.1463C249.326 15.7865 251.464 17.9268 254.101 17.9268Z" fill="#3F3D56"/>
<path d="M269.025 17.9268C271.663 17.9268 273.801 15.7865 273.801 13.1463C273.801 10.5061 271.663 8.36584 269.025 8.36584C266.388 8.36584 264.25 10.5061 264.25 13.1463C264.25 15.7865 266.388 17.9268 269.025 17.9268Z" fill="#3F3D56"/>
<path d="M455.417 72.3049H269.18C267.122 72.3049 265.148 71.4865 263.693 70.0296C262.237 68.5728 261.42 66.5969 261.42 64.5366C261.42 62.4763 262.237 60.5004 263.693 59.0436C265.148 57.5868 267.122 56.7683 269.18 56.7683H455.417C457.475 56.7683 459.449 57.5868 460.904 59.0436C462.359 60.5004 463.177 62.4763 463.177 64.5366C463.177 66.5969 462.359 68.5728 460.904 70.0296C459.449 71.4865 457.475 72.3049 455.417 72.3049ZM269.18 57.9634C267.438 57.9634 265.768 58.656 264.537 59.8887C263.306 61.1214 262.614 62.7933 262.614 64.5366C262.614 66.2799 263.306 67.9518 264.537 69.1845C265.768 70.4172 267.438 71.1098 269.18 71.1098H455.417C457.158 71.1098 458.829 70.4172 460.06 69.1845C461.291 67.9518 461.983 66.2799 461.983 64.5366C461.983 62.7933 461.291 61.1214 460.06 59.8887C458.829 58.656 457.158 57.9634 455.417 57.9634H269.18Z" fill="#3F3D56"/>
<path d="M338.865 181.659H265.444C262.754 181.655 260.175 180.584 258.272 178.68C256.37 176.775 255.3 174.193 255.297 171.5V111.146C255.3 108.453 256.37 105.871 258.272 103.967C260.175 102.062 262.754 100.991 265.444 100.988H338.865C341.555 100.991 344.135 102.062 346.037 103.967C347.939 105.871 349.009 108.453 349.012 111.146V171.5C349.009 174.193 347.939 176.775 346.037 178.68C344.135 180.584 341.555 181.655 338.865 181.659ZM265.444 102.183C263.071 102.186 260.795 103.131 259.116 104.811C257.438 106.492 256.493 108.77 256.491 111.146V171.5C256.493 173.876 257.438 176.155 259.116 177.835C260.795 179.515 263.071 180.461 265.444 180.463H338.865C341.239 180.461 343.515 179.515 345.193 177.835C346.872 176.155 347.816 173.876 347.819 171.5V111.146C347.816 108.77 346.872 106.492 345.193 104.811C343.515 103.131 341.239 102.186 338.865 102.183H265.444Z" fill="#3F3D56"/>
<path d="M465.411 103.976H391.99C386.715 103.976 382.439 108.256 382.439 113.537V173.89C382.439 179.171 386.715 183.451 391.99 183.451H465.411C470.685 183.451 474.961 179.171 474.961 173.89V113.537C474.961 108.256 470.685 103.976 465.411 103.976Z" fill="#F2F2F2"/>
<path d="M338.865 294H265.444C262.754 293.997 260.175 292.926 258.272 291.021C256.37 289.117 255.3 286.535 255.297 283.841V223.488C255.3 220.794 256.37 218.212 258.272 216.308C260.175 214.404 262.754 213.332 265.444 213.329H338.865C341.555 213.332 344.135 214.404 346.037 216.308C347.939 218.212 349.009 220.794 349.012 223.488V283.841C349.009 286.535 347.939 289.117 346.037 291.021C344.135 292.926 341.555 293.997 338.865 294ZM265.444 214.524C263.071 214.527 260.795 215.472 259.116 217.153C257.438 218.833 256.493 221.111 256.491 223.488V283.841C256.493 286.218 257.438 288.496 259.116 290.177C260.795 291.857 263.071 292.802 265.444 292.805H338.865C341.239 292.802 343.515 291.857 345.193 290.177C346.872 288.496 347.816 286.218 347.819 283.841V223.488C347.816 221.111 346.872 218.833 345.193 217.153C343.515 215.472 341.239 214.527 338.865 214.524H265.444Z" fill="#3F3D56"/>
<path d="M465.411 216.317H391.99C386.715 216.317 382.439 220.598 382.439 225.878V286.232C382.439 291.512 386.715 295.793 391.99 295.793H465.411C470.685 295.793 474.961 291.512 474.961 286.232V225.878C474.961 220.598 470.685 216.317 465.411 216.317Z" fill="#F2F2F2"/>
<path d="M283.883 167.062C283.87 167.062 283.857 167.062 283.843 167.061L275.492 166.751C275.232 166.743 274.983 166.642 274.792 166.464C274.601 166.287 274.48 166.047 274.452 165.788C273.877 160.654 271.512 134.493 281.421 123.619C282.824 122.049 284.558 120.812 286.497 119.996C288.437 119.18 290.534 118.807 292.636 118.903C292.721 118.909 292.806 118.891 292.882 118.851C292.958 118.811 293.022 118.752 293.066 118.679L295.088 115.498C295.199 115.326 295.355 115.188 295.54 115.1C295.725 115.013 295.931 114.978 296.134 115.002C297.755 115.198 306.017 116.123 309.491 115.116C309.696 115.056 309.914 115.057 310.118 115.12C310.322 115.183 310.503 115.305 310.639 115.47L313.294 118.718C313.339 118.777 313.398 118.824 313.466 118.855C313.533 118.886 313.607 118.901 313.681 118.898C315.031 118.871 319.766 119.132 323.909 123.772C328.396 128.796 333.027 140.131 329.606 165.599C329.57 165.86 329.441 166.1 329.243 166.274C329.044 166.448 328.79 166.545 328.526 166.546H321.949C321.688 166.544 321.436 166.45 321.238 166.279C321.041 166.108 320.911 165.872 320.873 165.613L318.724 150.772C318.706 150.65 318.644 150.539 318.548 150.461C318.452 150.384 318.331 150.345 318.208 150.352C318.085 150.36 317.97 150.413 317.884 150.502C317.799 150.591 317.75 150.709 317.748 150.832L317.6 157.8C317.595 158.007 317.532 158.208 317.417 158.38C317.303 158.552 317.142 158.688 316.953 158.772C314.609 159.804 302.22 164.645 288.527 158.582C288.342 158.499 288.183 158.366 288.069 158.198C287.955 158.03 287.89 157.833 287.881 157.63L287.611 151.299C287.606 151.175 287.555 151.058 287.467 150.971C287.379 150.884 287.262 150.833 287.138 150.829C287.015 150.825 286.894 150.867 286.801 150.948C286.707 151.029 286.647 151.142 286.633 151.265L284.964 166.095C284.933 166.36 284.806 166.605 284.607 166.784C284.408 166.962 284.15 167.061 283.883 167.062Z" fill="#6C63FF"/>
<path d="M318.43 276.395H318.424L285.7 276.188C285.462 276.186 285.233 276.097 285.056 275.939C284.878 275.78 284.765 275.562 284.737 275.325L281.445 247.315C281.425 247.135 281.341 246.967 281.207 246.844C281.073 246.721 280.9 246.65 280.718 246.645C278.12 246.56 271.94 245.967 270.659 242.305C269.518 239.043 272.638 234.232 279.932 228.004C280.056 227.898 280.205 227.825 280.365 227.791C280.524 227.757 280.69 227.764 280.847 227.81C281.003 227.857 281.145 227.942 281.26 228.058C281.375 228.174 281.46 228.317 281.505 228.474L285.292 241.552C285.338 241.708 285.433 241.846 285.564 241.945C285.694 242.044 285.853 242.098 286.016 242.1L317.043 242.308C317.205 242.31 317.364 242.259 317.496 242.163C317.627 242.068 317.724 241.932 317.772 241.776L321.985 228.356C322.032 228.206 322.114 228.07 322.225 227.959C322.336 227.848 322.471 227.765 322.621 227.717C322.77 227.67 322.929 227.659 323.083 227.686C323.238 227.713 323.384 227.777 323.508 227.872C326.383 230.07 335.644 237.617 334.12 242.443C333.322 244.971 329.721 246.38 323.417 246.631C323.236 246.637 323.063 246.708 322.93 246.832C322.797 246.955 322.713 247.121 322.693 247.302L319.399 275.531C319.372 275.769 319.258 275.989 319.079 276.148C318.9 276.307 318.669 276.395 318.43 276.395Z" fill="#6C63FF"/>
<path d="M461.829 158.445C451.546 160.427 441.849 164.726 433.473 171.017C433.049 169.889 432.251 168.94 431.212 168.329C430.502 167.889 429.728 167.563 428.917 167.364C428.179 167.176 427.471 167.625 426.82 168.271C426.071 169.101 425.443 170.032 424.954 171.037C413.717 163.315 396.67 158.387 396.67 158.387V156.843C396.684 156.479 396.721 156.116 396.781 155.757C396.839 155.342 396.911 154.975 397.003 154.527C398.449 147.162 404.166 130.333 404.166 130.333H410.631L423.166 132.939L437.267 132.075L451.469 129.117L453.311 128.731C456.382 131.144 459.867 148.035 461.236 155.226C461.41 156.138 461.545 156.891 461.646 157.446C461.766 158.074 461.829 158.445 461.829 158.445Z" fill="white"/>
<path d="M423.253 232.582C423.253 232.582 420.25 233.333 415.593 245.961C410.936 258.588 409.286 274.903 409.286 274.903C409.286 274.903 406.667 279.342 417.845 279.639C417.845 279.639 416.946 282.571 423.253 282.121C429.559 281.671 428.652 281.675 428.652 281.675C428.652 281.675 432.706 279.119 434.509 279.569C436.311 280.019 437.437 280.172 439.388 281.824C441.339 283.475 447.576 282.802 447.65 281.527C447.701 280.9 447.701 280.27 447.65 279.643C447.65 279.643 457.187 280.246 455.384 273.33C453.582 266.413 452.08 255.062 452.08 255.062C452.08 255.062 447.201 232.888 441.64 232.586C436.08 232.285 423.253 232.582 423.253 232.582Z" fill="white"/>
<path d="M114.989 211.295C124.879 211.295 132.897 203.269 132.897 193.368C132.897 183.468 124.879 175.442 114.989 175.442C105.099 175.442 97.082 183.468 97.082 193.368C97.082 203.269 105.099 211.295 114.989 211.295Z" fill="#2F2E41"/>
<path d="M116.493 211.329C124.59 211.329 131.154 204.758 131.154 196.653C131.154 188.547 124.59 181.976 116.493 181.976C108.396 181.976 101.832 188.547 101.832 196.653C101.832 204.758 108.396 211.329 116.493 211.329Z" fill="#FFB8B8"/>
<path d="M172.329 241.294C172.096 241.528 171.882 241.781 171.689 242.049L142.105 241.002L138.721 234.65L128.477 238.509L133.375 250.338C133.771 251.293 134.466 252.095 135.355 252.621C136.244 253.148 137.28 253.372 138.308 253.259L171.785 249.579C172.563 250.587 173.629 251.334 174.841 251.721C176.054 252.108 177.355 252.116 178.572 251.745C179.789 251.373 180.864 250.639 181.655 249.641C182.445 248.643 182.913 247.427 182.996 246.156C183.08 244.885 182.775 243.619 182.122 242.526C181.469 241.432 180.499 240.564 179.341 240.036C178.183 239.508 176.892 239.346 175.639 239.57C174.387 239.795 173.232 240.396 172.329 241.294Z" fill="#FFB8B8"/>
<path d="M124.535 244.221C124.158 244.051 123.822 243.803 123.549 243.491C123.277 243.18 123.075 242.814 122.957 242.418L118.837 228.573C117.942 226.655 117.843 224.461 118.562 222.471C119.281 220.481 120.758 218.857 122.671 217.956C124.584 217.055 126.776 216.95 128.766 217.664C130.756 218.378 132.381 219.853 133.287 221.765L141.269 233.857C141.497 234.202 141.647 234.592 141.711 235.001C141.775 235.41 141.749 235.827 141.637 236.225C141.525 236.623 141.328 236.993 141.061 237.308C140.793 237.623 140.461 237.877 140.087 238.052L126.929 244.203C126.555 244.378 126.147 244.47 125.734 244.473C125.321 244.476 124.912 244.39 124.535 244.221Z" fill="#CCCCCC"/>
<path d="M153.673 384.786L160.101 381.283L149.664 354.798L140.178 359.967L153.673 384.786Z" fill="#FFB8B8"/>
<path d="M150.893 383.578L163.55 376.68C164.61 376.103 165.773 375.74 166.972 375.612C168.171 375.485 169.384 375.595 170.541 375.937C171.698 376.278 172.776 376.845 173.714 377.604C174.652 378.363 175.432 379.299 176.009 380.36L176.151 380.622L155.427 391.916L150.893 383.578Z" fill="#2F2E41"/>
<path d="M82.9471 384.814H90.2647L93.7465 356.557L82.9453 356.557L82.9471 384.814Z" fill="#FFB8B8"/>
<path d="M81.0801 382.423L95.4919 382.422C96.698 382.422 97.8929 382.66 99.0072 383.122C100.121 383.584 101.134 384.261 101.987 385.115C102.84 385.969 103.516 386.982 103.978 388.098C104.439 389.213 104.677 390.409 104.677 391.616V391.915L81.0805 391.916L81.0801 382.423Z" fill="#2F2E41"/>
<path d="M128.421 259.399L130.809 288.082L157.442 368.069C157.547 368.383 157.585 368.716 157.554 369.046C157.523 369.377 157.424 369.697 157.263 369.987C157.102 370.276 156.883 370.529 156.619 370.73C156.355 370.93 156.052 371.073 155.73 371.15L147.567 373.096C147.044 373.22 146.495 373.165 146.008 372.938C145.52 372.711 145.124 372.327 144.882 371.846L110.832 304.231C110.721 304.01 110.544 303.83 110.327 303.714C110.109 303.598 109.861 303.552 109.616 303.583C109.372 303.614 109.143 303.72 108.96 303.886C108.778 304.052 108.652 304.271 108.599 304.512L93.6146 372.85C93.4979 373.383 93.2031 373.859 92.7789 374.2C92.3548 374.542 91.8268 374.728 91.2825 374.728H83.6887C83.3724 374.729 83.0592 374.666 82.7673 374.544C82.4755 374.422 82.2108 374.243 81.9888 374.017C81.7667 373.792 81.5918 373.524 81.474 373.23C81.3563 372.937 81.2982 372.622 81.303 372.306C81.9989 324.921 79.7033 270.927 97.9782 262.387L100.963 254.618L128.421 259.399Z" fill="#2F2E41"/>
<path d="M100.102 256.653L97.0249 238.022C96.5155 234.967 96.7827 231.832 97.8017 228.908C98.8208 225.983 100.559 223.362 102.856 221.287C105.101 219.231 107.827 217.775 110.783 217.052C113.738 216.329 116.828 216.362 119.767 217.149C119.942 217.196 120.116 217.244 120.291 217.293C123.908 218.33 127.119 220.452 129.492 223.375C131.865 226.297 133.284 229.878 133.559 233.634C134.146 241.725 133.621 253.463 127.782 263.434L127.669 263.628L100.102 256.653Z" fill="#CCCCCC"/>
<path d="M131.077 188.852C127.727 191.164 123.751 192.394 119.682 192.378C121.133 193.385 122.786 194.066 124.525 194.372C119.115 195.534 113.524 195.565 108.102 194.465C106.896 194.271 105.733 193.871 104.664 193.283C104.13 192.985 103.666 192.578 103.3 192.088C102.935 191.599 102.676 191.037 102.541 190.441C102.181 188.381 103.785 186.508 105.452 185.247C108.004 183.344 110.947 182.034 114.067 181.409C117.187 180.785 120.407 180.863 123.493 181.638C125.509 182.159 127.528 183.04 128.837 184.66C130.146 186.281 130.533 188.779 129.286 190.447L131.077 188.852Z" fill="#2F2E41"/>
<path d="M114.754 175.353C116.454 168.484 110.363 160.851 103.295 160.994C96.1237 161.139 90.8467 167.626 87.2193 173.821C83.5918 180.015 79.9867 187.037 73.3273 189.703C71.1237 190.586 68.7356 190.907 66.3774 190.638C64.0192 190.37 61.7644 189.519 59.8153 188.163C57.8662 186.807 56.2837 184.988 55.2097 182.87C54.1357 180.751 53.6037 178.398 53.6614 176.023C52.7673 183.548 54.006 191.69 58.8538 197.511C63.7016 203.331 72.7221 205.955 79.2058 202.043C82.9088 199.809 85.2757 195.925 87.227 192.063C89.1783 188.201 90.9147 184.128 93.8714 180.97C96.8281 177.813 101.4 175.717 105.515 177.045C107.148 177.573 108.613 178.601 110.301 178.913C111.988 179.226 114.113 178.423 114.343 176.721L114.754 175.353Z" fill="#2F2E41"/>
<path d="M79.4192 299.91C78.8107 299.196 78.366 298.357 78.1163 297.453C77.8667 296.548 77.8182 295.6 77.9743 294.675C78.1303 293.749 78.4872 292.869 79.0197 292.097C79.5522 291.325 80.2474 290.679 81.0563 290.204L93.7738 233.139L106.675 238.44L90.1171 292.866C90.823 294.279 90.9865 295.903 90.5766 297.428C90.1668 298.954 89.2121 300.277 87.8935 301.145C86.5748 302.013 84.9839 302.367 83.422 302.139C81.8602 301.912 80.4359 301.119 79.4192 299.91Z" fill="#FFB8B8"/>
<path d="M88.7343 241.325C88.5312 240.965 88.4081 240.565 88.3734 240.153C88.3387 239.741 88.3933 239.326 88.5334 238.937L93.4238 225.345C93.84 223.27 95.0612 221.445 96.8196 220.271C98.5779 219.096 100.73 218.667 102.804 219.078C104.877 219.489 106.704 220.706 107.882 222.463C109.061 224.221 109.495 226.374 109.09 228.451L108.347 242.925C108.326 243.338 108.216 243.742 108.025 244.108C107.834 244.475 107.566 244.796 107.239 245.05C106.913 245.304 106.536 245.484 106.134 245.579C105.732 245.674 105.314 245.681 104.909 245.599L90.672 242.733C90.2669 242.652 89.884 242.484 89.5496 242.241C89.2151 241.998 88.9371 241.686 88.7343 241.325Z" fill="#CCCCCC"/>
<path d="M192.931 234.925L192.719 234.896L193.517 229.086C193.639 228.194 193.403 227.29 192.859 226.573C192.316 225.856 191.51 225.384 190.619 225.261L178.323 223.569C177.432 223.447 176.529 223.683 175.813 224.227C175.096 224.771 174.625 225.578 174.502 226.47L170.125 258.344C170.003 259.236 170.239 260.14 170.783 260.857C171.326 261.574 172.132 262.046 173.023 262.169L185.319 263.861C186.21 263.984 187.113 263.747 187.829 263.203C188.546 262.659 189.017 261.852 189.14 260.961L192.151 239.032L192.363 239.061L192.931 234.925Z" fill="#3F3D56"/>
<path d="M190.233 226.966L188.702 226.755C188.749 226.938 188.75 227.129 188.706 227.312C188.661 227.495 188.572 227.664 188.447 227.805C188.322 227.945 188.164 228.053 187.987 228.118C187.811 228.183 187.621 228.204 187.434 228.178L180.715 227.253C180.529 227.228 180.352 227.157 180.199 227.046C180.047 226.936 179.924 226.79 179.841 226.62C179.758 226.451 179.718 226.264 179.725 226.076C179.731 225.888 179.784 225.704 179.878 225.541L178.448 225.344C178.134 225.301 177.814 225.32 177.507 225.4C177.201 225.481 176.913 225.621 176.66 225.813C176.407 226.005 176.195 226.244 176.034 226.519C175.874 226.793 175.77 227.096 175.726 227.41L171.558 257.769C171.514 258.083 171.534 258.403 171.614 258.71C171.694 259.018 171.834 259.306 172.026 259.559C172.218 259.812 172.457 260.025 172.731 260.185C173.005 260.345 173.307 260.45 173.621 260.493L185.407 262.115C186.041 262.202 186.684 262.034 187.195 261.646C187.705 261.259 188.041 260.684 188.128 260.049L192.297 229.69C192.384 229.055 192.216 228.411 191.829 227.9C191.442 227.389 190.868 227.053 190.233 226.966Z" fill="white"/>
<path d="M181.875 252.171C185.501 252.171 188.441 249.228 188.441 245.598C188.441 241.967 185.501 239.024 181.875 239.024C178.248 239.024 175.309 241.967 175.309 245.598C175.309 249.228 178.248 252.171 181.875 252.171Z" fill="#6C63FF"/>
<path d="M181.225 248.105C181.077 248.105 180.933 248.058 180.815 247.969L180.807 247.963L179.264 246.781C179.193 246.726 179.132 246.658 179.087 246.58C179.042 246.501 179.012 246.415 179 246.326C178.988 246.236 178.994 246.145 179.017 246.058C179.04 245.971 179.081 245.889 179.136 245.817C179.19 245.746 179.259 245.685 179.337 245.64C179.415 245.595 179.501 245.566 179.591 245.554C179.68 245.542 179.771 245.548 179.858 245.572C179.945 245.595 180.027 245.636 180.098 245.691L181.098 246.458L183.46 243.375C183.514 243.303 183.583 243.243 183.661 243.198C183.739 243.153 183.825 243.124 183.914 243.112C184.003 243.1 184.094 243.106 184.181 243.129C184.268 243.153 184.349 243.193 184.421 243.248C184.565 243.359 184.66 243.522 184.683 243.703C184.707 243.883 184.659 244.066 184.548 244.21L181.77 247.837C181.706 247.921 181.623 247.988 181.528 248.035C181.434 248.081 181.33 248.105 181.225 248.105Z" fill="white"/>
<path d="M242.392 392H14.968C14.8097 392 14.6579 391.937 14.5459 391.825C14.434 391.713 14.3711 391.561 14.3711 391.402C14.3711 391.244 14.434 391.092 14.5459 390.98C14.6579 390.868 14.8097 390.805 14.968 390.805H242.392C242.551 390.805 242.702 390.868 242.814 390.98C242.926 391.092 242.989 391.244 242.989 391.402C242.989 391.561 242.926 391.713 242.814 391.825C242.702 391.937 242.551 392 242.392 392Z" fill="#3F3D56"/>
</g>
<defs>
<clipPath id="clip0_311_1950">
<rect width="506" height="392" fill="white"/>
</clipPath>
</defs>
</svg>
