<svg
            width="460"
            height="252"
            viewBox="0 0 460 252"
            fill="none"
            xmlns="http://www.w3.org/2000/svg"
          >
            <g clip-path="url(#clip0_269_1072)">
              
              <path
                d="M25.123 229.086C15.3207 237.435 13.2861 251.129 13.2861 251.129C13.2861 251.129 27.1443 251.287 36.9466 242.937C46.7489 234.588 48.7834 220.894 48.7834 220.894C48.7834 220.894 34.9253 220.736 25.123 229.086Z"
                fill="#F2F2F2"
              />
              <path
                d="M29.6518 232.408C25.4764 244.582 13.4721 251.5 13.4721 251.5C13.4721 251.5 8.23746 238.681 12.4129 226.508C16.5883 214.334 28.5926 207.416 28.5926 207.416C28.5926 207.416 33.8273 220.234 29.6518 232.408Z"
                fill="#F2F2F2"
              />
              <path
                d="M131.969 52.3003C129.751 49.4295 126.616 46.7733 126.418 43.2308C126.236 39.9817 128.661 36.7558 127.638 33.6473C126.852 31.2573 124.257 29.8152 121.722 29.0515C116.868 27.6104 111.673 27.8102 106.945 29.6198L107.201 29.439C104.315 28.412 100.942 29.4722 98.6709 31.4358C96.4 33.3995 95.0505 36.1213 94.0034 38.8489C92.9561 41.5764 92.1447 44.4038 90.6898 46.9609C89.2346 49.518 87.0068 51.8435 84.0674 52.7272C85.0514 54.6879 88.1275 55.3606 89.9317 54.0095C90.3925 53.6356 90.8068 53.2078 91.1656 52.7352C92.3688 51.2737 93.5721 49.8121 94.7755 48.3506C96.0136 50.5502 94.1639 53.5862 95.6858 55.6226C96.4705 56.6727 97.9038 57.0715 99.2349 57.3576C109.639 59.5751 120.431 59.1752 130.642 56.1939C131.463 55.9523 132.368 55.6196 132.709 54.8776C133.102 54.021 132.552 53.0552 131.969 52.3003Z"
                fill="#2F2E41"
              />
              <path
                d="M161.469 63.5037C161.404 63.789 161.361 64.079 161.342 64.371L138.602 77.4754L133.075 74.2969L127.183 82.0026L136.42 88.5794C137.166 89.1107 138.065 89.3858 138.981 89.3636C139.897 89.3413 140.781 89.0227 141.501 88.4557L164.95 69.9768C166.008 70.3681 167.16 70.4283 168.254 70.1493C169.347 69.8704 170.329 69.2656 171.07 68.4154C171.811 67.5651 172.275 66.5097 172.401 65.3895C172.526 64.2693 172.308 63.1375 171.774 62.1445C171.24 61.1515 170.416 60.3444 169.411 59.8306C168.407 59.3168 167.27 59.1207 166.151 59.2682C165.032 59.4158 163.985 59.9001 163.149 60.6567C162.312 61.4132 161.726 62.4063 161.469 63.5037Z"
                fill="#FFB7B7"
              />
              <path
                d="M137.841 78.0959L130.492 87.6109C130.283 87.8817 130.018 88.1042 129.715 88.2633C129.412 88.4225 129.078 88.5146 128.736 88.5333C128.395 88.552 128.053 88.4969 127.734 88.3717C127.416 88.2466 127.128 88.0543 126.89 87.808L118.57 79.1775C117.188 78.1016 116.289 76.5217 116.072 74.7845C115.854 73.0474 116.336 71.2951 117.41 69.9122C118.485 68.5293 120.065 67.6288 121.804 67.4085C123.542 67.1882 125.297 67.666 126.684 68.737L137.119 74.5658C137.417 74.7327 137.677 74.9621 137.879 75.2381C138.081 75.5142 138.221 75.8305 138.289 76.1655C138.358 76.5005 138.353 76.8464 138.276 77.1795C138.199 77.5126 138.051 77.8252 137.841 78.0959Z"
                fill="#6C63FF"
              />
              <path
                d="M127.728 243.884L134.218 243.883L137.305 218.878L127.727 218.878L127.728 243.884Z"
                fill="#FFB7B7"
              />
              <path
                d="M126.071 241.767L138.852 241.766H138.853C141.013 241.767 143.084 242.624 144.612 244.15C146.139 245.675 146.997 247.745 146.998 249.903V250.167L126.072 250.168L126.071 241.767Z"
                fill="#2F2E41"
              />
              <path
                d="M83.2618 243.884L89.7517 243.883L92.8389 218.878L83.2607 218.878L83.2618 243.884Z"
                fill="#FFB7B7"
              />
              <path
                d="M81.6055 241.767L94.3862 241.766H94.3868C96.5469 241.767 98.6185 242.624 100.146 244.15C101.673 245.675 102.532 247.745 102.532 249.903V250.167L81.6059 250.168L81.6055 241.767Z"
                fill="#2F2E41"
              />
              <path
                d="M123.829 48.7654C124.505 42.6146 120.062 37.081 113.904 36.4058C107.747 35.7307 102.207 40.1695 101.531 46.3203C100.856 52.4711 105.299 58.0046 111.457 58.6798C117.614 59.355 123.153 54.9161 123.829 48.7654Z"
                fill="#FFB7B7"
              />
              <path
                d="M119.243 64.3386L125.851 67.6085C125.851 67.6085 133.234 80.4247 128.999 92.5869C126.943 98.4917 132.732 117.315 132.732 117.315C132.732 117.315 141.703 202.575 141.732 228.889C130.587 230.601 120 232.716 119.47 227.428C118.941 222.14 113.146 159.618 113.146 159.618C113.146 159.618 105.178 229.014 98.8254 230.072C92.4731 231.129 79.7686 229.543 79.7686 229.543C79.7686 229.543 89.8546 127.89 96.7363 121.545L97.795 116.257L97.7667 68.7914L105.695 65.0118L119.243 64.3386Z"
                fill="#2F2E41"
              />
              <path
                d="M95.6057 136.397C96.3369 136.002 96.9724 135.451 97.4676 134.784C97.9627 134.117 98.3054 133.349 98.4715 132.536C98.6376 131.722 98.6231 130.882 98.4289 130.074C98.2348 129.267 97.8658 128.512 97.3479 127.862L105.032 76.6953L94.9928 76.2139L89.0025 127.169C87.9676 128.11 87.3145 129.398 87.1667 130.788C87.019 132.179 87.3869 133.575 88.2009 134.712C89.0148 135.85 90.2181 136.65 91.5829 136.96C92.9477 137.271 94.379 137.07 95.6057 136.397Z"
                fill="#FFB7B7"
              />
              <path
                d="M104.814 89.5157L92.8072 88.7585C92.4656 88.737 92.1326 88.6421 91.831 88.4804C91.5293 88.3187 91.2661 88.094 91.0593 87.8216C90.8524 87.5491 90.7068 87.2353 90.6323 86.9015C90.5578 86.5678 90.5562 86.2219 90.6276 85.8875L93.1294 74.1694C93.2494 72.4237 94.0575 70.7969 95.3765 69.6455C96.6956 68.4942 98.4178 67.9125 100.166 68.0278C101.913 68.1432 103.544 68.9463 104.7 70.261C105.856 71.5756 106.443 73.2946 106.332 75.0408L107.338 86.9414C107.367 87.2821 107.322 87.625 107.206 87.9468C107.09 88.2685 106.906 88.5615 106.666 88.8058C106.427 89.0501 106.137 89.24 105.818 89.3625C105.498 89.485 105.156 89.5373 104.814 89.5157Z"
                fill="#6C63FF"
              />
              <path
                d="M436.658 40.9968H171.136C169.198 40.9968 167.339 41.766 165.969 43.1351C164.598 44.5042 163.828 46.3611 163.828 48.2973V196.082C163.828 198.018 164.598 199.875 165.969 201.244C167.339 202.614 169.198 203.383 171.136 203.383H436.658C438.596 203.383 440.455 202.614 441.826 201.244C443.196 199.875 443.966 198.018 443.966 196.082V48.2973C443.966 46.3611 443.196 44.5042 441.826 43.1351C440.455 41.766 438.596 40.9968 436.658 40.9968Z"
                fill="#3F3D56"
              />
              <path
                d="M434.169 53.8987H173.627V200.713H434.169V53.8987Z"
                fill="white"
              />
              <path
                d="M303.675 49.8946C305.151 49.8946 306.347 48.6995 306.347 47.2253C306.347 45.751 305.151 44.5559 303.675 44.5559C302.199 44.5559 301.003 45.751 301.003 47.2253C301.003 48.6995 302.199 49.8946 303.675 49.8946Z"
                fill="white"
              />
              <path
                d="M359.658 200.714H173.627V53.8987L359.658 200.714Z"
                fill="#F2F2F2"
              />
              <path
                d="M451.282 198.044H425.855V196.214C425.855 196.118 425.817 196.025 425.749 195.957C425.681 195.889 425.588 195.851 425.492 195.851H416.774C416.726 195.851 416.679 195.86 416.635 195.879C416.591 195.897 416.551 195.924 416.517 195.957C416.483 195.991 416.456 196.031 416.438 196.075C416.42 196.119 416.411 196.166 416.411 196.214V198.044H410.962V196.214C410.962 196.166 410.953 196.119 410.934 196.075C410.916 196.031 410.889 195.991 410.856 195.957C410.822 195.924 410.782 195.897 410.738 195.879C410.694 195.86 410.646 195.851 410.599 195.851H401.881C401.833 195.851 401.786 195.86 401.742 195.879C401.698 195.897 401.658 195.924 401.624 195.957C401.59 195.991 401.564 196.031 401.545 196.075C401.527 196.119 401.518 196.166 401.518 196.214V198.044H396.069V196.214C396.069 196.166 396.06 196.119 396.041 196.075C396.023 196.031 395.996 195.991 395.963 195.957C395.929 195.924 395.889 195.897 395.845 195.879C395.801 195.86 395.753 195.851 395.706 195.851H386.988C386.94 195.851 386.893 195.86 386.849 195.879C386.805 195.897 386.765 195.924 386.731 195.957C386.697 195.991 386.67 196.031 386.652 196.075C386.634 196.119 386.625 196.166 386.625 196.214V198.044H381.176V196.214C381.176 196.166 381.166 196.119 381.148 196.075C381.13 196.031 381.103 195.991 381.069 195.957C381.036 195.924 380.996 195.897 380.952 195.879C380.908 195.86 380.86 195.851 380.813 195.851H372.095C372.047 195.851 372 195.86 371.956 195.879C371.912 195.897 371.872 195.924 371.838 195.957C371.804 195.991 371.777 196.031 371.759 196.075C371.741 196.119 371.731 196.166 371.731 196.214V198.044H366.283V196.214C366.283 196.166 366.273 196.119 366.255 196.075C366.237 196.031 366.21 195.991 366.176 195.957C366.143 195.924 366.103 195.897 366.059 195.879C366.014 195.86 365.967 195.851 365.92 195.851H357.202C357.154 195.851 357.107 195.86 357.063 195.879C357.019 195.897 356.979 195.924 356.945 195.957C356.911 195.991 356.884 196.031 356.866 196.075C356.848 196.119 356.838 196.166 356.838 196.214V198.044H351.39V196.214C351.39 196.166 351.38 196.119 351.362 196.075C351.344 196.031 351.317 195.991 351.283 195.957C351.25 195.924 351.21 195.897 351.165 195.879C351.121 195.86 351.074 195.851 351.026 195.851H342.309C342.261 195.851 342.214 195.86 342.17 195.879C342.125 195.897 342.085 195.924 342.052 195.957C342.018 195.991 341.991 196.031 341.973 196.075C341.955 196.119 341.945 196.166 341.945 196.214V198.044H336.497V196.214C336.497 196.166 336.487 196.119 336.469 196.075C336.451 196.031 336.424 195.991 336.39 195.957C336.357 195.924 336.316 195.897 336.272 195.879C336.228 195.86 336.181 195.851 336.133 195.851H267.843C267.796 195.851 267.748 195.86 267.704 195.879C267.66 195.897 267.62 195.924 267.586 195.957C267.553 195.991 267.526 196.031 267.508 196.075C267.489 196.119 267.48 196.166 267.48 196.214V198.044H262.031V196.214C262.031 196.166 262.022 196.119 262.004 196.075C261.985 196.031 261.959 195.991 261.925 195.957C261.891 195.924 261.851 195.897 261.807 195.879C261.763 195.86 261.716 195.851 261.668 195.851H252.95C252.902 195.851 252.855 195.86 252.811 195.879C252.767 195.897 252.727 195.924 252.693 195.957C252.66 195.991 252.633 196.031 252.615 196.075C252.596 196.119 252.587 196.166 252.587 196.214V198.044H247.138V196.214C247.138 196.166 247.129 196.119 247.111 196.075C247.092 196.031 247.066 195.991 247.032 195.957C246.998 195.924 246.958 195.897 246.914 195.879C246.87 195.86 246.823 195.851 246.775 195.851H238.057C238.009 195.851 237.962 195.86 237.918 195.879C237.874 195.897 237.834 195.924 237.8 195.957C237.766 195.991 237.74 196.031 237.721 196.075C237.703 196.119 237.694 196.166 237.694 196.214V198.044H232.245V196.214C232.245 196.166 232.236 196.119 232.217 196.075C232.199 196.031 232.172 195.991 232.139 195.957C232.105 195.924 232.065 195.897 232.021 195.879C231.977 195.86 231.93 195.851 231.882 195.851H223.164C223.116 195.851 223.069 195.86 223.025 195.879C222.981 195.897 222.941 195.924 222.907 195.957C222.873 195.991 222.847 196.031 222.828 196.075C222.81 196.119 222.801 196.166 222.801 196.214V198.044H217.352V196.214C217.352 196.166 217.343 196.119 217.324 196.075C217.306 196.031 217.279 195.991 217.246 195.957C217.212 195.924 217.172 195.897 217.128 195.879C217.084 195.86 217.037 195.851 216.989 195.851H208.271C208.223 195.851 208.176 195.86 208.132 195.879C208.088 195.897 208.048 195.924 208.014 195.957C207.98 195.991 207.954 196.031 207.935 196.075C207.917 196.119 207.908 196.166 207.908 196.214V198.044H202.459V196.214C202.459 196.166 202.45 196.119 202.431 196.075C202.413 196.031 202.386 195.991 202.353 195.957C202.319 195.924 202.279 195.897 202.235 195.879C202.191 195.86 202.143 195.851 202.096 195.851H193.378C193.282 195.851 193.189 195.889 193.121 195.957C193.053 196.025 193.015 196.118 193.015 196.214V198.044H187.566V196.214C187.566 196.166 187.557 196.119 187.538 196.075C187.52 196.031 187.493 195.991 187.46 195.957C187.426 195.924 187.386 195.897 187.342 195.879C187.298 195.86 187.25 195.851 187.203 195.851H178.485C178.388 195.851 178.296 195.889 178.228 195.957C178.16 196.025 178.122 196.118 178.122 196.214V198.044H161.412C160.267 198.044 159.134 198.269 158.076 198.707C157.018 199.145 156.057 199.786 155.248 200.595C154.438 201.403 153.796 202.363 153.358 203.42C152.92 204.476 152.694 205.609 152.694 206.753V210.69C152.694 213 153.613 215.215 155.248 216.848C156.883 218.481 159.1 219.399 161.412 219.399H451.282C453.594 219.399 455.812 218.481 457.447 216.848C459.082 215.215 460 213 460 210.69V206.753C460 205.609 459.775 204.476 459.337 203.42C458.898 202.363 458.256 201.403 457.447 200.595C456.637 199.786 455.676 199.145 454.618 198.707C453.561 198.269 452.427 198.044 451.282 198.044Z"
                fill="#3F3D56"
              />
              <path
                d="M308.909 181.462C308.822 181.669 308.725 181.871 308.616 182.067C308.048 183.115 307.245 184.017 306.27 184.704C305.115 185.516 303.759 185.995 302.35 186.09C300.942 186.185 299.534 185.891 298.281 185.241C297.028 184.591 295.977 183.61 295.244 182.405C294.511 181.2 294.123 179.816 294.123 178.406V177.163H295.179C299.281 179.812 304.027 181.298 308.909 181.462Z"
                fill="#3F3D56"
              />
              <path
                d="M323.977 177.527V178.406C323.977 180.117 323.407 181.78 322.356 183.131C321.305 184.483 319.833 185.446 318.173 185.869C316.513 186.291 314.76 186.15 313.189 185.466C311.619 184.782 310.321 183.594 309.502 182.092C309.389 181.891 309.287 181.684 309.196 181.472C309.422 181.478 309.644 181.481 309.869 181.481C314.847 181.487 319.729 180.118 323.977 177.527Z"
                fill="#3F3D56"
              />
              <path
                d="M334.363 84.5726C334.131 84.5387 333.897 84.5171 333.662 84.5017C336.329 90.6403 336.514 97.5716 334.178 103.843C334.412 103.816 334.644 103.779 334.876 103.735C337.137 103.298 339.169 102.073 340.611 100.278C342.053 98.4841 342.81 96.237 342.749 93.937C342.687 91.637 341.811 89.4335 340.275 87.7187C338.739 86.0038 336.644 84.889 334.363 84.5726Z"
                fill="#3F3D56"
              />
              <path
                d="M286.076 84.5017C285.841 84.5171 285.607 84.5387 285.375 84.5726C283.094 84.889 280.999 86.0039 279.463 87.7187C277.928 89.4335 277.051 91.6371 276.99 93.937C276.928 96.2369 277.686 98.4841 279.128 100.278C280.569 102.073 282.602 103.298 284.863 103.735C285.094 103.779 285.326 103.816 285.56 103.843C283.225 97.5715 283.41 90.6403 286.076 84.5017Z"
                fill="#3F3D56"
              />
              <path
                d="M334.363 84.5724C331.82 78.5031 327.108 73.5949 321.145 70.8014C315.181 68.008 308.391 67.5286 302.093 69.4566C295.795 71.3845 290.44 75.5821 287.067 81.2338C283.694 86.8855 282.545 93.5877 283.843 100.039C285.14 106.489 288.792 112.228 294.088 116.14C299.384 120.052 305.947 121.857 312.501 121.206C319.056 120.554 325.134 117.492 329.555 112.615C333.976 107.737 336.423 101.392 336.423 94.8123C336.422 91.2965 335.722 87.8159 334.363 84.5724ZM334.178 103.843C331.92 109.908 327.47 114.908 321.706 117.86C315.942 120.813 309.28 121.503 303.032 119.795C296.784 118.087 291.403 114.105 287.947 108.632C284.49 103.159 283.21 96.5923 284.357 90.2239C285.505 83.8555 288.997 78.1468 294.147 74.2213C299.296 70.2959 305.73 68.438 312.182 69.0134C318.634 69.5889 324.637 72.5559 329.009 77.3305C333.381 82.1051 335.805 88.3415 335.805 94.8123C335.804 97.8952 335.253 100.953 334.178 103.843Z"
                fill="#3F3D56"
              />
              <path
                d="M323.455 88.7981H296.284C294.851 88.7981 293.477 89.3668 292.463 90.379C291.45 91.3912 290.881 92.7641 290.881 94.1956C290.881 95.6271 291.45 97 292.463 98.0122C293.477 99.0244 294.851 99.5931 296.284 99.5931H323.455C324.888 99.5931 326.262 99.0244 327.276 98.0122C328.289 97 328.858 95.6271 328.858 94.1956C328.858 92.7641 328.289 91.3912 327.276 90.379C326.262 89.3668 324.888 88.7981 323.455 88.7981Z"
                fill="#3F3D56"
              />
              <path
                d="M334.178 140.904C334.079 140.722 333.977 140.543 333.872 140.367C333.869 140.361 333.866 140.358 333.863 140.352C331.434 136.198 327.965 132.746 323.797 130.335C319.628 127.924 314.904 126.638 310.088 126.602C305.272 126.565 300.529 127.781 296.325 130.128C292.121 132.476 288.6 135.875 286.108 139.992C283.616 144.11 282.239 148.803 282.111 153.613C281.984 158.422 283.11 163.182 285.38 167.426C287.65 171.669 290.986 175.25 295.059 177.817C299.133 180.384 303.805 181.848 308.616 182.067C308.909 182.082 309.206 182.092 309.502 182.092C309.626 182.098 309.746 182.098 309.87 182.098C314.833 182.105 319.707 180.774 323.977 178.246C328.615 175.504 332.361 171.482 334.765 166.664C334.768 166.658 334.771 166.655 334.774 166.649C334.867 166.464 334.956 166.275 335.046 166.084C336.903 162.117 337.792 157.767 337.642 153.39C337.491 149.013 336.304 144.734 334.178 140.904ZM334.444 165.915C334.354 166.106 334.262 166.294 334.166 166.479C331.869 171.04 328.339 174.867 323.977 177.527C319.729 180.118 314.847 181.487 309.87 181.481C309.644 181.481 309.422 181.478 309.196 181.472C309.101 181.472 309.005 181.469 308.909 181.462C304.195 181.298 299.605 179.91 295.59 177.436C291.576 174.961 288.276 171.485 286.014 167.35C283.753 163.215 282.608 158.563 282.693 153.851C282.777 149.14 284.088 144.532 286.497 140.48C288.905 136.429 292.328 133.073 296.429 130.744C300.53 128.415 305.167 127.193 309.884 127.197C314.601 127.202 319.236 128.433 323.332 130.77C327.428 133.107 330.845 136.469 333.246 140.525C333.249 140.531 333.252 140.534 333.255 140.54C333.363 140.716 333.468 140.895 333.567 141.074C335.686 144.844 336.871 149.066 337.024 153.388C337.176 157.709 336.292 162.004 334.444 165.915Z"
                fill="#3F3D56"
              />
              <path
                d="M331.227 141.724C330.686 141.339 330.038 141.131 329.374 141.129H317.23C316.385 141.129 315.573 141.465 314.975 142.062C314.377 142.66 314.041 143.47 314.041 144.315C314.041 145.16 314.377 145.971 314.975 146.568C315.573 147.166 316.385 147.501 317.23 147.501H329.374C329.591 147.502 329.807 147.48 330.019 147.437C330.231 147.391 330.437 147.326 330.637 147.242C331.156 147.019 331.606 146.661 331.942 146.207C332.277 145.752 332.486 145.217 332.546 144.655C332.606 144.094 332.515 143.527 332.283 143.012C332.052 142.497 331.687 142.052 331.227 141.724Z"
                fill="#3F3D56"
              />
              <path
                d="M318.039 145.933C318.934 145.933 319.658 145.208 319.658 144.315C319.658 143.422 318.934 142.698 318.039 142.698C317.145 142.698 316.42 143.422 316.42 144.315C316.42 145.208 317.145 145.933 318.039 145.933Z"
                fill="#F1F1F1"
              />
              <path
                d="M323.302 145.933C324.196 145.933 324.921 145.208 324.921 144.315C324.921 143.422 324.196 142.698 323.302 142.698C322.408 142.698 321.683 143.422 321.683 144.315C321.683 145.208 322.408 145.933 323.302 145.933Z"
                fill="#F1F1F1"
              />
              <path
                d="M328.565 145.933C329.459 145.933 330.184 145.208 330.184 144.315C330.184 143.422 329.459 142.698 328.565 142.698C327.67 142.698 326.945 143.422 326.945 144.315C326.945 145.208 327.67 145.933 328.565 145.933Z"
                fill="#6C63FF"
              />
              <path
                d="M389.551 91.0039C385.34 93.5266 377.838 96.6877 370.171 93.4391L365.215 91.3391L375.146 80.218C367.221 71.4891 362.837 60.1233 362.849 48.339C362.861 36.5548 367.268 25.198 375.212 16.4853C383.155 7.77258 394.063 2.32936 405.807 1.21808C417.552 0.106808 429.289 3.40724 438.728 10.4752C448.168 17.5431 454.632 27.8712 456.859 39.4436C459.086 51.016 456.916 63.002 450.772 73.0621C444.629 83.1223 434.953 90.5344 423.633 93.8519C412.313 97.1693 400.162 96.1539 389.551 91.0039Z"
                fill="white"
              />
              <path
                d="M389.577 91.6033C385.531 93.9764 377.823 97.256 369.964 93.9258L364.328 91.5377L374.436 80.2194C368.147 73.1528 364.092 64.3853 362.781 55.021C361.471 45.6568 362.963 36.1145 367.071 27.5959C371.179 19.0774 377.718 11.9635 385.866 7.15021C394.013 2.33692 403.404 0.0394563 412.856 0.54716C422.307 1.05486 431.398 4.34503 438.981 10.0033C446.565 15.6616 452.303 23.4349 455.472 32.3444C458.642 41.2538 459.102 50.901 456.793 60.0709C454.485 69.2407 449.512 77.5233 442.501 83.8755C435.459 90.2935 426.656 94.4593 417.224 95.8366C407.792 97.2138 398.163 95.7395 389.577 91.6033ZM445.022 16.9122C440.885 12.353 435.889 8.65258 430.32 6.02234C424.75 3.3921 418.717 1.88357 412.564 1.58289C406.411 1.2822 400.259 2.19527 394.46 4.26994C388.66 6.3446 383.326 9.54022 378.763 13.6743C374.2 17.8083 370.497 22.7999 367.865 28.3637C365.234 33.9276 363.725 39.9549 363.426 46.1013C363.126 52.2477 364.042 58.3928 366.12 64.1857C368.199 69.9785 371.399 75.3057 375.539 79.8628L375.858 80.2152L366.102 91.1406L370.378 92.9524C377.967 96.1685 385.478 92.8277 389.279 90.5504L389.525 90.403L389.783 90.5282C399.582 95.2844 410.733 96.4846 421.322 93.9227C431.91 91.3607 441.276 85.1965 447.81 76.4883C454.344 67.78 457.64 57.0711 457.131 46.1999C456.623 35.3287 452.341 24.9736 445.022 16.9122Z"
                fill="#6C63FF"
              />
              <path
                opacity="0.1"
                d="M450.322 48.0922C450.321 37.1956 446.237 26.6942 438.872 18.656C431.507 10.6177 421.397 5.62523 410.531 4.66169C411.803 4.55043 413.089 4.49023 414.389 4.49023C425.961 4.49721 437.056 9.09404 445.236 17.2702C453.416 25.4464 458.012 36.5327 458.012 48.0921C458.012 59.6515 453.416 70.7379 445.236 78.9141C437.056 87.0902 425.961 91.6871 414.389 91.6941C413.091 91.6941 411.807 91.6331 410.537 91.5221C421.402 90.5571 431.511 85.5641 438.874 77.5261C446.237 69.4881 450.321 58.9876 450.322 48.0922Z"
                fill="black"
              />
              <path
                d="M416.439 39.3972H385.25V42.2905H416.439V39.3972Z"
                fill="#6C63FF"
              />
              <path
                d="M439.611 49.4062H385.25V52.2995H439.611V49.4062Z"
                fill="#6C63FF"
              />
              <path
                d="M439.557 59.415H385.25V62.3083H439.557V59.415Z"
                fill="#6C63FF"
              />
              <path
                d="M202.214 250.719H0.529356C0.388962 250.719 0.254318 250.664 0.155044 250.565C0.0557709 250.465 0 250.331 0 250.191C0 250.05 0.0557709 249.916 0.155044 249.817C0.254318 249.718 0.388962 249.662 0.529356 249.662H202.214C202.354 249.662 202.489 249.718 202.588 249.817C202.688 249.916 202.743 250.05 202.743 250.191C202.743 250.331 202.688 250.465 202.588 250.565C202.489 250.664 202.354 250.719 202.214 250.719Z"
                fill="#CBCBCB"
              />
              <path
                d="M124.436 40.2599C123.999 38.2794 122.579 36.6385 120.944 35.4367C118.248 33.4557 114.942 32.4819 111.602 32.6848C108.261 32.8877 105.097 34.2546 102.662 36.5473C101.301 37.7481 100.319 39.319 99.838 41.068C99.6084 41.9422 99.5961 42.8592 99.8023 43.7391C100.009 44.6191 100.427 45.4354 101.021 46.1169L101.245 46.2571C101.042 45.3963 101.711 44.5361 102.511 44.1563C103.343 43.8513 104.211 43.6569 105.094 43.5779C106.429 43.3258 107.694 42.7904 108.804 42.0079C109.915 41.2253 110.844 40.2138 111.529 39.0417C112.037 40.4843 112.848 41.8015 113.907 42.9049C114.967 44.0082 116.251 44.872 117.673 45.4383C119.156 46.0173 123.227 46.8136 124.638 46.0784C126.439 45.1407 124.873 42.2404 124.436 40.2599Z"
                fill="#2F2E41"
              />
            </g>
            <defs>
              
              <clipPath id="clip0_269_1072">
                
                <rect
                  width="460"
                  height="251"
                  fill="white"
                  transform="translate(0 0.5)"
                />
              </clipPath>
            </defs>
          </svg>