<svg width="452" height="352" viewBox="0 0 452 352" fill="none" xmlns="http://www.w3.org/2000/svg">
<g clip-path="url(#clip0_269_1140)">
<path d="M93.8352 231.533C73.3995 211.403 64.7684 190.401 69.5313 172.399C75.6434 149.296 102.797 133.323 144.029 128.574L144.181 129.899C103.523 134.581 76.784 150.196 70.8198 172.74C66.1846 190.26 74.6904 210.803 94.7704 230.583L93.8352 231.533Z" fill="#F0F0F0"/>
<path d="M291.005 302.99C265.5 302.99 237.784 299.198 210.255 291.905C176.211 282.886 144.996 269.274 119.985 252.538L120.726 251.43C145.616 268.084 176.693 281.635 210.596 290.615C241.234 298.732 272.101 302.493 299.85 301.5L299.898 302.833C296.968 302.938 294.003 302.991 291.005 302.99Z" fill="#F0F0F0"/>
<path d="M349.517 294.603L349.09 293.34C371.901 285.623 386.168 273.191 390.349 257.387C395.664 237.297 384.117 213.984 357.835 191.742C331.419 169.387 293.327 150.838 250.573 139.512L250.914 138.223C293.855 149.598 332.132 168.243 358.696 190.724C385.393 213.317 397.092 237.113 391.638 257.728C387.337 273.985 372.772 286.736 349.517 294.603Z" fill="#F0F0F0"/>
<path d="M140.061 303.548C89.9451 281.306 51.3271 252.451 31.3213 222.296L32.4315 221.559C52.299 251.504 90.7143 280.189 140.601 302.329L140.061 303.548Z" fill="#F0F0F0"/>
<path d="M316.264 342.079C311.094 342.079 305.837 341.964 300.491 341.733L300.548 340.4C340.442 342.129 375.642 337.351 402.347 326.582L402.846 327.82C379.549 337.213 349.857 342.079 316.264 342.079Z" fill="#F0F0F0"/>
<path d="M287.186 129.77C278.903 127.071 270.383 124.559 261.863 122.302C212.833 109.313 164.636 104.702 122.481 108.968L122.347 107.641C164.659 103.361 213.021 107.983 262.204 121.012C270.748 123.276 279.292 125.796 287.599 128.502L287.186 129.77Z" fill="#F0F0F0"/>
<path d="M62.5139 233.534C42.0782 213.403 33.4472 192.402 38.21 174.399C44.3222 151.297 71.4756 135.323 112.708 130.575L112.86 131.9C72.2019 136.582 45.4627 152.197 39.4985 174.741C34.8633 192.261 43.3691 212.803 63.4491 232.584L62.5139 233.534Z" fill="#F0F0F0"/>
<path d="M259.684 304.991C234.179 304.991 206.463 301.198 178.933 293.905C144.889 284.887 113.675 271.274 88.6641 254.539L89.4046 253.43C114.295 270.085 145.371 283.635 179.274 292.616C209.912 300.733 240.78 304.493 268.529 303.501L268.577 304.833C265.646 304.939 262.682 304.991 259.684 304.991Z" fill="#F0F0F0"/>
<path d="M318.196 296.604L317.769 295.341C340.579 287.623 354.847 275.191 359.028 259.388C364.343 239.298 352.796 215.984 326.514 193.742C300.098 171.387 262.005 152.838 219.252 141.513L219.593 140.223C262.533 151.599 300.811 170.244 327.374 192.724C354.072 215.317 365.771 239.113 360.316 259.729C356.015 275.986 341.45 288.737 318.196 296.604Z" fill="#F0F0F0"/>
<path d="M108.74 305.548C58.6239 283.307 20.0058 254.451 0 224.297L1.11025 223.559C20.9778 253.505 59.3931 282.189 109.28 304.329L108.74 305.548Z" fill="#F0F0F0"/>
<path d="M284.942 344.08C279.773 344.08 274.516 343.964 269.17 343.733L269.227 342.401C309.121 344.129 344.32 339.352 371.026 328.583L371.524 329.82C348.228 339.213 318.535 344.08 284.942 344.08Z" fill="#F0F0F0"/>
<path d="M255.865 131.771C247.582 129.072 239.062 126.559 230.542 124.302C181.512 111.314 133.315 106.702 91.1594 110.969L91.0254 109.641C133.338 105.361 181.7 109.984 230.883 123.013C239.427 125.276 247.971 127.796 256.278 130.503L255.865 131.771Z" fill="#F0F0F0"/>
<path d="M22.7176 197.812C32.2953 187.067 47.5735 180.517 61.4189 184.438C48.6459 193.483 39.4819 206.757 35.5482 221.912C34.0523 227.763 32.9972 234.425 28.135 238.002C25.1097 240.228 21.1011 240.76 17.3805 240.253C13.6598 239.746 10.1418 238.298 6.6712 236.863L5.7373 236.944C8.42232 222.799 13.1398 208.558 22.7176 197.812Z" fill="#F2F2F2"/>
<path d="M61.3761 184.737C49.8004 187.542 39.4021 193.925 31.6581 202.979C29.9564 204.899 28.5678 207.075 27.5433 209.428C26.6193 211.751 26.334 214.28 26.7171 216.752C27.0281 219.063 27.6137 221.392 27.3577 223.739C27.2088 224.938 26.8082 226.092 26.1823 227.126C25.5563 228.16 24.719 229.049 23.7254 229.736C21.2941 231.513 18.3698 232.309 15.4831 232.989C12.2779 233.743 8.93683 234.476 6.32411 236.607C6.00754 236.866 5.62559 236.359 5.94168 236.101C10.4874 232.393 16.8048 232.869 21.8342 230.175C24.181 228.918 26.1635 226.946 26.6455 224.24C27.067 221.874 26.4652 219.472 26.1301 217.134C25.7211 214.729 25.9069 212.26 26.6713 209.943C27.5727 207.546 28.8753 205.32 30.5232 203.36C34.1627 198.889 38.4821 195.018 43.3232 191.89C48.8285 188.288 54.9089 185.656 61.3013 184.107C61.6969 184.011 61.7692 184.642 61.3761 184.737Z" fill="white"/>
<path d="M33.9805 199.917C32.6386 198.411 31.8756 196.476 31.8276 194.459C31.7796 192.441 32.4498 190.473 33.7185 188.904C33.9763 188.588 34.4799 188.974 34.2218 189.291C33.0377 190.749 32.4135 192.583 32.4621 194.461C32.5106 196.34 33.2285 198.139 34.4864 199.534C34.7593 199.838 34.2519 200.219 33.9805 199.917Z" fill="white"/>
<path d="M26.4051 215.601C30.5183 215.874 34.5835 214.586 37.7898 211.993C38.1073 211.736 38.4894 212.243 38.1723 212.5C34.8306 215.191 30.5975 216.523 26.3177 216.229C25.9098 216.201 25.9994 215.572 26.4051 215.601Z" fill="white"/>
<path d="M48.9713 189.118C49.3691 189.809 49.9322 190.39 50.6101 190.81C51.2879 191.229 52.0593 191.474 52.8549 191.521C53.263 191.544 53.173 192.173 52.7676 192.15C51.8888 192.093 51.0373 191.822 50.2873 191.36C49.5374 190.898 48.9118 190.26 48.4654 189.5C48.4173 189.432 48.3969 189.348 48.4084 189.266C48.4199 189.183 48.4623 189.108 48.5271 189.056C48.5943 189.006 48.6787 188.984 48.7619 188.995C48.8451 189.007 48.9203 189.051 48.9713 189.118Z" fill="white"/>
<path d="M81.0722 229.046C80.8169 229.038 80.5617 229.031 80.3033 229.028C76.8717 228.95 73.4393 229.15 70.0402 229.627C69.7768 229.66 69.5103 229.697 69.2484 229.738C61.0713 230.975 53.1949 233.722 46.0197 237.836C43.1659 239.477 40.4411 241.331 37.8686 243.385C34.3161 246.222 30.6898 249.58 26.5308 251.034C26.0986 251.19 25.6571 251.32 25.2088 251.422L5.90784 238.078C5.87918 238.026 5.84728 237.977 5.81841 237.925L5.02344 237.427C5.14872 237.312 5.28113 237.195 5.4064 237.08C5.4788 237.013 5.55551 236.949 5.62788 236.882C5.67751 236.838 5.72737 236.794 5.76965 236.752C5.78611 236.737 5.80279 236.723 5.81623 236.713C5.85851 236.67 5.90227 236.635 5.94151 236.597C6.67984 235.943 7.42405 235.292 8.17415 234.645C8.17719 234.641 8.1772 234.641 8.18455 234.639C13.9125 229.726 20.1006 225.249 26.7713 221.853C26.972 221.751 27.1756 221.645 27.3851 221.549C30.4004 220.035 33.5343 218.77 36.7555 217.767C38.521 217.224 40.313 216.77 42.1244 216.408C46.8067 215.481 51.6055 215.297 56.3449 215.863C65.7927 216.991 74.7747 221.131 80.6303 228.48C80.7799 228.668 80.9255 228.853 81.0722 229.046Z" fill="#F2F2F2"/>
<path d="M80.8601 229.261C69.9301 224.526 57.787 223.358 46.1558 225.922C43.6421 226.43 41.224 227.331 38.9906 228.592C36.8547 229.891 35.1053 231.738 33.9242 233.942C32.7817 235.975 31.8483 238.187 30.2318 239.907C29.3912 240.775 28.3769 241.455 27.2552 241.903C26.1334 242.351 24.9297 242.557 23.7229 242.507C20.7127 242.461 17.8987 241.335 15.185 240.138C12.172 238.81 9.06348 237.382 5.69493 237.51C5.28678 237.525 5.28664 236.89 5.69417 236.875C11.5549 236.653 16.3126 240.839 21.9489 241.718C24.5789 242.128 27.3484 241.748 29.3615 239.878C31.1219 238.242 32.0864 235.962 33.2254 233.894C34.3461 231.727 35.9801 229.867 37.9845 228.478C40.1465 227.107 42.5259 226.114 45.0207 225.542C50.6168 224.165 56.3946 223.677 62.1422 224.095C68.7047 224.537 75.1433 226.098 81.1795 228.712C81.5531 228.874 81.2312 229.422 80.8601 229.261Z" fill="white"/>
<path d="M49.8518 224.876C49.6867 222.865 50.2415 220.861 51.417 219.221C52.5925 217.581 54.3121 216.413 56.2689 215.925C56.6651 215.828 56.835 216.439 56.4382 216.537C54.6152 216.988 53.0135 218.076 51.922 219.605C50.8305 221.134 50.3212 223.003 50.486 224.875C50.5213 225.282 49.8869 225.281 49.8518 224.876Z" fill="white"/>
<path d="M34.367 232.835C37.4867 235.531 41.5075 236.952 45.6275 236.814C46.0357 236.8 46.036 237.434 45.6283 237.448C41.3406 237.584 37.1594 236.097 33.9191 233.284C33.6104 233.016 34.06 232.568 34.367 232.835Z" fill="white"/>
<path d="M68.3189 225.285C68.2207 226.076 68.3205 226.88 68.6093 227.623C68.8981 228.367 69.367 229.026 69.9737 229.544C70.2856 229.808 69.8356 230.256 69.5258 229.993C68.8581 229.418 68.3412 228.689 68.0203 227.868C67.6994 227.048 67.5841 226.161 67.6847 225.286C67.6872 225.202 67.7214 225.123 67.7802 225.064C67.8391 225.005 67.9181 224.971 68.0014 224.968C68.0853 224.968 68.1658 225.002 68.2252 225.061C68.2847 225.12 68.3184 225.201 68.3189 225.285Z" fill="white"/>
<path d="M398.008 285.899C392.596 272.557 380.407 261.251 366.05 260.286C375.042 273.101 379.214 288.685 377.829 304.282C377.272 310.295 376.028 316.925 379.406 321.929C381.508 325.043 385.105 326.891 388.779 327.665C392.454 328.439 396.253 328.259 400.004 328.075L400.856 328.465C403.079 314.239 403.419 299.24 398.008 285.899Z" fill="#F2F2F2"/>
<path d="M365.99 260.582C375.95 267.117 383.6 276.626 387.852 287.758C388.81 290.139 389.387 292.655 389.562 295.215C389.651 297.715 389.071 300.192 387.88 302.391C386.81 304.464 385.477 306.46 384.93 308.756C384.667 309.936 384.656 311.158 384.899 312.342C385.141 313.526 385.631 314.645 386.336 315.627C388.029 318.118 390.516 319.851 393.006 321.462C395.772 323.25 398.672 325.064 400.417 327.95C400.629 328.3 401.158 327.951 400.947 327.602C397.912 322.581 391.802 320.904 387.97 316.676C386.182 314.703 384.977 312.179 385.432 309.468C385.83 307.097 387.203 305.038 388.304 302.949C389.497 300.821 390.152 298.433 390.21 295.994C390.166 293.433 389.687 290.898 388.793 288.498C386.867 283.063 384.099 277.965 380.59 273.391C376.615 268.147 371.772 263.623 366.272 260.014C365.932 259.791 365.652 260.361 365.99 260.582Z" fill="white"/>
<path d="M386.693 284.093C388.463 283.126 389.831 281.56 390.554 279.676C391.277 277.793 391.307 275.713 390.639 273.809C390.502 273.424 389.898 273.618 390.035 274.004C390.66 275.776 390.632 277.713 389.955 279.466C389.279 281.218 387.998 282.672 386.345 283.563C385.986 283.757 386.336 284.286 386.693 284.093Z" fill="white"/>
<path d="M388.559 301.412C384.593 300.286 381.197 297.706 379.048 294.186C378.836 293.837 378.306 294.185 378.518 294.534C380.761 298.193 384.301 300.871 388.43 302.033C388.824 302.144 388.951 301.522 388.559 301.412Z" fill="white"/>
<path d="M376.201 268.881C375.595 269.398 374.869 269.756 374.09 269.923C373.31 270.09 372.502 270.061 371.736 269.838C371.344 269.722 371.218 270.345 371.607 270.459C372.454 270.702 373.347 270.733 374.209 270.55C375.07 270.367 375.874 269.976 376.549 269.411C376.617 269.363 376.665 269.291 376.682 269.209C376.699 269.128 376.684 269.043 376.64 268.972C376.594 268.902 376.522 268.853 376.44 268.836C376.357 268.819 376.272 268.835 376.201 268.881Z" fill="white"/>
<path d="M332.557 295.689C332.799 295.769 333.042 295.848 333.287 295.932C336.545 297.012 339.71 298.355 342.751 299.948C342.988 300.067 343.227 300.192 343.46 300.318C350.746 304.234 357.242 309.469 362.617 315.758C364.754 318.262 366.697 320.926 368.43 323.725C370.824 327.591 373.111 331.974 376.54 334.742C376.894 335.035 377.267 335.305 377.654 335.552L400.315 329.475C400.359 329.436 400.405 329.401 400.45 329.361L401.366 329.16C401.287 329.01 401.201 328.855 401.122 328.704C401.076 328.617 401.026 328.531 400.98 328.443C400.948 328.385 400.916 328.327 400.89 328.273C400.879 328.254 400.869 328.235 400.859 328.22C400.834 328.166 400.804 328.119 400.78 328.07C400.305 327.205 399.822 326.342 399.333 325.48C399.332 325.475 399.332 325.475 399.325 325.471C395.581 318.918 391.257 312.619 386.114 307.178C385.96 307.014 385.804 306.845 385.639 306.685C383.307 304.245 380.78 302 378.084 299.972C376.603 298.866 375.068 297.836 373.483 296.886C369.385 294.438 364.927 292.651 360.273 291.59C350.996 289.475 341.146 290.353 333.163 295.305C332.959 295.432 332.759 295.557 332.557 295.689Z" fill="#F2F2F2"/>
<path d="M332.685 295.964C344.569 295.18 356.398 298.164 366.491 304.491C368.688 305.815 370.663 307.476 372.343 309.415C373.919 311.357 374.946 313.685 375.318 316.158C375.711 318.457 375.847 320.854 376.792 323.017C377.292 324.118 378.019 325.099 378.925 325.899C379.831 326.698 380.895 327.297 382.049 327.656C384.899 328.624 387.928 328.51 390.886 328.296C394.17 328.058 397.577 327.759 400.707 329.012C401.086 329.164 401.299 328.566 400.921 328.415C395.475 326.234 389.588 328.577 383.985 327.509C381.37 327.011 378.889 325.722 377.621 323.283C376.513 321.151 376.37 318.679 375.992 316.347C375.665 313.93 374.75 311.629 373.329 309.646C371.753 307.628 369.846 305.893 367.688 304.515C362.88 301.336 357.603 298.933 352.049 297.394C345.72 295.603 339.131 294.908 332.568 295.34C332.162 295.367 332.281 295.99 332.685 295.964Z" fill="white"/>
<path d="M363.361 302.262C364.192 300.424 364.343 298.349 363.786 296.41C363.23 294.47 362.003 292.792 360.324 291.674C359.983 291.449 359.618 291.968 359.959 292.193C361.524 293.231 362.667 294.795 363.181 296.602C363.696 298.409 363.548 300.341 362.764 302.048C362.594 302.42 363.192 302.632 363.361 302.262Z" fill="white"/>
<path d="M375.272 314.966C371.428 316.456 367.164 316.442 363.33 314.926C362.95 314.776 362.737 315.373 363.116 315.524C367.109 317.094 371.546 317.099 375.543 315.54C375.924 315.391 375.651 314.818 375.272 314.966Z" fill="white"/>
<path d="M345.831 296.437C345.658 297.215 345.294 297.938 344.773 298.541C344.251 299.144 343.588 299.608 342.842 299.891C342.46 300.035 342.733 300.608 343.113 300.465C343.935 300.148 344.667 299.635 345.245 298.97C345.823 298.305 346.229 297.509 346.428 296.651C346.454 296.571 346.448 296.485 346.413 296.41C346.377 296.335 346.314 296.276 346.237 296.245C346.158 296.217 346.071 296.221 345.995 296.257C345.919 296.293 345.86 296.358 345.831 296.437Z" fill="white"/>
<path d="M293.024 331.329C295.968 331.329 298.355 328.94 298.355 325.994C298.355 323.048 295.968 320.659 293.024 320.659C290.079 320.659 287.692 323.048 287.692 325.994C287.692 328.94 290.079 331.329 293.024 331.329Z" fill="#FD6584"/>
<path d="M311.908 240.467C314.853 240.467 317.24 238.078 317.24 235.132C317.24 232.186 314.853 229.797 311.908 229.797C308.964 229.797 306.577 232.186 306.577 235.132C306.577 238.078 308.964 240.467 311.908 240.467Z" fill="#E6E6E6"/>
<path d="M212.706 92.4924C215.651 92.4924 218.037 90.104 218.037 87.1577C218.037 84.2114 215.651 81.823 212.706 81.823C209.762 81.823 207.375 84.2114 207.375 87.1577C207.375 90.104 209.762 92.4924 212.706 92.4924Z" fill="#E6E6E6"/>
<path d="M100.987 291.796C100.987 293.154 101.032 294.512 101.127 295.859C101.228 297.468 101.401 299.067 101.635 300.654C102.423 305.998 103.93 311.21 106.114 316.15C106.226 316.396 106.338 316.642 106.449 316.888L106.617 317.257C106.673 317.38 106.734 317.503 106.79 317.62C106.868 317.782 106.941 317.939 107.019 318.095C107.114 318.291 107.209 318.486 107.309 318.682C107.32 318.704 107.332 318.732 107.348 318.76C107.432 318.928 107.51 319.09 107.6 319.258C107.616 319.294 107.635 319.33 107.656 319.364C107.751 319.554 107.851 319.749 107.952 319.939C108.063 320.141 108.169 320.347 108.281 320.548C108.549 321.046 108.828 321.538 109.113 322.029C109.197 322.175 109.281 322.32 109.37 322.465C109.448 322.599 109.527 322.734 109.61 322.868C109.666 322.957 109.722 323.052 109.778 323.141C109.867 323.292 109.957 323.438 110.051 323.589C110.258 323.918 110.47 324.248 110.677 324.578H110.683C110.777 324.729 110.878 324.879 110.979 325.025V325.03C111.275 325.477 111.582 325.924 111.889 326.366L111.891 326.366L111.893 326.368L111.894 326.369L111.894 326.372C112.14 326.729 112.397 327.076 112.648 327.422V327.428C112.816 327.646 112.978 327.869 113.145 328.087C113.279 328.266 113.419 328.45 113.559 328.629C113.587 328.668 113.62 328.702 113.648 328.741V328.747C113.687 328.797 113.726 328.842 113.765 328.892C114.357 329.652 114.968 330.395 115.597 331.122L115.698 331.239C115.731 331.278 115.77 331.317 115.804 331.362C115.86 331.423 115.91 331.485 115.966 331.546C116.016 331.608 116.072 331.669 116.128 331.731C119.408 335.428 123.127 338.71 127.202 341.505C127.744 341.879 128.297 342.243 128.85 342.595C128.989 342.684 129.129 342.774 129.269 342.857C129.308 342.885 129.352 342.913 129.392 342.941C129.47 342.986 129.542 343.031 129.621 343.081C129.693 343.126 129.766 343.17 129.844 343.215C130.14 343.399 130.442 343.578 130.743 343.757C130.816 343.802 130.894 343.847 130.972 343.891C131.045 343.93 131.123 343.975 131.201 344.02C131.201 344.025 131.201 344.025 131.207 344.025H131.212V344.031H131.218C131.592 344.249 131.972 344.461 132.357 344.668C132.564 344.78 132.776 344.897 132.988 345.003C133.468 345.266 133.954 345.517 134.44 345.758C134.613 345.842 134.792 345.925 134.965 346.015C135.11 346.082 135.256 346.155 135.401 346.222C135.445 346.244 135.485 346.261 135.524 346.283C135.647 346.339 135.764 346.395 135.887 346.451C136.021 346.512 136.155 346.574 136.283 346.635C136.434 346.702 136.579 346.769 136.73 346.831C137.288 347.082 137.853 347.322 138.417 347.552C140.438 348.381 142.504 349.097 144.605 349.698C144.699 349.726 144.8 349.753 144.901 349.781C145.8 350.033 146.704 350.262 147.615 350.469C149.206 350.838 150.813 351.139 152.434 351.374H152.446C152.641 351.402 152.831 351.43 153.026 351.458C153.043 351.458 153.06 351.463 153.082 351.463C153.082 351.469 153.082 351.469 153.088 351.463C153.3 351.491 153.518 351.519 153.73 351.547C153.745 351.552 153.76 351.553 153.775 351.553C153.976 351.581 154.182 351.603 154.384 351.626C154.601 351.648 154.819 351.67 155.037 351.693C155.204 351.709 155.372 351.726 155.54 351.743C155.554 351.748 155.569 351.75 155.584 351.749C155.735 351.76 155.886 351.776 156.037 351.788H156.059C156.187 351.799 156.321 351.81 156.45 351.821C158.008 351.944 159.572 352 161.158 352C162.872 352 164.576 351.933 166.257 351.788H166.274C166.637 351.754 166.994 351.721 167.351 351.687C167.446 351.676 167.536 351.67 167.631 351.659C167.647 351.659 167.67 351.654 167.686 351.654C167.714 351.648 167.742 351.648 167.776 351.642C167.791 351.643 167.806 351.641 167.821 351.637C167.943 351.626 168.066 351.609 168.195 351.598L168.614 351.547C168.753 351.531 168.893 351.508 169.032 351.491C169.066 351.486 169.094 351.486 169.127 351.48C169.228 351.469 169.328 351.452 169.429 351.436C169.479 351.43 169.529 351.424 169.574 351.419C169.675 351.402 169.77 351.391 169.87 351.374H169.876C172.94 350.933 175.965 350.251 178.923 349.334C179.079 349.284 179.236 349.239 179.392 349.189C179.398 349.189 179.403 349.183 179.409 349.183C179.454 349.167 179.504 349.155 179.549 349.139C179.967 349.005 180.381 348.865 180.794 348.72C181.364 348.53 181.928 348.323 182.492 348.11C182.643 348.049 182.793 347.993 182.944 347.932C183.251 347.814 183.553 347.691 183.854 347.568C184.368 347.362 184.882 347.144 185.39 346.92C185.865 346.708 186.334 346.495 186.803 346.272C186.814 346.266 186.831 346.266 186.842 346.255C186.948 346.205 187.054 346.155 187.155 346.104H187.161C189.733 344.869 192.213 343.452 194.583 341.863C195.342 341.354 196.091 340.829 196.828 340.287C197.42 339.845 198.001 339.398 198.581 338.94C201.447 336.659 204.099 334.123 206.506 331.362V331.356C206.679 331.166 206.841 330.971 207.009 330.775C207.037 330.747 207.059 330.719 207.082 330.697C207.188 330.568 207.288 330.446 207.394 330.323V330.317C207.534 330.155 207.674 329.987 207.808 329.82C207.841 329.781 207.869 329.747 207.897 329.713V329.708C208.009 329.574 208.115 329.44 208.226 329.3C208.282 329.233 208.333 329.166 208.388 329.099V329.093C208.718 328.68 209.036 328.266 209.355 327.841C209.438 327.73 209.522 327.612 209.611 327.495C210.014 326.953 210.405 326.4 210.784 325.846V325.841C210.929 325.634 211.069 325.422 211.214 325.215C211.354 325.002 211.494 324.79 211.633 324.578C211.773 324.354 211.918 324.136 212.058 323.913L212.074 323.879C212.214 323.667 212.354 323.443 212.488 323.225C212.594 323.047 212.7 322.873 212.806 322.7C212.873 322.583 212.946 322.465 213.013 322.342C213.039 322.305 213.063 322.265 213.085 322.225C213.242 321.951 213.398 321.677 213.554 321.404C213.739 321.085 213.917 320.761 214.096 320.437C214.163 320.303 214.236 320.168 214.308 320.034C214.336 319.99 214.358 319.945 214.381 319.9C214.465 319.744 214.548 319.582 214.627 319.42C214.71 319.263 214.794 319.101 214.878 318.939C214.956 318.783 215.04 318.621 215.118 318.458C215.179 318.335 215.235 318.213 215.297 318.09C215.301 318.08 215.307 318.07 215.314 318.062C215.341 318 215.369 317.944 215.392 317.888C215.399 317.88 215.404 317.871 215.408 317.86C215.47 317.738 215.526 317.609 215.587 317.486C215.665 317.324 215.738 317.156 215.816 316.994C215.866 316.883 215.922 316.765 215.973 316.648C216.045 316.486 216.123 316.324 216.19 316.156C216.269 315.988 216.341 315.821 216.414 315.647C216.435 315.606 216.453 315.563 216.47 315.519C216.509 315.441 216.537 315.362 216.57 315.284C216.659 315.077 216.749 314.865 216.833 314.658C216.933 314.424 217.028 314.183 217.117 313.949C217.207 313.731 217.291 313.507 217.374 313.284L217.408 313.205C218.709 309.776 219.696 306.235 220.357 302.627V302.621C220.729 300.561 220.996 298.483 221.155 296.395C221.161 296.278 221.172 296.166 221.178 296.055C221.278 294.641 221.323 293.221 221.323 291.796C221.323 291.165 221.312 290.539 221.295 289.913C220.905 276.823 216.24 264.221 208.014 254.035C207.835 253.812 207.657 253.588 207.472 253.365C207.288 253.141 207.098 252.923 206.914 252.705C200.792 245.531 193.071 239.896 184.373 236.256C175.675 232.616 166.244 231.071 156.841 231.747C147.437 232.423 138.323 235.3 130.235 240.147C122.147 244.994 115.31 251.675 110.275 259.652C110.001 260.088 109.728 260.529 109.465 260.971C109.197 261.418 108.94 261.865 108.683 262.317C103.624 271.316 100.973 281.471 100.987 291.796Z" fill="#F2F2F2"/>
<path d="M158.766 252.417C168.66 254.957 178.798 256.421 189.006 256.784C190.55 256.868 192.097 256.858 193.64 256.753C197.029 256.467 199.932 255.401 203.166 254.819C204.72 254.54 206.452 254.335 208.016 254.034C207.655 253.585 207.287 253.141 206.912 252.703C203.538 252.989 200.111 253.923 196.696 254.356C190.891 255.095 184.387 254.271 179.986 252.238C177.851 251.252 176.215 250.021 174.088 249.03C173.798 248.881 173.485 248.785 173.162 248.746C172.549 248.727 171.943 248.885 171.416 249.199C167.846 251.002 162.664 252.468 157.853 251.662C157.495 251.942 158.176 252.262 158.766 252.417Z" fill="white"/>
<path d="M137.48 258.762C137.436 258.754 137.392 258.748 137.348 258.74C137.532 258.626 137.706 258.495 137.867 258.348L137.48 258.762Z" fill="white"/>
<path d="M108.685 262.32C110.694 262.48 112.713 262.6 114.743 262.679C116.287 262.762 117.834 262.751 119.376 262.647C122.766 262.36 125.669 261.296 128.903 260.713C131.866 260.18 135.467 259.924 137.348 258.74C132.485 257.898 127.447 259.613 122.433 260.251C118.377 260.75 114.265 260.547 110.278 259.65C109.723 260.524 109.192 261.414 108.685 262.32Z" fill="white"/>
<path d="M132.988 345.003C133.469 345.266 133.954 345.518 134.44 345.758C134.613 345.842 134.792 345.925 134.965 346.015C135.111 346.082 135.256 346.155 135.401 346.222C135.446 346.244 135.485 346.261 135.524 346.283C135.647 346.339 135.764 346.395 135.887 346.451C136.021 346.512 136.155 346.574 136.283 346.635C136.434 346.702 136.579 346.769 136.73 346.831C137.289 347.082 137.853 347.323 138.417 347.552C140.438 348.381 142.504 349.097 144.605 349.698C144.7 349.726 144.8 349.754 144.901 349.781C145.8 350.033 146.705 350.262 147.615 350.469C149.207 350.838 150.813 351.14 152.435 351.374H152.446C152.641 351.402 152.831 351.43 153.027 351.458C153.043 351.458 153.06 351.464 153.082 351.464C153.082 351.469 153.082 351.469 153.088 351.464C153.3 351.492 153.518 351.519 153.73 351.547C153.745 351.552 153.76 351.554 153.775 351.553C153.976 351.581 154.183 351.603 154.384 351.626C154.601 351.648 154.819 351.67 155.037 351.693C155.205 351.71 155.372 351.726 155.54 351.743C155.554 351.748 155.569 351.75 155.584 351.749C155.735 351.76 155.886 351.777 156.037 351.788H156.059C156.188 351.799 156.322 351.81 156.45 351.821C158.008 351.944 159.572 352 161.158 352C162.872 352 164.576 351.933 166.257 351.788H166.274C166.637 351.754 166.994 351.721 167.351 351.687C167.446 351.676 167.536 351.67 167.631 351.659C167.647 351.659 167.67 351.654 167.687 351.654C167.715 351.648 167.742 351.648 167.776 351.642C167.791 351.643 167.806 351.641 167.821 351.637C167.943 351.626 168.066 351.609 168.195 351.598L168.614 351.547C168.753 351.531 168.893 351.508 169.033 351.492C169.066 351.486 169.094 351.486 169.127 351.48C169.228 351.469 169.329 351.452 169.429 351.436C169.479 351.43 169.53 351.425 169.574 351.419C169.675 351.402 169.77 351.391 169.87 351.374H169.876C172.94 350.933 175.966 350.251 178.923 349.334C179.08 349.284 179.236 349.239 179.392 349.189C178.671 345.824 177.187 342.67 175.053 339.97C172.92 337.271 170.195 335.098 167.089 333.62C167.857 332.888 168.388 331.941 168.614 330.904C168.759 330.235 168.77 329.544 168.647 328.871C168.525 328.198 168.27 327.555 167.899 326.981C167.174 325.867 166.037 325.087 164.738 324.813L156.461 323.08C155.129 322.82 153.748 323.097 152.618 323.851C151.489 324.604 150.702 325.773 150.43 327.104C150.345 327.512 150.308 327.928 150.318 328.344C142.348 333.653 136.613 339.158 132.988 345.003Z" fill="#6C63FF"/>
<path d="M157.426 319.809C166.949 319.809 174.669 312.084 174.669 302.554C174.669 293.025 166.949 285.3 157.426 285.3C147.903 285.3 140.183 293.025 140.183 302.554C140.183 312.084 147.903 319.809 157.426 319.809Z" fill="#FFB8B8"/>
<path d="M146.678 317.43C144.839 316.174 142.962 313.758 141.708 311.948C140.047 309.569 138.904 306.867 138.353 304.017C137.802 301.167 137.856 298.233 138.511 295.406C138.72 294.275 139.233 293.223 139.995 292.363C140.807 291.559 142.134 291.177 143.125 291.746C142.855 291.021 142.735 290.249 142.775 289.476C142.815 288.703 143.012 287.947 143.355 287.253C144.052 285.869 145.061 284.666 146.303 283.739C148.679 281.909 151.506 280.756 154.484 280.403C157.461 280.05 160.479 280.511 163.216 281.736C164.293 282.235 162.524 278.378 163.651 278.75C164.771 279.184 166.017 279.162 167.12 278.689C168.181 278.155 171.695 281.328 171.289 280.212C172.093 280.578 172.793 281.141 173.321 281.85C173.85 282.559 174.19 283.39 174.311 284.266C174.432 285.142 174.33 286.034 174.013 286.86C173.697 287.685 173.177 288.417 172.502 288.988C171.612 289.74 170.501 290.172 169.526 290.811C167.819 292.012 166.611 293.798 166.129 295.831C165.648 297.863 165.927 300.002 166.913 301.842C165.888 301.183 164.763 300.694 163.582 300.394C162.989 300.249 162.371 300.248 161.778 300.391C161.185 300.534 160.635 300.816 160.173 301.214C159.787 301.656 159.495 302.173 159.316 302.732C159.136 303.291 159.073 303.88 159.13 304.465C159.168 305.635 159.447 306.789 159.478 307.96C159.57 311.397 161.409 317.93 158.746 319.756C156.645 321.198 149.189 319.147 146.678 317.43Z" fill="#2F2E41"/>
<path d="M451.434 20.8447H0.565943C0.414701 20.8413 0.270784 20.7788 0.165006 20.6706C0.0592278 20.5624 0 20.417 0 20.2657C0 20.1143 0.0592278 19.9689 0.165006 19.8607C0.270784 19.7525 0.414701 19.69 0.565943 19.6866H451.434C451.585 19.69 451.729 19.7525 451.835 19.8607C451.941 19.9689 452 20.1143 452 20.2657C452 20.417 451.941 20.5624 451.835 20.6706C451.729 20.7788 451.585 20.8413 451.434 20.8447Z" fill="#CACACA"/>
<path d="M13.3064 12.7384C16.7451 12.7384 19.5327 9.88681 19.5327 6.3692C19.5327 2.85159 16.7451 0 13.3064 0C9.86769 0 7.08008 2.85159 7.08008 6.3692C7.08008 9.88681 9.86769 12.7384 13.3064 12.7384Z" fill="#3F3D56"/>
<path d="M34.8152 12.7384C38.2539 12.7384 41.0415 9.88681 41.0415 6.3692C41.0415 2.85159 38.2539 0 34.8152 0C31.3765 0 28.5889 2.85159 28.5889 6.3692C28.5889 9.88681 31.3765 12.7384 34.8152 12.7384Z" fill="#3F3D56"/>
<path d="M56.324 12.7384C59.7627 12.7384 62.5503 9.88681 62.5503 6.3692C62.5503 2.85159 59.7627 0 56.324 0C52.8853 0 50.0977 2.85159 50.0977 6.3692C50.0977 9.88681 52.8853 12.7384 56.324 12.7384Z" fill="#3F3D56"/>
<path d="M438.547 3.89578H423.264C422.961 3.8891 422.673 3.76416 422.462 3.54771C422.25 3.33127 422.132 3.04052 422.132 2.73774C422.132 2.43497 422.25 2.14423 422.462 1.92778C422.673 1.71134 422.961 1.5864 423.264 1.57971H438.547C438.849 1.5864 439.137 1.71134 439.349 1.92778C439.56 2.14423 439.679 2.43497 439.679 2.73774C439.679 3.04052 439.56 3.33127 439.349 3.54771C439.137 3.76416 438.849 3.8891 438.547 3.89578Z" fill="#3F3D56"/>
<path d="M438.547 8.23844H423.264C422.961 8.23179 422.674 8.10685 422.462 7.89041C422.25 7.67396 422.132 7.38319 422.132 7.0804C422.132 6.7776 422.25 6.48684 422.462 6.27039C422.674 6.05394 422.961 5.92901 423.264 5.92236H438.547C438.849 5.92901 439.137 6.05394 439.349 6.27039C439.56 6.48684 439.679 6.7776 439.679 7.0804C439.679 7.38319 439.56 7.67396 439.349 7.89041C439.137 8.10685 438.849 8.23179 438.547 8.23844Z" fill="#3F3D56"/>
<path d="M438.547 12.5811H423.264C422.961 12.5744 422.674 12.4495 422.462 12.2331C422.25 12.0166 422.132 11.7258 422.132 11.423C422.132 11.1202 422.25 10.8295 422.462 10.613C422.674 10.3966 422.961 10.2717 423.264 10.265H438.547C438.849 10.2717 439.137 10.3966 439.349 10.613C439.56 10.8295 439.679 11.1202 439.679 11.423C439.679 11.7258 439.56 12.0166 439.349 12.2331C439.137 12.4495 438.849 12.5744 438.547 12.5811Z" fill="#3F3D56"/>
<path d="M169.282 216.191C168.919 216.19 168.56 216.117 168.225 215.977C167.725 215.776 167.297 215.429 166.998 214.98C166.698 214.532 166.541 214.004 166.547 213.465V210.734C166.546 210.161 166.319 209.612 165.914 209.206C165.509 208.801 164.96 208.573 164.388 208.573C163.667 208.572 162.976 208.285 162.467 207.775C161.957 207.265 161.671 206.574 161.67 205.853V168.436C161.671 167.715 161.957 167.024 162.467 166.514C162.976 166.004 163.667 165.717 164.388 165.716H288.273C288.994 165.717 289.684 166.004 290.194 166.514C290.704 167.024 290.99 167.715 290.991 168.436V205.853C290.99 206.574 290.704 207.265 290.194 207.775C289.684 208.285 288.994 208.572 288.273 208.573H178.892C178.608 208.572 178.327 208.628 178.065 208.736C177.803 208.845 177.565 209.004 177.365 209.206L171.187 215.388C170.938 215.641 170.642 215.842 170.315 215.98C169.988 216.118 169.637 216.19 169.282 216.191Z" fill="white"/>
<path d="M169.282 216.75C168.845 216.749 168.413 216.662 168.011 216.493C167.408 216.251 166.893 215.832 166.532 215.292C166.171 214.751 165.982 214.115 165.988 213.465V210.734C165.988 210.309 165.819 209.902 165.519 209.602C165.219 209.301 164.812 209.132 164.388 209.132C163.519 209.131 162.686 208.785 162.072 208.17C161.458 207.555 161.112 206.722 161.111 205.853V168.436C161.112 167.567 161.458 166.733 162.072 166.119C162.686 165.504 163.519 165.158 164.387 165.157H288.273C289.142 165.158 289.974 165.504 290.589 166.119C291.203 166.733 291.548 167.567 291.549 168.436V205.853C291.548 206.722 291.203 207.555 290.589 208.17C289.974 208.785 289.142 209.131 288.273 209.132H178.892C178.681 209.131 178.473 209.172 178.279 209.253C178.084 209.333 177.908 209.452 177.76 209.601L171.582 215.783C171.281 216.088 170.923 216.331 170.529 216.497C170.134 216.663 169.71 216.749 169.282 216.75ZM164.387 166.275C163.815 166.276 163.266 166.504 162.861 166.909C162.457 167.314 162.229 167.863 162.228 168.436V205.853C162.229 206.426 162.457 206.975 162.861 207.38C163.266 207.785 163.815 208.013 164.388 208.014C165.108 208.015 165.799 208.302 166.309 208.812C166.818 209.322 167.105 210.013 167.105 210.734V213.465C167.106 213.892 167.232 214.31 167.47 214.665C167.707 215.02 168.044 215.297 168.439 215.461C168.833 215.624 169.267 215.667 169.686 215.584C170.105 215.5 170.49 215.295 170.792 214.992L176.97 208.811C177.222 208.557 177.521 208.356 177.851 208.22C178.181 208.083 178.535 208.013 178.892 208.014H288.273C288.845 208.013 289.394 207.785 289.799 207.38C290.204 206.975 290.432 206.426 290.432 205.853V168.436C290.432 167.863 290.204 167.314 289.799 166.909C289.394 166.503 288.845 166.276 288.273 166.275L164.387 166.275Z" fill="#3F3D56"/>
<path d="M277.628 182.656H177.17C176.786 182.656 176.418 182.504 176.146 182.232C175.875 181.96 175.723 181.592 175.723 181.208C175.723 180.824 175.875 180.456 176.146 180.184C176.418 179.913 176.786 179.76 177.17 179.76H277.628C278.011 179.76 278.38 179.913 278.651 180.184C278.922 180.456 279.075 180.824 279.075 181.208C279.075 181.592 278.922 181.96 278.651 182.232C278.38 182.504 278.011 182.656 277.628 182.656Z" fill="#6C63FF"/>
<path d="M277.443 188.807H177.17C176.786 188.807 176.418 188.655 176.146 188.383C175.875 188.112 175.723 187.743 175.723 187.359C175.723 186.975 175.875 186.607 176.146 186.335C176.418 186.064 176.786 185.911 177.17 185.911H277.443C277.827 185.911 278.195 186.064 278.466 186.335C278.738 186.607 278.89 186.975 278.89 187.359C278.89 187.743 278.738 188.112 278.466 188.383C278.195 188.655 277.827 188.807 277.443 188.807Z" fill="#E6E6E6"/>
<path d="M277.343 194.958H177.17C176.786 194.958 176.418 194.805 176.146 194.534C175.875 194.262 175.723 193.894 175.723 193.51C175.723 193.126 175.875 192.758 176.146 192.486C176.418 192.215 176.786 192.062 177.17 192.062H277.343C277.727 192.062 278.095 192.215 278.366 192.486C278.638 192.758 278.79 193.126 278.79 193.51C278.79 193.894 278.638 194.262 278.366 194.534C278.095 194.805 277.727 194.958 277.343 194.958Z" fill="#E6E6E6"/>
<path d="M435.829 159.91C435.829 161.268 435.784 162.626 435.689 163.973C435.588 165.582 435.415 167.18 435.181 168.767C434.392 174.111 432.886 179.324 430.702 184.264C430.59 184.51 430.478 184.756 430.367 185.002L430.199 185.371C430.143 185.493 430.082 185.616 430.026 185.734C429.948 185.896 429.875 186.052 429.797 186.209C429.702 186.404 429.607 186.6 429.507 186.796C429.495 186.818 429.484 186.846 429.467 186.874C429.384 187.041 429.306 187.204 429.216 187.371C429.2 187.408 429.181 187.443 429.16 187.477C429.065 187.667 428.965 187.863 428.864 188.053C428.753 188.254 428.647 188.461 428.535 188.662C428.267 189.159 427.988 189.651 427.703 190.143C427.619 190.288 427.535 190.434 427.446 190.579C427.368 190.713 427.289 190.847 427.206 190.981C427.15 191.071 427.094 191.166 427.038 191.255C426.949 191.406 426.859 191.551 426.764 191.702C426.558 192.032 426.346 192.362 426.139 192.691H426.133C426.038 192.842 425.938 192.993 425.837 193.138V193.144C425.541 193.591 425.234 194.038 424.927 194.48C424.926 194.48 424.926 194.48 424.925 194.48C424.924 194.48 424.924 194.481 424.923 194.481C424.923 194.482 424.922 194.482 424.922 194.483C424.922 194.484 424.921 194.484 424.921 194.485C424.676 194.843 424.419 195.189 424.168 195.536V195.541C424 195.759 423.838 195.983 423.67 196.201C423.536 196.38 423.397 196.564 423.257 196.743C423.229 196.782 423.196 196.816 423.168 196.855V196.86C423.129 196.911 423.09 196.955 423.051 197.006C422.459 197.766 421.848 198.509 421.219 199.235L421.118 199.353C421.085 199.392 421.046 199.431 421.012 199.476C420.956 199.537 420.906 199.599 420.85 199.66C420.8 199.722 420.744 199.783 420.688 199.844C417.408 203.542 413.689 206.824 409.614 209.619C409.072 209.993 408.519 210.356 407.966 210.708C407.826 210.798 407.687 210.887 407.547 210.971C407.508 210.999 407.463 211.027 407.424 211.055C407.346 211.1 407.274 211.144 407.195 211.195C407.123 211.239 407.05 211.284 406.972 211.329C406.676 211.513 406.374 211.692 406.073 211.871C406 211.915 405.922 211.96 405.844 212.005C405.771 212.044 405.693 212.089 405.615 212.133C405.615 212.139 405.615 212.139 405.609 212.139H405.604V212.145H405.598C405.224 212.363 404.844 212.575 404.459 212.782C404.252 212.893 404.04 213.011 403.828 213.117C403.347 213.38 402.862 213.631 402.376 213.871C402.203 213.955 402.024 214.039 401.851 214.128C401.706 214.196 401.56 214.268 401.415 214.335C401.37 214.358 401.331 214.374 401.292 214.397C401.169 214.453 401.052 214.508 400.929 214.564C400.795 214.626 400.661 214.687 400.533 214.749C400.382 214.816 400.237 214.883 400.086 214.944C399.527 215.196 398.963 215.436 398.399 215.665C396.378 216.494 394.312 217.211 392.211 217.811C392.116 217.839 392.016 217.867 391.915 217.895C391.016 218.147 390.111 218.376 389.201 218.582C387.609 218.951 386.003 219.253 384.381 219.488H384.37C384.175 219.516 383.985 219.544 383.789 219.572C383.773 219.572 383.756 219.577 383.734 219.577C383.734 219.583 383.734 219.583 383.728 219.577C383.516 219.605 383.298 219.633 383.086 219.661C383.071 219.665 383.056 219.667 383.041 219.667C382.84 219.694 382.633 219.717 382.432 219.739C382.215 219.762 381.997 219.784 381.779 219.806C381.611 219.823 381.444 219.84 381.276 219.857C381.262 219.862 381.247 219.863 381.232 219.862C381.081 219.873 380.93 219.89 380.779 219.901H380.757C380.629 219.912 380.494 219.924 380.366 219.935C378.808 220.058 377.244 220.114 375.658 220.114C373.944 220.114 372.24 220.047 370.559 219.901H370.542C370.179 219.868 369.822 219.834 369.465 219.801C369.37 219.79 369.28 219.784 369.185 219.773C369.169 219.773 369.146 219.767 369.129 219.767C369.102 219.762 369.074 219.762 369.04 219.756C369.025 219.757 369.01 219.755 368.995 219.75C368.873 219.739 368.75 219.722 368.621 219.711L368.202 219.661C368.063 219.644 367.923 219.622 367.784 219.605C367.75 219.6 367.722 219.599 367.689 219.594C367.588 219.583 367.487 219.566 367.387 219.549C367.337 219.544 367.286 219.538 367.242 219.532C367.141 219.516 367.046 219.505 366.946 219.488H366.94C363.876 219.046 360.851 218.364 357.893 217.448C357.736 217.398 357.58 217.353 357.424 217.303C357.418 217.303 357.413 217.297 357.407 217.297C357.362 217.28 357.312 217.269 357.267 217.252C356.848 217.118 356.435 216.979 356.022 216.833C355.452 216.643 354.888 216.437 354.324 216.224C354.173 216.163 354.023 216.107 353.872 216.045C353.565 215.928 353.263 215.805 352.961 215.682C352.448 215.475 351.934 215.257 351.426 215.034C350.951 214.821 350.482 214.609 350.013 214.386C350.002 214.38 349.985 214.38 349.974 214.369C349.868 214.318 349.761 214.268 349.661 214.218H349.655C347.083 212.983 344.603 211.565 342.233 209.976C341.474 209.468 340.725 208.942 339.988 208.4C339.396 207.959 338.815 207.512 338.234 207.054C335.369 204.773 332.717 202.236 330.31 199.476V199.47C330.136 199.28 329.975 199.084 329.807 198.889C329.779 198.861 329.757 198.833 329.734 198.811C329.628 198.682 329.528 198.559 329.422 198.436V198.431C329.282 198.269 329.142 198.101 329.008 197.933C328.975 197.894 328.947 197.861 328.919 197.827V197.822C328.807 197.687 328.701 197.553 328.589 197.414C328.534 197.347 328.483 197.279 328.428 197.212V197.207C328.098 196.793 327.78 196.38 327.461 195.955C327.378 195.843 327.294 195.726 327.204 195.609C326.802 195.066 326.411 194.513 326.032 193.96V193.954C325.886 193.748 325.747 193.535 325.602 193.328C325.462 193.116 325.322 192.904 325.183 192.691C325.043 192.468 324.898 192.25 324.758 192.026L324.742 191.993C324.602 191.78 324.462 191.557 324.328 191.339C324.222 191.16 324.116 190.987 324.01 190.814C323.943 190.696 323.87 190.579 323.803 190.456C323.777 190.418 323.753 190.379 323.731 190.339C323.574 190.065 323.418 189.791 323.262 189.517C323.077 189.199 322.899 188.875 322.72 188.55C322.653 188.416 322.58 188.282 322.508 188.148C322.48 188.103 322.457 188.059 322.435 188.014C322.351 187.857 322.268 187.695 322.189 187.533C322.106 187.377 322.022 187.215 321.938 187.053C321.86 186.896 321.776 186.734 321.698 186.572C321.636 186.449 321.581 186.326 321.519 186.203C321.515 186.193 321.509 186.184 321.502 186.175C321.474 186.114 321.447 186.058 321.424 186.002C321.417 185.994 321.412 185.984 321.407 185.974C321.346 185.851 321.29 185.723 321.229 185.6C321.151 185.438 321.078 185.27 321 185.108C320.949 184.996 320.894 184.879 320.843 184.761C320.771 184.599 320.693 184.437 320.626 184.27C320.547 184.102 320.475 183.934 320.402 183.761C320.381 183.719 320.363 183.676 320.346 183.633C320.307 183.554 320.279 183.476 320.246 183.398C320.156 183.191 320.067 182.979 319.983 182.772C319.883 182.537 319.788 182.297 319.699 182.062C319.609 181.844 319.525 181.621 319.442 181.397L319.408 181.319C318.107 177.889 317.12 174.349 316.459 170.74V170.735C316.087 168.674 315.82 166.597 315.661 164.509C315.655 164.392 315.644 164.28 315.638 164.168C315.538 162.754 315.493 161.335 315.493 159.91C315.493 159.278 315.504 158.652 315.521 158.027C315.911 144.936 320.576 132.335 328.802 122.149C328.98 121.925 329.159 121.702 329.343 121.478C329.528 121.255 329.718 121.037 329.902 120.819C336.024 113.645 343.745 108.01 352.443 104.37C361.141 100.729 370.572 99.1848 379.975 99.8607C389.379 100.537 398.492 103.414 406.581 108.261C414.669 113.108 421.506 119.789 426.541 127.765C426.815 128.201 427.088 128.643 427.351 129.084C427.619 129.531 427.876 129.978 428.133 130.431C433.192 139.43 435.843 149.584 435.829 159.91Z" fill="#F2F2F2"/>
<path d="M378.05 120.53C368.156 123.071 358.017 124.535 347.809 124.898C346.265 124.982 344.718 124.971 343.176 124.866C339.786 124.581 336.883 123.515 333.65 122.933C332.095 122.653 330.364 122.449 328.799 122.147C329.16 121.698 329.529 121.255 329.903 120.817C333.278 121.102 336.704 122.036 340.119 122.47C345.924 123.209 352.429 122.385 356.829 120.352C358.964 119.365 360.6 118.134 362.727 117.143C363.017 116.995 363.33 116.899 363.653 116.859C364.267 116.841 364.873 116.998 365.4 117.313C368.969 119.116 374.152 120.581 378.962 119.775C379.32 120.056 378.639 120.376 378.05 120.53Z" fill="white"/>
<path d="M399.336 126.876C399.38 126.868 399.424 126.862 399.468 126.854C399.283 126.739 399.109 126.608 398.948 126.462L399.336 126.876Z" fill="white"/>
<path d="M428.131 130.433C426.122 130.594 424.103 130.714 422.073 130.792C420.529 130.876 418.982 130.865 417.44 130.761C414.05 130.474 411.147 129.409 407.914 128.827C404.95 128.294 401.349 128.037 399.468 126.854C404.331 126.012 409.369 127.726 414.383 128.364C418.439 128.864 422.551 128.66 426.538 127.764C427.093 128.638 427.624 129.528 428.131 130.433Z" fill="white"/>
<path d="M368.875 186.254C378.856 186.254 386.947 177.978 386.947 167.768C386.947 157.558 378.856 149.282 368.875 149.282C358.895 149.282 350.804 157.558 350.804 167.768C350.804 177.978 358.895 186.254 368.875 186.254Z" fill="#FFB6B6"/>
<path d="M403.828 213.117C403.348 213.38 402.862 213.631 402.376 213.871C402.203 213.955 402.024 214.039 401.851 214.128C401.706 214.196 401.56 214.268 401.415 214.335C401.371 214.358 401.331 214.374 401.292 214.397C401.169 214.453 401.052 214.508 400.929 214.564C400.795 214.626 400.661 214.687 400.533 214.749C400.382 214.816 400.237 214.883 400.086 214.944C399.528 215.196 398.963 215.436 398.399 215.665C396.378 216.494 394.312 217.211 392.211 217.811C392.117 217.839 392.016 217.867 391.915 217.895C391.016 218.146 390.112 218.376 389.201 218.582C387.61 218.951 386.003 219.253 384.382 219.488H384.37C384.175 219.516 383.985 219.544 383.79 219.572C383.773 219.572 383.756 219.577 383.734 219.577C383.734 219.583 383.734 219.583 383.728 219.577C383.516 219.605 383.298 219.633 383.086 219.661C383.071 219.665 383.056 219.667 383.041 219.667C382.84 219.695 382.634 219.717 382.432 219.739C382.215 219.762 381.997 219.784 381.779 219.806C381.612 219.823 381.444 219.84 381.276 219.857C381.262 219.862 381.247 219.863 381.232 219.862C381.081 219.873 380.93 219.89 380.779 219.901H380.757C380.629 219.912 380.495 219.924 380.366 219.935C378.808 220.058 377.244 220.114 375.658 220.114C373.944 220.114 372.24 220.047 370.559 219.901H370.542C370.179 219.868 369.822 219.834 369.465 219.801C369.37 219.79 369.28 219.784 369.185 219.773C369.169 219.773 369.146 219.767 369.13 219.767C369.102 219.762 369.074 219.762 369.04 219.756C369.025 219.757 369.01 219.755 368.995 219.75C368.873 219.739 368.75 219.722 368.621 219.711L368.202 219.661C368.063 219.644 367.923 219.622 367.784 219.605C367.75 219.599 367.722 219.6 367.689 219.594C367.588 219.583 367.488 219.566 367.387 219.549C367.337 219.544 367.287 219.538 367.242 219.532C367.141 219.516 367.046 219.505 366.946 219.488H366.94C363.876 219.046 360.851 218.364 357.893 217.448C357.737 217.398 357.58 217.353 357.424 217.303C358.145 213.938 359.629 210.783 361.763 208.084C363.896 205.384 366.621 203.211 369.727 201.733C368.959 201.001 368.428 200.055 368.202 199.017C368.057 198.349 368.046 197.658 368.169 196.984C368.291 196.311 368.546 195.669 368.917 195.094C369.642 193.981 370.779 193.201 372.078 192.926L380.355 191.194C381.687 190.934 383.068 191.211 384.198 191.964C385.327 192.718 386.114 193.887 386.387 195.217C386.471 195.625 386.508 196.041 386.498 196.458C394.468 201.767 400.203 207.271 403.828 213.117Z" fill="#6C63FF"/>
<path d="M417.233 159.751C414.161 156.166 412.701 151.41 410.245 147.34C407.789 143.27 403.516 139.627 399.002 140.574C395.89 141.227 393.485 143.975 392.267 147.038C391.05 150.102 390.821 153.48 390.608 156.79C390.683 149.988 386.205 143.395 380.036 141.224C373.868 139.054 366.485 141.475 362.609 146.939C360.917 145.37 358.709 144.477 356.403 144.429C354.097 144.38 351.854 145.18 350.098 146.676C346.631 149.777 345.863 155.679 348.413 159.634C350.963 163.59 356.486 165.063 360.538 162.869L361.97 164.188C361.164 167.01 362.728 170.344 365.356 171.406C367.488 172.268 370.497 172.125 371.295 174.363C371.853 175.927 370.811 177.597 369.702 178.798C368.594 180 367.278 181.241 367.145 182.905C366.944 185.414 369.536 187.172 371.892 187.701C377.572 188.978 383.875 186.346 387.149 181.329C387.212 181.233 387.281 181.136 387.355 181.039C389.192 178.688 390.531 175.988 391.289 173.102C392.048 170.216 392.211 167.206 391.767 164.255C391.583 163.096 391.769 162.233 392.568 161.959C396.02 160.772 405.694 163.263 408.622 165.514C411.55 167.765 413.894 170.744 416.714 173.141C419.534 175.537 423.128 177.386 426.709 176.733C429.577 176.211 432.016 174.127 433.657 171.614C435.298 169.101 436.243 166.172 437.089 163.261C430.747 166.927 422.068 165.392 417.233 159.751Z" fill="#2F2E41"/>
<path d="M46.2559 122.468C46.2559 123.825 46.3006 125.183 46.3955 126.53C46.4961 128.14 46.6692 129.738 46.9038 131.325C47.692 136.669 49.1987 141.882 51.3827 146.822C51.4944 147.068 51.6061 147.314 51.7178 147.559L51.8854 147.928C51.9412 148.051 52.0027 148.174 52.0585 148.292C52.1367 148.454 52.2093 148.61 52.2875 148.767C52.3824 148.962 52.4774 149.158 52.5779 149.353C52.5891 149.376 52.6002 149.404 52.617 149.432C52.7008 149.599 52.7789 149.761 52.8683 149.929C52.8847 149.965 52.9034 150.001 52.9242 150.035C53.0191 150.225 53.1196 150.421 53.2201 150.611C53.3318 150.812 53.4379 151.019 53.5496 151.22C53.8177 151.717 54.0969 152.209 54.3818 152.701C54.4655 152.846 54.5493 152.991 54.6387 153.137C54.7169 153.271 54.7951 153.405 54.8788 153.539C54.9347 153.628 54.9905 153.723 55.0464 153.813C55.1357 153.964 55.2251 154.109 55.32 154.26C55.5266 154.59 55.7389 154.919 55.9455 155.249H55.9511C56.046 155.4 56.1466 155.551 56.2471 155.696V155.702C56.5431 156.149 56.8502 156.596 57.1574 157.037C57.1581 157.037 57.1589 157.037 57.1596 157.038C57.1602 157.038 57.1609 157.038 57.1614 157.039C57.1619 157.039 57.1623 157.04 57.1626 157.041C57.1629 157.041 57.163 157.042 57.163 157.043C57.4087 157.401 57.6656 157.747 57.9169 158.094V158.099C58.0845 158.317 58.2464 158.541 58.414 158.759C58.548 158.937 58.6876 159.122 58.8273 159.301C58.8552 159.34 58.8887 159.373 58.9166 159.412V159.418C58.9557 159.468 58.9948 159.513 59.0339 159.563C59.6259 160.323 60.2365 161.067 60.8657 161.793L60.9662 161.91C60.9997 161.95 61.0388 161.989 61.0724 162.033C61.1282 162.095 61.1784 162.156 61.2343 162.218C61.2846 162.279 61.3404 162.341 61.3963 162.402C64.6762 166.099 68.3953 169.382 72.4709 172.176C73.0126 172.551 73.5655 172.914 74.1184 173.266C74.258 173.355 74.3976 173.445 74.5373 173.529C74.5764 173.557 74.621 173.585 74.6601 173.613C74.7383 173.657 74.8109 173.702 74.8891 173.752C74.9617 173.797 75.0343 173.842 75.1125 173.886C75.4085 174.071 75.7101 174.25 76.0116 174.428C76.0843 174.473 76.1624 174.518 76.2406 174.563C76.3132 174.602 76.3914 174.646 76.4696 174.691C76.4696 174.697 76.4696 174.697 76.4752 174.697H76.4808V174.702H76.4863C76.8605 174.92 77.2403 175.133 77.6256 175.339C77.8323 175.451 78.0445 175.569 78.2567 175.675C78.737 175.937 79.2229 176.189 79.7088 176.429C79.8819 176.513 80.0606 176.597 80.2337 176.686C80.3789 176.753 80.5242 176.826 80.6694 176.893C80.714 176.915 80.7531 176.932 80.7922 176.954C80.9151 177.01 81.0324 177.066 81.1552 177.122C81.2893 177.184 81.4233 177.245 81.5517 177.306C81.7025 177.374 81.8477 177.441 81.9985 177.502C82.557 177.754 83.1211 177.994 83.6851 178.223C85.7066 179.052 87.7724 179.769 89.8731 180.369C89.968 180.397 90.0685 180.425 90.1691 180.453C91.0682 180.704 91.973 180.933 92.8833 181.14C94.475 181.509 96.0815 181.811 97.703 182.045H97.7141C97.9096 182.073 98.0995 182.101 98.295 182.129C98.3117 182.129 98.3285 182.135 98.3508 182.135C98.3508 182.14 98.3508 182.14 98.3564 182.135C98.5686 182.163 98.7864 182.191 98.9986 182.219C99.0131 182.223 99.0282 182.225 99.0433 182.224C99.2444 182.252 99.451 182.275 99.6521 182.297C99.8699 182.319 100.088 182.342 100.305 182.364C100.473 182.381 100.641 182.398 100.808 182.414C100.822 182.419 100.838 182.421 100.853 182.42C101.004 182.431 101.154 182.448 101.305 182.459H101.328C101.456 182.47 101.59 182.481 101.718 182.493C103.277 182.616 104.84 182.671 106.426 182.671C108.141 182.671 109.844 182.604 111.525 182.459H111.542C111.905 182.425 112.263 182.392 112.62 182.358C112.715 182.347 112.804 182.342 112.899 182.33C112.916 182.33 112.938 182.325 112.955 182.325C112.983 182.319 113.011 182.319 113.044 182.314C113.059 182.314 113.075 182.312 113.089 182.308C113.212 182.297 113.335 182.28 113.463 182.269L113.882 182.219C114.022 182.202 114.161 182.18 114.301 182.163C114.334 182.157 114.362 182.157 114.396 182.152C114.496 182.14 114.597 182.124 114.697 182.107C114.748 182.101 114.798 182.096 114.843 182.09C114.943 182.073 115.038 182.062 115.139 182.046H115.144C118.209 181.604 121.234 180.922 124.192 180.006C124.348 179.955 124.504 179.911 124.661 179.86C124.666 179.86 124.672 179.855 124.677 179.855C124.722 179.838 124.772 179.827 124.817 179.81C125.236 179.676 125.649 179.536 126.062 179.391C126.632 179.201 127.196 178.994 127.76 178.782C127.911 178.72 128.062 178.665 128.213 178.603C128.52 178.486 128.821 178.363 129.123 178.24C129.637 178.033 130.151 177.815 130.659 177.592C131.133 177.379 131.603 177.167 132.072 176.943C132.083 176.938 132.1 176.938 132.111 176.927C132.217 176.876 132.323 176.826 132.424 176.776H132.429C135.001 175.541 137.481 174.123 139.851 172.534C140.611 172.025 141.359 171.5 142.096 170.958C142.688 170.517 143.269 170.07 143.85 169.611C146.715 167.331 149.368 164.794 151.775 162.033V162.028C151.948 161.838 152.11 161.642 152.277 161.447C152.305 161.419 152.328 161.391 152.35 161.368C152.456 161.24 152.557 161.117 152.663 160.994V160.988C152.802 160.826 152.942 160.659 153.076 160.491C153.11 160.452 153.138 160.418 153.165 160.385V160.379C153.277 160.245 153.383 160.111 153.495 159.971C153.551 159.904 153.601 159.837 153.657 159.77V159.765C153.986 159.351 154.305 158.937 154.623 158.513C154.707 158.401 154.791 158.284 154.88 158.166C155.282 157.624 155.673 157.071 156.053 156.518V156.512C156.198 156.305 156.338 156.093 156.483 155.886C156.622 155.674 156.762 155.461 156.902 155.249C157.041 155.026 157.187 154.808 157.326 154.584L157.343 154.551C157.482 154.338 157.622 154.115 157.756 153.897C157.862 153.718 157.968 153.545 158.074 153.371C158.142 153.254 158.214 153.137 158.281 153.014C158.307 152.976 158.332 152.937 158.354 152.896C158.51 152.623 158.666 152.349 158.823 152.075C159.007 151.756 159.186 151.432 159.365 151.108C159.432 150.974 159.504 150.84 159.577 150.706C159.605 150.661 159.627 150.616 159.649 150.572C159.733 150.415 159.817 150.253 159.895 150.091C159.979 149.935 160.063 149.772 160.146 149.61C160.225 149.454 160.308 149.292 160.387 149.13C160.448 149.007 160.504 148.884 160.565 148.761C160.57 148.751 160.575 148.742 160.582 148.733C160.61 148.672 160.638 148.616 160.66 148.56C160.667 148.551 160.673 148.542 160.677 148.532C160.738 148.409 160.794 148.28 160.856 148.157C160.934 147.995 161.007 147.828 161.085 147.666C161.135 147.554 161.191 147.437 161.241 147.319C161.314 147.157 161.392 146.995 161.459 146.827C161.537 146.66 161.61 146.492 161.682 146.319C161.703 146.277 161.722 146.234 161.738 146.19C161.777 146.112 161.805 146.034 161.839 145.956C161.928 145.749 162.017 145.536 162.101 145.33C162.202 145.095 162.297 144.855 162.386 144.62C162.475 144.402 162.559 144.178 162.643 143.955L162.676 143.877C163.978 140.447 164.965 136.906 165.625 133.298V133.292C165.998 131.232 166.264 129.154 166.424 127.067C166.429 126.949 166.441 126.838 166.446 126.726C166.547 125.312 166.591 123.893 166.591 122.468C166.591 121.836 166.58 121.21 166.563 120.584C166.174 107.494 161.509 94.8923 153.283 84.7067C153.104 84.4831 152.925 84.2596 152.741 84.0361C152.557 83.8125 152.367 83.5946 152.183 83.3766C146.06 76.2023 138.339 70.5678 129.641 66.9274C120.944 63.287 111.513 61.7425 102.109 62.4184C92.7055 63.0944 83.592 65.9718 75.5036 70.8188C67.4152 75.6658 60.5781 82.3468 55.5434 90.323C55.2698 90.7589 54.9961 91.2004 54.7337 91.6419C54.4656 92.089 54.2087 92.5361 53.9518 92.9887C48.8923 101.988 46.2414 112.142 46.2559 122.468Z" fill="#F2F2F2"/>
<path d="M104.035 83.088C113.929 85.6283 124.068 87.0926 134.276 87.4555C135.819 87.5396 137.367 87.5291 138.909 87.4239C142.299 87.1387 145.202 86.0727 148.435 85.4902C149.99 85.2109 151.721 85.0067 153.286 84.7049C152.924 84.256 152.556 83.8126 152.182 83.3747C148.807 83.66 145.38 84.5938 141.965 85.0277C136.16 85.7664 129.656 84.9422 125.255 82.9093C123.12 81.9229 121.485 80.6918 119.357 79.7009C119.068 79.5522 118.755 79.4561 118.432 79.4171C117.818 79.3987 117.212 79.556 116.685 79.8705C113.116 81.6737 107.933 83.139 103.123 82.3328C102.764 82.6135 103.446 82.9333 104.035 83.088Z" fill="white"/>
<path d="M82.7491 89.4336C82.7052 89.4256 82.6611 89.4193 82.6172 89.4117C82.802 89.2971 82.976 89.1659 83.137 89.0198L82.7491 89.4336Z" fill="white"/>
<path d="M53.9531 92.9911C55.9622 93.1517 57.9817 93.2714 60.0118 93.3499C61.5554 93.4333 63.1026 93.4228 64.645 93.3184C68.0344 93.0316 70.9377 91.9672 74.1711 91.3846C77.1343 90.8516 80.7353 90.5949 82.6168 89.4118C77.754 88.5696 72.7157 90.2841 67.7013 90.9222C63.6453 91.4213 59.5337 91.2181 55.5465 90.3216C54.9914 91.1955 54.4603 92.0853 53.9531 92.9911Z" fill="white"/>
<path d="M78.2568 175.675C78.7371 175.937 79.223 176.189 79.7089 176.429C79.882 176.513 80.0607 176.597 80.2339 176.686C80.3791 176.753 80.5243 176.826 80.6695 176.893C80.7141 176.915 80.7532 176.932 80.7923 176.954C80.9152 177.01 81.0325 177.066 81.1553 177.122C81.2894 177.184 81.4234 177.245 81.5519 177.307C81.7027 177.374 81.8479 177.441 81.9986 177.502C82.5571 177.754 83.1212 177.994 83.6852 178.223C85.7067 179.052 87.7725 179.769 89.8732 180.369C89.9681 180.397 90.0687 180.425 90.1692 180.453C91.0684 180.704 91.9731 180.933 92.8834 181.14C94.4751 181.509 96.0816 181.811 97.7031 182.045H97.7143C97.9097 182.073 98.0996 182.101 98.2951 182.129C98.3118 182.129 98.3286 182.135 98.3509 182.135C98.3509 182.14 98.3509 182.14 98.3565 182.135C98.5687 182.163 98.7865 182.191 98.9988 182.219C99.0132 182.223 99.0283 182.225 99.0434 182.224C99.2445 182.252 99.4511 182.275 99.6522 182.297C99.87 182.319 100.088 182.342 100.306 182.364C100.473 182.381 100.641 182.398 100.808 182.414C100.823 182.419 100.838 182.421 100.853 182.42C101.004 182.431 101.154 182.448 101.305 182.459H101.328C101.456 182.47 101.59 182.481 101.719 182.493C103.277 182.616 104.84 182.671 106.427 182.671C108.141 182.671 109.844 182.604 111.525 182.459H111.542C111.905 182.425 112.263 182.392 112.62 182.358C112.715 182.347 112.804 182.342 112.899 182.33C112.916 182.33 112.938 182.325 112.955 182.325C112.983 182.319 113.011 182.319 113.044 182.314C113.06 182.314 113.075 182.312 113.089 182.308C113.212 182.297 113.335 182.28 113.463 182.269L113.882 182.219C114.022 182.202 114.161 182.18 114.301 182.163C114.335 182.157 114.362 182.157 114.396 182.152C114.497 182.14 114.597 182.124 114.698 182.107C114.748 182.101 114.798 182.096 114.843 182.09C114.943 182.073 115.038 182.062 115.139 182.045H115.144C118.209 181.604 121.234 180.922 124.192 180.006C124.348 179.955 124.504 179.911 124.661 179.86C123.94 176.495 122.455 173.341 120.322 170.641C118.189 167.942 115.464 165.769 112.358 164.291C113.126 163.559 113.657 162.613 113.882 161.575C114.027 160.906 114.039 160.215 113.916 159.542C113.793 158.869 113.539 158.227 113.167 157.652C112.443 156.539 111.306 155.759 110.006 155.484L101.73 153.751C100.397 153.491 99.0163 153.768 97.8869 154.522C96.7574 155.275 95.9708 156.444 95.6982 157.775C95.6137 158.183 95.5762 158.599 95.5865 159.016C87.6169 164.325 81.8814 169.829 78.2568 175.675Z" fill="#6C63FF"/>
<path d="M111 148.161C122.126 148.161 131.146 139.135 131.146 128.002C131.146 116.868 122.126 107.843 111 107.843C99.8732 107.843 90.8535 116.868 90.8535 128.002C90.8535 139.135 99.8732 148.161 111 148.161Z" fill="#9E616A"/>
<path d="M108.137 147.083C103.093 148.446 97.5326 146.634 93.5966 143.197C89.6606 139.759 87.1985 134.888 85.7798 129.857C84.7408 126.173 84.2482 122.082 85.8878 118.623C87.5274 115.164 91.9401 112.83 95.3445 114.577C93.2443 112.129 94.2936 108.079 96.7464 105.985C99.1992 103.89 102.567 103.29 105.775 102.961C110.431 102.485 115.239 102.432 119.669 103.941C124.099 105.45 128.124 108.75 129.511 113.222C130.927 113.882 132.522 114.053 134.045 113.709C135.569 113.365 136.936 112.524 137.931 111.32C138.188 112.703 137.981 114.133 137.344 115.387C136.707 116.641 135.675 117.651 134.407 118.259L141.195 116.057C142.362 118.529 140.317 121.589 137.701 122.381C135.085 123.173 132.262 122.308 129.78 121.164C127.297 120.02 124.892 118.574 122.196 118.128C119.5 117.681 116.333 118.548 115.086 120.981C114.432 122.256 114.398 123.748 114.019 125.129C113.64 126.51 112.679 127.942 111.252 128.055C110.351 128.127 109.468 127.646 108.569 127.745C108.018 127.853 107.51 128.121 107.107 128.514C106.705 128.907 106.426 129.409 106.305 129.958C106.081 131.061 106.078 132.197 106.297 133.3L108.021 146.488L108.137 147.083Z" fill="#2F2E41"/>
</g>
<defs>
<clipPath id="clip0_269_1140">
<rect width="452" height="352" fill="white"/>
</clipPath>
</defs>
</svg>
