<svg width="460" height="338" viewBox="0 0 460 338" fill="none" xmlns="http://www.w3.org/2000/svg">
<g clip-path="url(#clip0_311_1986)">
<path d="M448.537 147.307C448.666 145.342 444.058 144.382 444.267 142.662C444.476 140.949 449.123 141.305 454.037 138.209C454.923 137.651 460.507 134.133 459.963 131.494C458.931 126.491 436.789 129.045 434.634 121.767C434.161 120.17 434.601 117.929 433.297 112.909C432.778 110.912 432.347 109.876 431.467 109.549C430.219 109.085 429.158 110.454 426.093 112.478C421.498 115.512 420.658 114.563 417.361 117.237C414.913 119.221 414.09 120.787 413.025 120.471C411.517 120.025 412.19 116.602 410.464 115.767C408.702 114.914 405.629 117.331 403.746 119.427C400.213 123.361 399.847 127.303 398.673 130.907C397.396 134.824 394.568 140.174 387.553 145.682L323.516 192.323C336.996 182.986 374.695 157.9 389.383 149.043C393.623 146.486 398.076 143.997 402.937 145.142C407.618 146.244 412.113 150.581 419.659 153.459C420.54 153.795 423.005 154.699 424.115 153.645C425.033 152.773 424.188 151.357 425.033 150.53C426.165 149.422 428.604 151.07 432.602 151.634C435.42 152.032 437.581 151.689 439.439 151.394C439.999 151.305 448.367 149.923 448.537 147.307Z" fill="#F2F2F2"/>
<path d="M340.337 120.814C339.41 120.184 337.609 122.17 336.826 121.571C336.046 120.974 337.561 118.795 337.461 115.489C337.443 114.892 337.328 111.135 335.876 110.641C333.125 109.704 327.989 121.314 323.797 120.273C322.877 120.044 321.905 119.182 319.066 118.374C317.937 118.053 317.304 117.965 316.89 118.303C316.302 118.782 316.668 119.698 316.776 121.787C316.938 124.919 316.231 125.058 316.591 127.448C316.858 129.223 317.389 130.079 316.926 130.511C316.272 131.123 314.787 129.804 313.88 130.411C312.953 131.031 313.252 133.237 313.737 134.766C314.647 137.636 316.475 138.953 317.904 140.57C319.458 142.327 321.266 145.259 321.944 150.294L326.345 195.199C325.655 185.885 324.227 160.134 324.12 150.365C324.089 147.545 324.153 144.64 326.117 142.583C328.008 140.603 331.433 139.647 335.022 136.771C335.441 136.435 336.596 135.486 336.399 134.636C336.236 133.934 335.298 133.94 335.136 133.287C334.919 132.411 336.431 131.689 337.861 129.888C338.87 128.619 339.325 127.459 339.716 126.461C339.834 126.161 341.571 121.653 340.337 120.814Z" fill="#F2F2F2"/>
<path d="M355.947 137.598L358.796 132.241L359.309 132.038C361.681 131.101 363.447 129.809 364.561 128.197C364.738 127.941 364.902 127.675 365.069 127.405C365.732 126.334 366.555 125.003 368.257 123.96C369.207 123.38 371.595 122.164 373.023 123.495C373.41 123.849 373.599 124.268 373.688 124.668C373.763 124.635 373.84 124.603 373.922 124.567C374.936 124.15 375.551 124.095 376.143 124.042C376.598 124.001 377.067 123.959 377.939 123.695C378.322 123.58 378.637 123.464 378.903 123.367C379.707 123.075 380.714 122.759 381.654 123.421C382.635 124.163 382.591 125.366 382.563 126.162C382.514 127.582 382.31 128.49 382.174 129.093C382.124 129.313 382.069 129.561 382.068 129.648C382.065 130.352 385.027 131.722 386.139 132.244C388.642 133.409 390.808 134.416 390.638 136.383C390.518 137.79 389.174 138.838 386.532 139.58C385.71 139.81 384.947 139.891 384.299 139.92C384.509 140.374 384.604 140.916 384.384 141.513C383.861 142.926 381.997 143.425 378.843 143C378.059 142.897 377.005 142.753 375.777 142.19C375.198 141.925 374.718 141.627 374.311 141.366C374.145 141.591 373.92 141.804 373.603 141.964C372.673 142.439 371.57 142.212 370.337 141.24C368.966 140.192 367.982 139.118 367.112 138.173C366.352 137.348 365.695 136.64 365.057 136.263C363.864 135.58 362.372 135.888 360.545 136.362L355.947 137.598Z" fill="#F2F2F2"/>
<path d="M378.809 109.744L372.907 108.346L372.581 107.901C371.073 105.843 369.376 104.461 367.535 103.792C367.243 103.686 366.944 103.594 366.641 103.501C365.438 103.131 363.942 102.673 362.502 101.29C361.7 100.517 359.919 98.5142 360.844 96.795C361.087 96.3302 361.445 96.0407 361.808 95.854C361.757 95.7893 361.707 95.7232 361.652 95.6525C360.991 94.777 360.782 94.1962 360.581 93.6367C360.425 93.2068 360.266 92.7629 359.79 91.986C359.581 91.6451 359.389 91.3691 359.228 91.1366C358.742 90.4317 358.181 89.5377 358.582 88.4598C359.052 87.3226 360.225 87.0596 361.001 86.8849C362.387 86.5728 363.317 86.5396 363.934 86.518C364.159 86.5106 364.413 86.501 364.497 86.4804C365.179 86.304 365.752 83.0898 365.974 81.8812C366.465 79.1635 366.89 76.8118 368.834 76.4771C370.225 76.2365 371.58 77.2712 372.966 79.6399C373.398 80.3776 373.669 81.0952 373.862 81.7148C374.248 81.3969 374.747 81.1677 375.381 81.2293C376.88 81.377 377.834 83.0539 378.223 86.2141C378.322 86.9997 378.451 88.0558 378.218 89.3876C378.108 90.0146 377.943 90.5553 377.793 91.0153C378.053 91.1192 378.316 91.283 378.551 91.5485C379.246 92.328 379.307 93.454 378.68 94.8935C378.014 96.4859 377.225 97.7113 376.532 98.7928C375.928 99.7377 375.41 100.553 375.207 101.266C374.849 102.594 375.526 103.96 376.447 105.608L378.809 109.744Z" fill="#F2F2F2"/>
<path d="M386.26 93.3152L389.109 87.9578L389.621 87.755C391.993 86.8179 393.759 85.5259 394.873 83.9139C395.05 83.6577 395.214 83.3924 395.382 83.1223C396.044 82.0515 396.867 80.7203 398.569 79.677C399.52 79.0969 401.908 77.8813 403.335 79.2125C403.723 79.5663 403.912 79.9854 404 80.3847C404.076 80.3518 404.152 80.3196 404.235 80.2843C405.249 79.8673 405.863 79.812 406.455 79.7588C406.91 79.7177 407.38 79.6759 408.252 79.4122C408.634 79.2967 408.95 79.1811 409.215 79.0843C410.02 78.7923 411.027 78.4761 411.967 79.1381C412.947 79.8805 412.904 81.0827 412.876 81.8787C412.826 83.2988 412.622 84.2074 412.487 84.8098C412.437 85.0297 412.382 85.2778 412.38 85.365C412.378 86.0693 415.34 87.4391 416.452 87.9611C418.954 89.1256 421.12 90.1333 420.951 92.0996C420.831 93.5067 419.487 94.5552 416.845 95.2967C416.022 95.5271 415.26 95.608 414.612 95.6371C414.821 96.0912 414.916 96.6327 414.696 97.2301C414.173 98.6435 412.31 99.142 409.156 98.7172C408.371 98.6137 407.318 98.4704 406.089 97.9074C405.511 97.6417 405.03 97.3441 404.624 97.083C404.457 97.3079 404.232 97.5207 403.916 97.6815C402.986 98.1561 401.882 97.929 400.649 96.9573C399.279 95.9086 398.294 94.835 397.424 93.8896C396.664 93.0651 396.008 92.3574 395.37 91.9803C394.176 91.2966 392.685 91.605 390.858 92.0789L386.26 93.3152Z" fill="#F2F2F2"/>
<path d="M325.235 193.383L324.64 192.015L323.33 191.322C323.388 191.196 323.5 190.891 323.678 190.417C324.657 187.819 327.633 179.913 333.549 168.303C337.678 160.198 342.37 152.172 347.495 144.443C352.628 136.701 356.963 131.148 360.445 126.684C363.073 123.317 365.632 120.15 368.127 117.067C374.789 108.828 381.082 101.045 386.833 91.5946C388.118 89.4857 390.79 85.0945 391.402 78.8926C391.757 75.2955 391.369 71.6204 390.248 67.9717L393.098 67.0947C394.334 71.1253 394.761 75.1942 394.367 79.1882C393.689 86.0646 390.777 90.8493 389.378 93.1483C383.525 102.765 377.171 110.623 370.444 118.941C367.959 122.014 365.41 125.166 362.794 128.519C359.343 132.942 355.047 138.447 349.98 146.089C344.915 153.726 340.282 161.654 336.203 169.656C330.363 181.12 327.432 188.909 326.468 191.468C325.953 192.834 325.846 193.12 325.235 193.383Z" fill="#F2F2F2"/>
<path d="M383.064 68.7903C382.963 68.7212 382.862 68.6489 382.764 68.5709C380.748 67.0231 379.667 64.4403 379.551 60.8946C379.499 59.2285 379.95 57.6777 380.85 54.585C380.988 54.1077 381.716 51.705 383.196 48.7278C384.163 46.782 384.703 46.0611 385.503 45.6463C386.394 45.1833 387.374 45.1067 388.32 45.2502C388.45 44.9934 388.641 44.768 388.912 44.5905C390.034 43.8517 391.056 44.7498 391.614 45.2277C391.892 45.4751 392.239 45.7864 392.664 46.0461C393.331 46.4575 393.81 46.5031 394.533 46.5751C395.225 46.6436 396.086 46.7287 397.144 47.1749C399.235 48.0467 400.413 49.6163 400.802 50.1332C402.854 52.8421 402.749 55.8091 402.627 59.2444C402.601 59.9322 402.442 62.3929 401.486 65.2604C400.797 67.3292 400.201 68.0503 399.66 68.52C398.554 69.4875 397.379 69.6707 394.548 69.9123C391.59 70.1684 390.106 70.2953 388.966 70.2091C386.314 70.0046 384.648 69.8764 383.064 68.7903Z" fill="#F2F2F2"/>
<path d="M371.315 0H204.249C198.12 0 193.137 4.98629 193.137 11.1183V183.541C193.137 189.673 198.12 194.659 204.249 194.659H371.315C377.444 194.659 382.427 189.673 382.427 183.541V11.1183C382.427 4.98629 377.444 0 371.315 0ZM381.259 183.541C381.259 189.035 376.807 193.49 371.315 193.49H204.249C198.757 193.49 194.305 189.035 194.305 183.541V11.1183C194.305 5.62354 198.757 1.16912 204.249 1.16912H292.743C341.629 1.16912 381.259 40.8213 381.259 89.7348V183.541Z" fill="#3F3D56"/>
<path d="M381.259 183.541C381.259 189.035 376.807 193.49 371.315 193.49H204.249C198.757 193.49 194.305 189.035 194.305 183.541V11.1183C194.305 5.62354 198.757 1.16912 204.249 1.16912H292.743C341.629 1.16912 381.259 40.8213 381.259 89.7348V183.541Z" fill="white"/>
<path d="M189.599 129.588C183.744 131.172 179.814 135.479 180.822 139.207C181.83 142.936 187.393 144.674 193.25 143.089C195.599 142.488 197.769 141.333 199.58 139.72L224.306 132.697L220.764 121.157L196.765 129.306C194.388 128.826 191.931 128.923 189.599 129.588Z" fill="#FFB6B6"/>
<path d="M293.214 94.9688C293.214 94.9688 300.195 105.215 284.462 112.944C268.73 120.674 239.648 131.705 239.648 131.705L199.494 141.013L193.43 127.712L241.077 114.723L279.903 93.0427L293.214 94.9688Z" fill="#3F3D56"/>
<path d="M288.544 67.6965C288.365 72.5534 291.86 78.3189 295.554 78.4373C299.999 78.5797 321.011 80.0771 321.687 78.3333C326.377 66.2264 304.289 41.112 299.311 40.3875C296.635 39.9981 293.431 43.8417 292.2 47.0148C290.473 51.4613 293.021 53.5583 291.583 59.5486C290.487 64.1166 288.668 64.3011 288.544 67.6965Z" fill="#2F2E41"/>
<path d="M251.97 259.16L237.223 262.541L252.041 306.535L262.034 304.245L251.97 259.16Z" fill="#FFB6B6"/>
<path d="M246.7 292.815L252.404 293.653L253.284 296.71C253.284 296.71 253.474 292.821 259.773 290.156L261.411 292.892C261.411 292.892 264.783 295.063 265.873 300.445L268.293 315.001L263.34 316.316L259.706 306.753C259.706 306.753 257.707 304.924 254.526 317.296C254.526 317.296 253.238 321.453 241.554 320.972C239.948 320.905 238.535 319.833 238.107 318.283C237.87 317.428 237.975 316.544 238.961 315.951C241.471 314.443 244.391 314.584 245.517 311.903C246.643 309.222 246.7 292.815 246.7 292.815Z" fill="#2F2E41"/>
<path d="M284.007 279.161L270.838 278.836L272.681 325.162L282.932 325.345L284.007 279.161Z" fill="#FFB6B6"/>
<path d="M270.798 310.559L276.133 312.745L276.251 315.924C276.251 315.924 277.371 312.195 284.126 311.125L285.057 314.176C285.057 314.176 287.808 317.095 287.572 322.581L286.42 337.292L281.297 337.375L280.07 327.218C280.07 327.218 278.569 324.962 272.506 336.204C272.506 336.204 270.256 339.93 259.031 336.649C257.488 336.198 256.375 334.817 256.331 333.209C256.307 332.322 256.622 331.489 257.721 331.151C260.521 330.292 263.32 331.132 265.058 328.801C266.796 326.47 270.798 310.559 270.798 310.559Z" fill="#2F2E41"/>
<path d="M311.183 228.561L241.535 223.169L261.135 142.774L308.028 136.013L311.183 228.561Z" fill="#2F2E41"/>
<path d="M301.578 80.7822L316.253 72.9597L328.103 86.9597L304.29 163.326L260.73 144.027L293.815 87.4335L301.578 80.7822Z" fill="#6C63FF"/>
<path d="M303.437 149.538C303.437 149.538 308.11 173.647 293.64 186.178L289.21 200.269L284.427 226.277L284.86 293.45L267.333 291.696L260.323 227.397L260.239 195.395L234.364 217.566L261.444 270.783L239.378 280.451L212.429 216.319C210.556 212.413 211.055 207.782 213.718 204.365L260.73 144.027L303.437 149.538Z" fill="#2F2E41"/>
<path d="M321.606 79.2844L292.833 106.142C286.024 161.43 289.741 212.197 309.333 256.147L357.683 233.726C317.815 221.627 321.725 155.194 329.46 84.0121L321.606 79.2844Z" fill="#3F3D56"/>
<path d="M296.793 87.5218L301.219 80.6694L276.739 95.07L257.381 148.745L293.09 104.157L296.793 87.5218Z" fill="#3F3D56"/>
<path d="M358.029 188.484C359.717 194.313 364.091 198.168 367.798 197.093C371.506 196.018 373.143 190.421 371.454 184.59C370.812 182.251 369.619 180.1 367.975 178.317L360.514 153.708L349.047 157.457L357.619 181.32C357.182 183.706 357.323 186.163 358.029 188.484Z" fill="#FFB6B6"/>
<path d="M320.487 84.5853C320.487 84.5853 330.523 77.309 338.696 92.822C346.87 108.335 358.727 137.104 358.727 137.104L369.18 176.997L356.065 183.444L341.72 136.163L318.945 97.9543L320.487 84.5853Z" fill="#3F3D56"/>
<path d="M308.555 72.33C317.556 72.33 324.853 65.0292 324.853 56.0233C324.853 47.0173 317.556 39.7166 308.555 39.7166C299.554 39.7166 292.258 47.0173 292.258 56.0233C292.258 65.0292 299.554 72.33 308.555 72.33Z" fill="#FFB6B6"/>
<path d="M308.608 49.6613C307.69 49.5708 307.219 50.5414 303.715 51.8955C302.474 52.3753 301.839 52.6161 301.11 52.663C298.893 52.8054 297.171 51.5807 296.02 50.7623C294.149 49.4319 292.944 48.5749 292.708 47.2047C292.401 45.4168 294.424 43.4195 298.482 39.498C300.47 37.5775 301.681 36.4174 303.626 35.0367C306.888 32.7209 308.519 31.563 310.805 31.3358C313.833 31.0349 316.135 32.4807 319.457 34.567C320.354 35.1306 321.648 35.4016 323.02 35.5049C327.511 35.8431 331.36 38.8377 332.581 43.1746C332.675 43.5059 332.753 43.8058 332.812 44.0626C335.223 54.5928 334.55 65.5452 331.251 75.8314C331.162 76.1083 331.088 76.3661 331.03 76.6011C329.498 82.8654 308.446 85.3074 305.984 80.0115C304.433 76.6767 311.68 73.3401 312.762 63.3966C313.515 56.4743 310.896 49.8871 308.608 49.6613Z" fill="#2F2E41"/>
<path d="M245.132 53.343H68.5469V54.2487H245.132V53.343Z" fill="#E6E6E6"/>
<path d="M220.202 40.1013H93.4762C91.4798 40.1013 89.8555 38.4761 89.8555 36.4785C89.8555 34.4809 91.4798 32.8557 93.4762 32.8557H220.202C222.199 32.8557 223.823 34.4809 223.823 36.4785C223.823 38.4761 222.199 40.1013 220.202 40.1013Z" fill="#E6E6E6"/>
<path d="M68.9387 60.5506C73.1333 60.5506 76.5337 57.1483 76.5337 52.9513C76.5337 48.7544 73.1333 45.3521 68.9387 45.3521C64.7441 45.3521 61.3438 48.7544 61.3438 52.9513C61.3438 57.1483 64.7441 60.5506 68.9387 60.5506Z" fill="#E6E6E6"/>
<path d="M92.3079 44.183C96.5025 44.183 99.9029 40.7806 99.9029 36.5837C99.9029 32.3867 96.5025 28.9844 92.3079 28.9844C88.1133 28.9844 84.7129 32.3867 84.7129 36.5837C84.7129 40.7806 88.1133 44.183 92.3079 44.183Z" fill="#E6E6E6"/>
<path d="M185.542 138.104H8.95703V139.01H185.542V138.104Z" fill="#3F3D56"/>
<path d="M160.613 124.863H33.8864C31.8899 124.863 30.2656 123.237 30.2656 121.24C30.2656 119.242 31.8899 117.617 33.8864 117.617H160.613C162.609 117.617 164.233 119.242 164.233 121.24C164.233 123.237 162.609 124.863 160.613 124.863Z" fill="#6C63FF"/>
<path d="M7.59499 145.312C11.7896 145.312 15.19 141.91 15.19 137.713C15.19 133.516 11.7896 130.113 7.59499 130.113C3.40039 130.113 0 133.516 0 137.713C0 141.91 3.40039 145.312 7.59499 145.312Z" fill="#6C63FF"/>
<path d="M30.9641 128.944C35.1587 128.944 38.5591 125.542 38.5591 121.345C38.5591 117.148 35.1587 113.746 30.9641 113.746C26.7695 113.746 23.3691 117.148 23.3691 121.345C23.3691 125.542 26.7695 128.944 30.9641 128.944Z" fill="#6C63FF"/>
<path d="M206.573 231.634H29.9883V232.54H206.573V231.634Z" fill="#E6E6E6"/>
<path d="M181.646 218.392H54.9196C52.9231 218.392 51.2988 216.767 51.2988 214.77C51.2988 212.772 52.9231 211.147 54.9196 211.147H181.646C183.642 211.147 185.266 212.772 185.266 214.77C185.266 216.767 183.642 218.392 181.646 218.392Z" fill="#E6E6E6"/>
<path d="M51.4134 221.89C55.608 221.89 59.0083 218.487 59.0083 214.29C59.0083 210.093 55.608 206.691 51.4134 206.691C47.2188 206.691 43.8184 210.093 43.8184 214.29C43.8184 218.487 47.2188 221.89 51.4134 221.89Z" fill="#E6E6E6"/>
<path d="M28.6282 239.426C32.8228 239.426 36.2232 236.024 36.2232 231.827C36.2232 227.63 32.8228 224.228 28.6282 224.228C24.4336 224.228 21.0332 227.63 21.0332 231.827C21.0332 236.024 24.4336 239.426 28.6282 239.426Z" fill="#E6E6E6"/>
</g>
<defs>
<clipPath id="clip0_311_1986">
<rect width="460" height="338" fill="white"/>
</clipPath>
</defs>
</svg>
