<svg width="441" height="321" viewBox="0 0 441 321" fill="none" xmlns="http://www.w3.org/2000/svg">
<g clip-path="url(#clip0_279_3200)">
<path d="M238.643 59.7796C238.534 72.2191 237.626 84.6385 235.925 96.9607C235.865 97.3934 235.8 97.8261 235.74 98.2588L119.665 97.6079C119.324 97.1782 118.989 96.7432 118.664 96.3031C117.58 94.8466 116.564 93.3486 115.632 91.799C111.151 84.3335 109.099 75.593 111.155 69.5625L111.192 69.4688C111.635 68.1483 112.335 66.9287 113.25 65.8802C117.937 60.5845 127.415 61.4673 136.016 65.7418C128.301 57.2669 122.159 46.5728 121.692 37.0272C121.234 27.7164 126.085 21.0651 131.347 15.4126C131.519 15.2258 131.692 15.0441 131.865 14.8625C131.948 14.769 132.037 14.6808 132.121 14.5873C136.226 10.2797 141.012 6.03337 147.939 6.54704C155.536 7.1114 163.959 13.498 169.865 20.9401C175.771 28.3771 179.696 36.8255 183.674 45.0707C187.657 53.3108 191.967 61.7614 198.359 68.8045C189.701 57.8147 182.721 45.3107 180.143 33.1496C177.565 20.9885 179.834 9.30861 187.549 3.58119C189.892 1.89601 192.602 0.798386 195.454 0.380173C195.787 0.324654 196.125 0.279585 196.469 0.23976C203.611 -0.57585 212.139 1.90336 219.395 7.8295C227.385 14.3546 232.925 24.0278 235.682 33.2106C238.438 42.3934 238.732 51.2337 238.643 59.7796Z" fill="#F2F2F2"/>
<path d="M162.699 97.8493L160.48 97.8368C159.775 97.3946 159.067 96.9576 158.355 96.5257C157.915 96.2467 157.469 95.9781 157.024 95.7043C149.661 91.1915 142.253 86.8628 134.798 82.7183C127.351 78.5703 119.866 74.6133 112.343 70.8475C112.144 70.7604 111.981 70.6059 111.883 70.4109C111.786 70.2159 111.759 69.9927 111.808 69.7801C111.816 69.7523 111.829 69.7259 111.845 69.7021C111.95 69.5044 112.185 69.4222 112.527 69.5911C113.45 70.0554 114.378 70.5198 115.3 70.9946C122.843 74.8248 130.354 78.8462 137.833 83.0588C145.306 87.2696 152.736 91.6662 160.124 96.2487C160.28 96.3435 160.435 96.4435 160.591 96.5383C161.295 96.9753 161.995 97.4123 162.699 97.8493Z" fill="white"/>
<path d="M191.318 98.0097L189.946 98.002C189.636 97.5673 189.332 97.1325 189.022 96.6977C181.749 86.4617 174.477 76.2257 167.207 65.9897C155.302 49.2318 143.4 32.474 131.501 15.7161C131.431 15.6259 131.378 15.5228 131.347 15.4126C131.245 15.0416 131.517 14.824 131.865 14.8624C132.011 14.8835 132.152 14.9357 132.277 15.0155C132.402 15.0954 132.509 15.2011 132.59 15.3257C139.265 24.7235 145.938 34.1178 152.61 43.5087C164.453 60.1827 176.295 76.855 188.135 93.5256C188.889 94.5838 189.642 95.6472 190.395 96.7054C190.704 97.1402 191.014 97.575 191.318 98.0097Z" fill="white"/>
<path d="M221.896 90.0104C221.826 92.3319 221.672 94.6164 221.473 96.8797C221.434 97.3125 221.395 97.7454 221.356 98.1782L219.916 98.1701C219.96 97.7373 220.004 97.3045 220.043 96.8716C220.347 93.6019 220.563 90.2952 220.592 86.8987C220.631 77.4819 219.716 68.0857 217.863 58.8544C215.894 48.9147 213.065 39.1661 209.411 29.7188C205.575 19.7549 200.951 10.1152 195.582 0.892202C195.48 0.741882 195.435 0.560545 195.454 0.38017C195.514 -0.031707 196.06 -0.153854 196.469 0.239756C196.55 0.31698 196.619 0.405181 196.675 0.501787C197.34 1.64817 197.992 2.79797 198.632 3.95118C203.803 13.2254 208.229 22.8985 211.868 32.8788C215.334 42.357 217.971 52.1204 219.748 62.0581C221.413 71.2776 222.132 80.6439 221.896 90.0104Z" fill="white"/>
<path d="M320.096 97.2933H4.53315C3.3312 97.2944 2.17878 97.7741 1.32888 98.6271C0.478985 99.4801 0.00105442 100.637 0 101.843V316.45C0.00105442 317.657 0.478985 318.813 1.32888 319.666C2.17878 320.519 3.3312 320.999 4.53315 321H320.096C320.752 321 321.399 320.857 321.994 320.582C322.589 320.306 323.118 319.904 323.543 319.403C323.579 319.364 323.612 319.322 323.642 319.278C323.912 318.946 324.132 318.575 324.292 318.177C324.52 317.63 324.636 317.043 324.635 316.45V101.843C324.633 100.636 324.155 99.4786 323.304 98.6255C322.453 97.7724 321.299 97.2932 320.096 97.2933ZM323.34 316.45C323.341 317.085 323.154 317.706 322.805 318.235C322.494 318.7 322.072 319.08 321.578 319.341C321.12 319.578 320.612 319.702 320.096 319.701H4.53315C3.67449 319.7 2.85129 319.357 2.24412 318.748C1.63695 318.138 1.29538 317.312 1.29434 316.45V101.843C1.29538 100.981 1.63695 100.155 2.24412 99.5457C2.85129 98.9363 3.67449 98.5935 4.53315 98.5925H320.096C320.956 98.5924 321.78 98.9346 322.388 99.5441C322.997 100.154 323.339 100.98 323.34 101.843V316.45Z" fill="#3F3D56"/>
<path d="M323.985 115.528H0.646484V116.829H323.985V115.528Z" fill="#3F3D56"/>
<path d="M11.6613 110.95C13.8085 110.95 15.5491 109.203 15.5491 107.048C15.5491 104.893 13.8085 103.146 11.6613 103.146C9.51408 103.146 7.77344 104.893 7.77344 107.048C7.77344 109.203 9.51408 110.95 11.6613 110.95Z" fill="#3F3D56"/>
<path d="M22.839 110.95C24.9862 110.95 26.7269 109.203 26.7269 107.048C26.7269 104.893 24.9862 103.146 22.839 103.146C20.6918 103.146 18.9512 104.893 18.9512 107.048C18.9512 109.203 20.6918 110.95 22.839 110.95Z" fill="#3F3D56"/>
<path d="M34.0167 110.95C36.1639 110.95 37.9046 109.203 37.9046 107.048C37.9046 104.893 36.1639 103.146 34.0167 103.146C31.8696 103.146 30.1289 104.893 30.1289 107.048C30.1289 109.203 31.8696 110.95 34.0167 110.95Z" fill="#3F3D56"/>
<path d="M243.467 145.635H81.2662C79.4737 145.635 77.7547 144.92 76.4873 143.648C75.2199 142.376 74.5078 140.651 74.5078 138.852C74.5078 137.053 75.2199 135.328 76.4873 134.056C77.7547 132.784 79.4737 132.069 81.2662 132.069H243.467C245.259 132.069 246.978 132.784 248.245 134.056C249.513 135.328 250.225 137.053 250.225 138.852C250.225 140.651 249.513 142.376 248.245 143.648C246.978 144.92 245.259 145.635 243.467 145.635ZM81.2662 133.113C79.7495 133.113 78.2949 133.717 77.2225 134.794C76.15 135.87 75.5476 137.33 75.5476 138.852C75.5476 140.374 76.15 141.834 77.2225 142.91C78.2949 143.987 79.7495 144.591 81.2662 144.591H243.467C244.983 144.591 246.438 143.987 247.51 142.91C248.583 141.834 249.185 140.374 249.185 138.852C249.185 137.33 248.583 135.87 247.51 134.794C246.438 133.717 244.983 133.113 243.467 133.113H81.2662Z" fill="#3F3D56"/>
<path d="M94.7334 225.263H32.3486C30.0055 225.261 27.759 224.325 26.1022 222.663C24.4454 221 23.5134 218.745 23.5107 216.394V187.176C23.5134 184.824 24.4454 182.569 26.1022 180.907C27.759 179.244 30.0055 178.308 32.3486 178.306H94.7334C97.0765 178.308 99.3229 179.244 100.98 180.907C102.637 182.569 103.569 184.824 103.571 187.176V216.394C103.569 218.745 102.637 221 100.98 222.663C99.3229 224.325 97.0765 225.261 94.7334 225.263Z" fill="#6C63FF"/>
<path d="M193.51 225.263H131.125C128.782 225.261 126.535 224.325 124.879 222.663C123.222 221 122.29 218.745 122.287 216.394V187.176C122.29 184.824 123.222 182.569 124.879 180.907C126.535 179.244 128.782 178.308 131.125 178.306H193.51C195.853 178.308 198.099 179.244 199.756 180.907C201.413 182.569 202.345 184.824 202.348 187.176V216.394C202.345 218.745 201.413 221 199.756 222.663C198.099 224.325 195.853 225.261 193.51 225.263Z" fill="#6C63FF"/>
<path d="M292.286 225.263H229.901C227.558 225.261 225.312 224.325 223.655 222.663C221.998 221 221.066 218.745 221.063 216.394V187.176C221.066 184.824 221.998 182.569 223.655 180.907C225.312 179.244 227.558 178.308 229.901 178.306H292.286C294.629 178.308 296.876 179.244 298.532 180.907C300.189 182.569 301.121 184.824 301.124 187.176V216.394C301.121 218.745 300.189 221 298.532 222.663C296.876 224.325 294.629 225.261 292.286 225.263Z" fill="#6C63FF"/>
<path d="M94.7334 286.83H32.3486C30.0055 286.828 27.759 285.892 26.1022 284.229C24.4454 282.567 23.5134 280.312 23.5107 277.96V248.742C23.5134 246.391 24.4454 244.136 26.1022 242.473C27.759 240.811 30.0055 239.875 32.3486 239.873H94.7334C97.0765 239.875 99.3229 240.811 100.98 242.473C102.637 244.136 103.569 246.391 103.571 248.742V277.96C103.569 280.312 102.637 282.567 100.98 284.229C99.3229 285.892 97.0765 286.828 94.7334 286.83Z" fill="#6C63FF"/>
<path d="M193.51 286.83H131.125C128.782 286.828 126.535 285.892 124.879 284.229C123.222 282.567 122.29 280.312 122.287 277.96V248.742C122.29 246.391 123.222 244.136 124.879 242.473C126.535 240.811 128.782 239.875 131.125 239.873H193.51C195.853 239.875 198.099 240.811 199.756 242.473C201.413 244.136 202.345 246.391 202.348 248.742V277.96C202.345 280.312 201.413 282.567 199.756 284.229C198.099 285.892 195.853 286.828 193.51 286.83Z" fill="#6C63FF"/>
<path d="M292.286 286.83H229.901C227.558 286.828 225.312 285.892 223.655 284.229C221.998 282.567 221.066 280.312 221.063 277.96V248.742C221.066 246.391 221.998 244.136 223.655 242.473C225.312 240.811 227.558 239.875 229.901 239.873H292.286C294.629 239.875 296.876 240.811 298.532 242.473C300.189 244.136 301.121 246.391 301.124 248.742V277.96C301.121 280.312 300.189 282.567 298.532 284.229C296.876 285.892 294.629 286.828 292.286 286.83Z" fill="#6C63FF"/>
<path d="M362.411 147.001C371.886 147.001 379.567 139.292 379.567 129.783C379.567 120.274 371.886 112.565 362.411 112.565C352.936 112.565 345.255 120.274 345.255 129.783C345.255 139.292 352.936 147.001 362.411 147.001Z" fill="#2F2E41"/>
<path d="M319.432 219.351C319.052 218.626 318.835 217.826 318.796 217.008C318.758 216.189 318.898 215.372 319.208 214.614C319.518 213.856 319.99 213.175 320.59 212.62C321.19 212.065 321.905 211.648 322.683 211.4L344.422 165.246L354.366 172.245L329.87 215.412C330.199 216.751 330.027 218.165 329.387 219.386C328.746 220.607 327.682 221.549 326.395 222.035C325.108 222.52 323.689 222.515 322.406 222.021C321.122 221.526 320.064 220.577 319.432 219.351Z" fill="#FFB8B8"/>
<path d="M338.061 171.374C337.957 171.028 337.929 170.664 337.979 170.306C338.028 169.948 338.154 169.606 338.348 169.301L345.107 158.667C345.858 156.98 347.245 155.661 348.964 154.999C350.683 154.337 352.593 154.386 354.276 155.135C355.959 155.885 357.277 157.273 357.942 158.996C358.606 160.719 358.563 162.637 357.821 164.328L354.416 176.512C354.319 176.86 354.148 177.183 353.916 177.458C353.683 177.734 353.394 177.956 353.068 178.109C352.742 178.262 352.387 178.343 352.028 178.347C351.668 178.35 351.311 178.275 350.983 178.128L339.437 172.946C339.109 172.799 338.815 172.582 338.578 172.311C338.34 172.04 338.164 171.72 338.061 171.374Z" fill="#6C63FF"/>
<path d="M392.759 223.927C391.964 223.742 391.219 223.384 390.576 222.878C389.934 222.372 389.41 221.732 389.041 221.001C388.672 220.27 388.467 219.466 388.441 218.647C388.414 217.828 388.567 217.014 388.889 216.26L368.301 169.578L380.078 166.601L396.612 213.424C397.837 214.05 398.791 215.105 399.293 216.39C399.794 217.674 399.809 219.099 399.334 220.393C398.859 221.688 397.927 222.763 396.716 223.414C395.504 224.065 394.096 224.248 392.759 223.927Z" fill="#FFB8B8"/>
<path d="M398.37 308.543L392.382 310.731L381.121 288.589L389.96 285.359L398.37 308.543Z" fill="#FFB8B8"/>
<path d="M387.481 310.577L399.031 306.357L401.679 313.655L382.857 320.533C382.509 319.575 382.353 318.557 382.397 317.538C382.441 316.519 382.685 315.518 383.115 314.594C383.544 313.669 384.151 312.839 384.9 312.15C385.649 311.461 386.526 310.926 387.481 310.577Z" fill="#2F2E41"/>
<path d="M382.022 294.537L359.206 254.465C358.986 254.078 358.872 253.638 358.877 253.192C358.882 252.745 359.005 252.308 359.233 251.925L369.507 234.74C369.751 234.333 370.105 234.003 370.528 233.789C370.951 233.575 371.425 233.486 371.897 233.532C372.368 233.578 372.817 233.757 373.191 234.049C373.565 234.34 373.849 234.732 374.01 235.18L393.434 289.164C393.648 289.752 393.635 290.399 393.397 290.977C393.16 291.555 392.715 292.024 392.151 292.289L385.268 295.561C384.936 295.719 384.573 295.801 384.206 295.801C383.763 295.801 383.328 295.685 382.945 295.463C382.562 295.241 382.243 294.922 382.022 294.537Z" fill="#2F2E41"/>
<path d="M360.85 148.595C367.902 148.595 373.618 142.858 373.618 135.78C373.618 128.703 367.902 122.966 360.85 122.966C353.798 122.966 348.081 128.703 348.081 135.78C348.081 142.858 353.798 148.595 360.85 148.595Z" fill="#FFB8B8"/>
<path d="M342.687 193.826C332.632 171.449 342.769 158.942 347.594 154.604C348.984 153.353 350.786 152.661 352.653 152.663H370.64C371.932 152.663 373.202 152.994 374.33 153.625C375.458 154.256 376.407 155.167 377.086 156.269C377.765 157.372 378.152 158.631 378.21 159.926C378.268 161.221 377.995 162.509 377.418 163.669L365.393 187.804L342.785 194.044L342.687 193.826Z" fill="#6C63FF"/>
<path d="M369.002 177.944C368.673 177.797 368.38 177.58 368.143 177.308C367.906 177.037 367.729 176.717 367.626 176.371L364.027 164.286C363.247 162.613 363.16 160.698 363.785 158.96C364.41 157.223 365.695 155.805 367.36 155.017C369.024 154.229 370.932 154.135 372.666 154.756C374.399 155.378 375.816 156.663 376.607 158.331L383.568 168.882C383.767 169.183 383.898 169.524 383.954 169.881C384.01 170.238 383.988 170.602 383.891 170.95C383.793 171.298 383.622 171.62 383.39 171.895C383.157 172.171 382.868 172.393 382.542 172.546L371.087 177.927C370.761 178.08 370.406 178.161 370.046 178.164C369.686 178.167 369.33 178.092 369.002 177.944Z" fill="#6C63FF"/>
<path d="M357.229 314.593L350.855 314.593L347.823 289.92L357.23 289.921L357.229 314.593Z" fill="#FFB8B8"/>
<path d="M346.303 312.765H358.595V320.533H338.563C338.563 319.513 338.764 318.503 339.153 317.56C339.542 316.618 340.112 315.762 340.83 315.04C341.549 314.319 342.402 313.747 343.341 313.357C344.28 312.966 345.286 312.765 346.303 312.765Z" fill="#2F2E41"/>
<path d="M354.529 305.175L344.324 303.993C343.994 303.955 343.675 303.851 343.385 303.688C343.095 303.524 342.841 303.304 342.636 303.041C342.432 302.778 342.282 302.476 342.195 302.154C342.108 301.832 342.085 301.496 342.129 301.165L351.236 232.346C351.268 232.106 351.255 231.863 351.199 231.628L342.045 193.725C341.958 193.376 341.948 193.011 342.016 192.658C342.084 192.304 342.227 191.969 342.437 191.677C343.856 189.713 348.72 185.136 363.187 185.049H363.203C363.684 185.049 364.156 185.188 364.561 185.45C364.967 185.711 365.288 186.084 365.489 186.524L367.418 190.784C367.562 191.101 367.787 191.373 368.07 191.574C370.726 193.461 383.594 204.053 376.038 227.308C368.612 250.164 359.097 294.538 357.265 303.201C357.148 303.764 356.842 304.27 356.397 304.632C355.952 304.995 355.396 305.192 354.823 305.191C354.725 305.191 354.626 305.186 354.529 305.175Z" fill="#2F2E41"/>
<path d="M374.267 127.72C371.349 129.738 367.886 130.812 364.342 130.798C365.606 131.678 367.045 132.272 368.56 132.54C363.848 133.554 358.979 133.582 354.256 132.621C353.207 132.452 352.194 132.102 351.262 131.588C350.798 131.328 350.393 130.973 350.075 130.545C349.756 130.118 349.531 129.628 349.414 129.108C349.1 127.308 350.497 125.674 351.949 124.572C354.171 122.911 356.734 121.767 359.452 121.222C362.169 120.677 364.973 120.745 367.662 121.421C369.417 121.876 371.175 122.645 372.315 124.06C373.455 125.475 373.793 127.656 372.707 129.112L374.267 127.72Z" fill="#2F2E41"/>
<path d="M365.741 118.806C364.282 118.318 362.781 117.807 361.626 116.79C360.47 115.773 359.736 114.109 360.256 112.657C360.756 111.258 362.281 110.44 363.758 110.33C365.236 110.22 366.689 110.679 368.1 111.133C367.462 110.165 366.803 108.29 366.226 106.311C364.91 101.797 370.396 97.6748 375.07 98.015C375.207 98.0251 375.341 98.0394 375.47 98.0582C380.183 98.7483 382.628 100.553 385.919 104.008C390.037 108.33 392.191 114.162 393.633 119.964C395.075 125.766 395.922 131.737 397.95 137.36C399.979 142.982 403.4 148.388 408.632 151.25C411.497 152.765 414.723 153.461 417.955 153.261C421.188 153.061 424.304 151.973 426.962 150.116C427.324 152.585 427.101 155.105 426.312 157.472C425.522 159.839 424.188 161.985 422.417 163.738C420.646 165.49 418.489 166.799 416.12 167.558C413.751 168.318 411.237 168.506 408.781 168.108C402.027 167.013 396.617 161.554 393.727 155.33C390.837 149.106 390.048 142.139 389.323 135.312C388.598 128.484 387.863 121.52 385.068 115.253C383.936 112.716 382.27 110.135 379.293 109.73C378.516 109.603 377.718 109.736 377.024 110.11C376.33 110.483 375.778 111.076 375.453 111.796C374.144 114.975 378.622 117.667 377.475 120.697C377.226 121.284 376.815 121.787 376.291 122.146C375.766 122.505 375.15 122.707 374.516 122.726C372.351 122.868 370.573 121.623 368.898 120.421C365.471 117.963 365.741 118.806 365.741 118.806Z" fill="#2F2E41"/>
<path d="M440.48 321H320.91C320.772 321 320.639 320.945 320.542 320.847C320.444 320.749 320.39 320.617 320.39 320.478C320.39 320.34 320.444 320.207 320.542 320.109C320.639 320.012 320.772 319.957 320.91 319.957H440.48C440.618 319.957 440.75 320.012 440.848 320.109C440.945 320.207 441 320.34 441 320.478C441 320.617 440.945 320.749 440.848 320.847C440.75 320.945 440.618 321 440.48 321Z" fill="#3F3D56"/>
</g>
<defs>
<clipPath id="clip0_279_3200">
<rect width="441" height="321" fill="white"/>
</clipPath>
</defs>
</svg>
