<svg width="492" height="376" viewBox="0 0 492 376" fill="none" xmlns="http://www.w3.org/2000/svg">
<g clip-path="url(#clip0_284_3394)">
<rect width="390.489" height="340.479" fill="white"/>
<path d="M239.291 53.1083C234.368 59.8624 230.582 67.3775 228.082 75.3562C225.851 82.3202 224.185 89.4535 223.1 96.6864C222.57 96.4771 222.048 96.2518 221.534 96.0022C216.808 93.7048 212.999 89.8695 210.73 85.1231C208.461 80.3766 207.866 74.9997 209.043 69.8707C210.219 64.7417 213.097 60.164 217.206 56.8854C221.315 53.6069 226.412 51.8213 231.666 51.8205C233.639 51.8172 235.605 52.0688 237.515 52.569C238.117 52.722 238.712 52.8991 239.291 53.1083Z" fill="#FF6584"/>
<path d="M24.214 321.935C25.8107 309.073 33.7673 296.401 46.0113 292.215C41.1826 305.454 41.1837 319.976 46.0143 333.213C47.8957 338.312 50.5183 343.786 48.7485 348.925C47.6474 352.122 44.9537 354.568 41.9426 356.097C38.9314 357.627 35.5896 358.356 32.2896 359.07L31.6401 359.608C26.4014 347.758 22.6174 334.796 24.214 321.935Z" fill="#E6E6E6"/>
<path d="M46.1333 292.459C39.0029 300.462 34.5712 310.513 33.4676 321.184C33.1893 323.477 33.2735 325.799 33.7171 328.066C34.2205 330.26 35.3012 332.279 36.8468 333.913C38.2575 335.466 39.8799 336.89 40.8892 338.759C41.3916 339.724 41.6849 340.784 41.7498 341.87C41.8147 342.956 41.6497 344.043 41.2656 345.061C40.3745 347.621 38.6182 349.708 36.8298 351.689C34.8441 353.889 32.7469 356.142 31.9028 359.058C31.8006 359.412 31.2593 359.232 31.3614 358.879C32.8299 353.806 37.7462 350.924 40.0908 346.354C41.1849 344.222 41.6441 341.746 40.6185 339.495C39.7216 337.527 38.0498 336.056 36.6079 334.497C35.0767 332.925 33.9531 331.001 33.3351 328.894C32.7777 326.657 32.6043 324.342 32.8224 322.047C33.231 316.872 34.4492 311.794 36.4324 306.999C38.6655 301.513 41.8188 296.451 45.756 292.03C45.9998 291.757 46.3755 292.187 46.1333 292.459Z" fill="white"/>
<path d="M33.6208 317.727C31.8588 317.299 30.3063 316.257 29.2405 314.787C28.1746 313.318 27.6649 311.517 27.8023 309.705C27.8313 309.339 28.401 309.367 28.3719 309.734C28.2409 311.42 28.7159 313.098 29.7112 314.464C30.7065 315.83 32.1565 316.795 33.7996 317.185C34.1565 317.27 33.9757 317.812 33.6208 317.727Z" fill="white"/>
<path d="M36.0275 333.22C39.2098 331.317 41.559 328.281 42.6066 324.72C42.7101 324.367 43.2515 324.546 43.1481 324.899C42.0509 328.603 39.5998 331.757 36.2839 333.73C35.9677 333.918 35.713 333.407 36.0275 333.22Z" fill="white"/>
<path d="M39.1945 302.054C39.8417 302.362 40.5552 302.505 41.2709 302.468C41.9866 302.432 42.682 302.218 43.2948 301.846C43.6085 301.654 43.8629 302.165 43.5513 302.356C42.8723 302.764 42.104 302.999 41.3133 303.041C40.5227 303.083 39.7338 302.931 39.0157 302.597C38.9453 302.571 38.8874 302.519 38.8538 302.452C38.8201 302.385 38.8131 302.308 38.8343 302.236C38.8583 302.164 38.9097 302.105 38.9771 302.071C39.0445 302.037 39.1227 302.031 39.1945 302.054Z" fill="white"/>
<path d="M83.333 315.188C83.1406 315.313 82.9481 315.438 82.7554 315.569C80.1768 317.267 77.7402 319.173 75.4697 321.267C75.2916 321.426 75.1134 321.59 74.9403 321.754C69.5237 326.857 65.1 332.924 61.894 339.645C60.6207 342.32 59.5525 345.089 58.6985 347.927C57.5194 351.847 56.5522 356.19 54.2181 359.396C53.9784 359.734 53.718 360.056 53.4385 360.36H32.3458C32.2979 360.336 32.2497 360.317 32.2015 360.293L31.3594 360.332C31.3932 360.182 31.4315 360.028 31.4653 359.878C31.4846 359.792 31.5086 359.705 31.5279 359.618C31.5422 359.56 31.5568 359.502 31.5664 359.449C31.5711 359.43 31.5761 359.411 31.5807 359.396C31.5904 359.343 31.6049 359.295 31.6146 359.247C31.8263 358.384 32.0444 357.521 32.269 356.658C32.269 356.653 32.269 356.653 32.2737 356.648C33.9221 350.056 36.3452 343.683 39.4923 337.663C39.5886 337.485 39.6847 337.302 39.7907 337.123C41.248 334.458 42.9203 331.917 44.7908 329.525C45.8193 328.219 46.9131 326.965 48.0681 325.77C51.0583 322.686 54.5141 320.093 58.3087 318.085C65.8739 314.084 74.6322 312.551 82.7172 314.995C82.9239 315.058 83.1262 315.12 83.333 315.188Z" fill="#E6E6E6"/>
<path d="M83.2852 315.456C72.7819 317.546 63.2029 322.898 55.9088 330.752C54.3086 332.415 52.98 334.32 51.972 336.398C51.0553 338.453 50.7048 340.717 50.9569 342.954C51.1501 345.044 51.5893 347.16 51.2719 349.261C51.0935 350.334 50.6906 351.358 50.0898 352.264C49.4889 353.17 48.7036 353.939 47.7854 354.52C45.535 356.027 42.8784 356.634 40.2599 357.137C37.3525 357.695 34.3237 358.23 31.8972 360.049C31.6032 360.269 31.279 359.799 31.5726 359.579C35.7943 356.414 41.4517 357.078 46.0701 354.844C48.2252 353.801 50.0796 352.101 50.6135 349.686C51.0803 347.573 50.6292 345.391 50.4153 343.276C50.1375 341.097 50.3964 338.883 51.1694 336.828C52.0686 334.706 53.3217 332.753 54.8751 331.052C58.3112 327.167 62.3357 323.847 66.8012 321.214C71.881 318.181 77.4413 316.041 83.2415 314.886C83.6005 314.815 83.6419 315.385 83.2852 315.456Z" fill="white"/>
<path d="M58.1087 328.085C56.9594 326.68 56.3461 324.911 56.3782 323.095C56.4102 321.279 57.0857 319.534 58.2839 318.17C58.5272 317.895 58.9653 318.261 58.7216 318.537C57.6035 319.804 56.9745 321.43 56.948 323.121C56.9216 324.812 57.4995 326.457 58.5774 327.759C58.8113 328.042 58.3413 328.366 58.1087 328.085Z" fill="white"/>
<path d="M50.7202 341.907C54.4051 342.306 58.1049 341.3 61.0819 339.088C61.3767 338.869 61.701 339.338 61.4066 339.557C58.3044 341.853 54.452 342.893 50.6184 342.469C50.253 342.428 50.3568 341.866 50.7202 341.907Z" fill="white"/>
<path d="M71.9788 318.932C72.3104 319.569 72.7946 320.113 73.3879 320.515C73.9813 320.918 74.6651 321.167 75.378 321.239C75.7438 321.275 75.6395 321.837 75.2762 321.801C74.4889 321.717 73.734 321.442 73.0775 320.998C72.421 320.555 71.8828 319.957 71.5101 319.258C71.4694 319.195 71.4543 319.118 71.4676 319.045C71.481 318.971 71.5219 318.905 71.5821 318.86C71.6444 318.817 71.721 318.801 71.7953 318.815C71.8696 318.828 71.9355 318.87 71.9788 318.932Z" fill="white"/>
<path d="M246.758 329.859C237.993 320.326 233.483 306.053 238.209 293.988C245.171 306.236 256.234 315.621 269.439 320.484C274.538 322.341 280.403 323.875 283.173 328.549C284.897 331.457 285.019 335.097 284.238 338.387C283.456 341.678 281.852 344.704 280.263 347.688L280.253 348.532C267.841 344.877 255.522 339.393 246.758 329.859Z" fill="#E6E6E6"/>
<path d="M238.473 294.053C239.961 304.676 244.752 314.56 252.166 322.301C253.733 323.995 255.557 325.432 257.57 326.558C259.566 327.591 261.803 328.07 264.046 327.944C266.141 327.87 268.274 327.55 270.35 327.987C271.41 328.226 272.407 328.687 273.276 329.339C274.145 329.991 274.866 330.82 275.393 331.772C276.768 334.108 277.222 336.799 277.575 339.447C277.967 342.386 278.328 345.446 280.004 347.976C280.207 348.282 279.72 348.58 279.517 348.274C276.602 343.872 277.584 338.251 275.619 333.506C274.702 331.291 273.113 329.34 270.736 328.669C268.657 328.083 266.456 328.41 264.336 328.504C262.149 328.659 259.958 328.274 257.953 327.385C255.889 326.365 254.014 325.001 252.407 323.351C248.729 319.695 245.649 315.481 243.278 310.866C240.543 305.613 238.725 299.931 237.903 294.064C237.852 293.701 238.422 293.692 238.473 294.053Z" fill="white"/>
<path d="M249.632 319.949C248.167 321.019 246.37 321.532 244.562 321.397C242.754 321.262 241.053 320.488 239.762 319.212C239.501 318.953 239.891 318.536 240.152 318.795C241.351 319.985 242.936 320.707 244.62 320.829C246.304 320.951 247.976 320.466 249.335 319.462C249.63 319.244 249.926 319.732 249.632 319.949Z" fill="white"/>
<path d="M262.989 328.123C263.596 324.46 262.803 320.702 260.767 317.599C260.565 317.292 261.052 316.994 261.253 317.301C263.366 320.534 264.184 324.446 263.544 328.256C263.482 328.619 262.928 328.484 262.989 328.123Z" fill="white"/>
<path d="M241.297 305.559C241.95 305.263 242.519 304.81 242.954 304.239C243.389 303.668 243.676 302.999 243.788 302.29C243.845 301.926 244.399 302.062 244.343 302.423C244.215 303.206 243.897 303.945 243.418 304.577C242.939 305.208 242.313 305.713 241.595 306.046C241.529 306.083 241.453 306.094 241.38 306.076C241.307 306.059 241.244 306.014 241.203 305.951C241.163 305.887 241.151 305.809 241.169 305.736C241.187 305.662 241.233 305.599 241.297 305.559Z" fill="white"/>
<path d="M279.828 280.306C279.8 280.534 279.771 280.763 279.745 280.994C279.373 284.063 279.249 287.157 279.377 290.246C279.383 290.485 279.393 290.728 279.405 290.966C279.792 298.405 281.553 305.707 284.601 312.502C285.816 315.205 287.234 317.811 288.844 320.298C291.067 323.733 293.751 327.279 294.684 331.136C294.786 331.537 294.863 331.944 294.915 332.355L281.282 348.479C281.233 348.5 281.187 348.524 281.137 348.545L280.622 349.214C280.53 349.092 280.438 348.963 280.346 348.84C280.292 348.769 280.242 348.695 280.188 348.624C280.153 348.576 280.118 348.527 280.084 348.486C280.073 348.47 280.061 348.453 280.053 348.44C280.019 348.399 279.992 348.356 279.961 348.318C279.441 347.598 278.924 346.874 278.412 346.144C278.408 346.141 278.408 346.141 278.408 346.135C274.452 340.614 271.164 334.643 268.613 328.346C268.539 328.157 268.461 327.965 268.394 327.769C267.306 324.932 266.451 322.012 265.839 319.036C265.508 317.405 265.26 315.759 265.096 314.103C264.68 309.824 264.938 305.507 265.862 301.308C267.703 292.939 272.196 285.253 279.284 280.652C279.465 280.535 279.643 280.421 279.828 280.306Z" fill="#E6E6E6"/>
<path d="M280.002 280.516C274.805 289.896 272.691 300.677 273.959 311.33C274.191 313.628 274.784 315.875 275.715 317.988C276.688 320.017 278.186 321.748 280.052 323.001C281.77 324.205 283.665 325.236 285.06 326.837C285.763 327.667 286.282 328.636 286.583 329.681C286.885 330.726 286.963 331.824 286.812 332.901C286.506 335.595 285.251 338.018 283.942 340.345C282.488 342.929 280.938 345.589 280.755 348.62C280.733 348.987 280.165 348.931 280.187 348.565C280.505 343.292 284.668 339.396 285.95 334.422C286.549 332.1 286.453 329.584 284.958 327.615C283.651 325.892 281.697 324.827 279.948 323.623C278.109 322.427 276.59 320.799 275.524 318.879C274.489 316.821 273.811 314.6 273.519 312.313C272.781 307.176 272.853 301.954 273.734 296.838C274.707 290.995 276.671 285.361 279.54 280.181C279.718 279.861 280.179 280.197 280.002 280.516Z" fill="white"/>
<path d="M273.349 307.924C271.536 307.894 269.793 307.22 268.43 306.022C267.068 304.823 266.175 303.179 265.911 301.382C265.858 301.018 266.42 300.92 266.473 301.284C266.715 302.958 267.547 304.49 268.818 305.603C270.089 306.716 271.716 307.338 273.404 307.355C273.771 307.359 273.714 307.928 273.349 307.924Z" fill="white"/>
<path d="M279.102 322.506C281.788 319.947 283.412 316.468 283.652 312.763C283.675 312.396 284.243 312.452 284.219 312.818C283.963 316.674 282.265 320.291 279.464 322.947C279.197 323.2 278.836 322.757 279.102 322.506Z" fill="white"/>
<path d="M275.342 291.406C276.041 291.564 276.769 291.545 277.459 291.352C278.149 291.159 278.78 290.797 279.296 290.299C279.56 290.042 279.921 290.485 279.659 290.74C279.086 291.287 278.388 291.686 277.626 291.902C276.864 292.117 276.061 292.142 275.287 291.975C275.213 291.965 275.145 291.927 275.097 291.87C275.05 291.812 275.026 291.738 275.031 291.663C275.039 291.588 275.076 291.518 275.134 291.47C275.192 291.422 275.267 291.399 275.342 291.406Z" fill="white"/>
<path d="M161.281 309.899C169.042 309.899 175.335 303.596 175.335 295.82C175.335 288.044 169.042 281.741 161.281 281.741C153.519 281.741 147.227 288.044 147.227 295.82C147.227 303.596 153.519 309.899 161.281 309.899Z" fill="#F2F2F2"/>
<path d="M150.835 174.204C153.723 174.204 156.063 171.859 156.063 168.967C156.063 166.074 153.723 163.729 150.835 163.729C147.948 163.729 145.607 166.074 145.607 168.967C145.607 171.859 147.948 174.204 150.835 174.204Z" fill="#6C63FF"/>
<path d="M78.9427 232.656C81.83 232.656 84.1705 230.312 84.1705 227.419C84.1705 224.527 81.83 222.182 78.9427 222.182C76.0554 222.182 73.7148 224.527 73.7148 227.419C73.7148 230.312 76.0554 232.656 78.9427 232.656Z" fill="#F0F0F0"/>
<path d="M388.312 0H2.1613C1.58856 0.00155084 1.03972 0.230179 0.634728 0.635902C0.229739 1.04163 0.00153536 1.59145 7.2254e-08 2.16522V14.907C-0.000147993 15.4821 0.227276 16.0337 0.632398 16.4411C1.03752 16.8484 1.5873 17.0783 2.1613 17.0803H388.312C388.886 17.0783 389.435 16.8484 389.84 16.4411C390.246 16.0337 390.473 15.4821 390.473 14.907V2.16522C390.471 1.59145 390.243 1.04161 389.838 0.63589C389.433 0.230167 388.884 0.00154867 388.312 0Z" fill="#6C63FF"/>
<path d="M12.5542 10.9927C14.2502 10.9927 15.6251 9.61543 15.6251 7.91642C15.6251 6.21741 14.2502 4.84009 12.5542 4.84009C10.8583 4.84009 9.4834 6.21741 9.4834 7.91642C9.4834 9.61543 10.8583 10.9927 12.5542 10.9927Z" fill="white"/>
<path d="M24.2105 10.9927C25.9064 10.9927 27.2813 9.61543 27.2813 7.91642C27.2813 6.21741 25.9064 4.84009 24.2105 4.84009C22.5145 4.84009 21.1396 6.21741 21.1396 7.91642C21.1396 9.61543 22.5145 10.9927 24.2105 10.9927Z" fill="white"/>
<path d="M35.8667 10.9927C37.5627 10.9927 38.9376 9.61543 38.9376 7.91642C38.9376 6.21741 37.5627 4.84009 35.8667 4.84009C34.1708 4.84009 32.7959 6.21741 32.7959 7.91642C32.7959 9.61543 34.1708 10.9927 35.8667 10.9927Z" fill="white"/>
<path d="M376.894 3.80725H363.468C363.205 3.80725 362.952 3.91198 362.766 4.09841C362.58 4.28483 362.476 4.53768 362.476 4.80132C362.476 5.06497 362.58 5.31781 362.766 5.50423C362.952 5.69066 363.205 5.79539 363.468 5.79539H376.894C377.157 5.79539 377.409 5.69066 377.596 5.50423C377.782 5.31781 377.886 5.06497 377.886 4.80132C377.886 4.53768 377.782 4.28483 377.596 4.09841C377.409 3.91198 377.157 3.80725 376.894 3.80725Z" fill="white"/>
<path d="M376.894 7.54205H363.468C363.205 7.54205 362.952 7.64679 362.766 7.83321C362.58 8.01964 362.476 8.27248 362.476 8.53612C362.476 8.79977 362.58 9.05262 362.766 9.23905C362.952 9.42547 363.205 9.53019 363.468 9.53019H376.894C377.157 9.53019 377.409 9.42547 377.596 9.23905C377.782 9.05262 377.886 8.79977 377.886 8.53612C377.886 8.27248 377.782 8.01964 377.596 7.83321C377.409 7.64679 377.157 7.54205 376.894 7.54205Z" fill="white"/>
<path d="M376.894 11.2769H363.468C363.204 11.2769 362.95 11.382 362.763 11.5692C362.577 11.7564 362.472 12.0102 362.472 12.2749C362.472 12.5397 362.577 12.7935 362.763 12.9807C362.95 13.1679 363.204 13.273 363.468 13.273H376.894C377.158 13.273 377.412 13.1679 377.599 12.9807C377.785 12.7935 377.89 12.5397 377.89 12.2749C377.89 12.0102 377.785 11.7564 377.599 11.5692C377.412 11.382 377.158 11.2769 376.894 11.2769Z" fill="white"/>
<path d="M14.442 111.101C13.3268 111.105 12.4245 112.556 12.4268 114.342C12.429 116.123 13.33 117.566 14.442 117.569H165.884C167 117.566 167.902 116.115 167.9 114.329C167.897 112.548 166.996 111.105 165.884 111.101H14.442Z" fill="#E6E6E6"/>
<path d="M14.442 129.841C13.3268 129.845 12.4245 131.296 12.4268 133.082C12.429 134.863 13.33 136.306 14.442 136.309H165.884C167 136.306 167.902 134.855 167.9 133.069C167.897 131.288 166.996 129.845 165.884 129.841H14.442Z" fill="#E6E6E6"/>
<path d="M14.442 148.355C13.3268 148.359 12.4245 149.809 12.4268 151.595C12.429 153.377 13.33 154.82 14.442 154.823H111.65C112.765 154.82 113.667 153.369 113.665 151.583C113.663 149.802 112.762 148.359 111.65 148.355H14.442Z" fill="#E6E6E6"/>
<path d="M3.5459 355.265C3.59689 355.149 3.65509 355.038 3.70795 354.923C3.8014 353.958 3.5459 355.265 3.5459 355.265Z" fill="#F2F2F2"/>
<path d="M31.0592 340.688C29.1414 340.687 27.2259 340.825 25.3282 341.103L25.0544 341.143C18.9814 342.118 13.4726 345.28 9.56274 350.036C5.65283 354.792 3.61084 360.815 3.82032 366.973L3.8929 369.289C3.94076 370.754 3.99173 372.328 4.03374 374.075C4.03876 374.481 4.20373 374.869 4.49276 375.154C4.78179 375.439 5.1715 375.599 5.57714 375.597H312.568C334.213 375.369 355.779 375.082 376.663 374.744C380.596 374.757 384.522 374.404 388.39 373.69C394.194 372.499 398.222 370.137 400.707 366.469C403.796 361.921 403.894 356.194 403.707 349.723C403.326 336.657 402.949 322.931 402.572 309.247C402.24 297.186 401.909 285.158 401.577 273.643C401.373 266.809 400.918 260.777 397.409 256.166C393.607 251.181 386.672 248.653 376.798 248.653C376.678 248.653 376.56 248.653 376.439 248.654C345.493 248.845 314.83 267.305 300.139 294.589C298.447 297.73 296.871 301.094 295.346 304.347C293.176 309.229 290.718 313.976 287.985 318.565C286.561 320.896 284.934 323.096 283.123 325.141C283.004 325.284 282.867 325.437 282.723 325.583C282.392 325.956 282.047 326.316 281.711 326.637C279.856 328.52 277.772 330.163 275.51 331.527L275.292 331.654C275.129 331.755 274.951 331.857 274.774 331.95C273.543 332.636 272.263 333.23 270.944 333.725C265.344 335.866 258.976 336.38 252.019 335.249C245.417 334.11 239.055 331.86 233.201 328.597C226.758 325.064 220.727 320.66 214.895 316.401C212.333 314.53 209.683 312.595 207.037 310.762C206.539 310.417 206.05 310.08 205.553 309.743C202.322 307.558 199.391 305.753 196.596 304.226C190.009 300.534 182.75 298.202 175.249 297.366C167.552 296.635 160.77 298.014 155.094 301.455C153.471 302.444 151.944 303.585 150.535 304.862C143.813 310.918 139.669 319.855 135.662 328.499C130.677 339.25 125.523 350.367 115.344 356.131C103.599 362.787 86.4556 360.022 74.3265 355.213C70.5132 353.7 66.7045 351.961 63.021 350.278C61.5333 349.598 60.0456 348.919 58.5548 348.252C55.6273 346.941 53.2314 345.936 51.0148 345.088L50.3137 344.818C49.9237 344.671 49.5334 344.524 49.1359 344.384C46.68 343.479 44.1767 342.709 41.6371 342.077L41.0659 341.932C39.9207 341.671 38.85 341.453 37.7994 341.27L37.38 341.197C35.2903 340.856 33.1765 340.686 31.0592 340.688Z" fill="#E6E6E6"/>
<path d="M203.087 341.068C197.978 321.818 209.324 303.056 222.581 290.067C229.647 283.144 237.515 277.127 245.189 270.911C252.551 265.012 259.563 258.686 266.188 251.966C278.979 238.85 290.138 223.86 297.527 207.011C304.554 190.988 307.876 173.534 306.23 156.051C304.67 139.47 298.737 123.16 287.824 110.438C286.464 108.853 285.034 107.334 283.532 105.88C282.727 105.097 281.494 106.33 282.3 107.114C294.487 118.969 301.58 135.034 303.981 151.747C306.456 168.983 303.905 186.554 297.472 202.668C290.619 219.833 279.72 235.151 267.082 248.517C260.717 255.206 253.946 261.495 246.808 267.348C239.184 273.639 231.263 279.583 224.004 286.305C210.625 298.696 198.601 315.74 200.253 334.925C200.446 337.157 200.832 339.368 201.407 341.532C201.474 341.749 201.623 341.93 201.821 342.038C202.02 342.147 202.253 342.174 202.471 342.114C202.689 342.053 202.875 341.911 202.99 341.716C203.105 341.521 203.14 341.289 203.087 341.068Z" fill="#E6E6E6"/>
<path d="M256.59 231.477C256.697 231.677 256.724 231.91 256.663 232.128C256.603 232.346 256.46 232.532 256.265 232.647C256.07 232.762 255.839 232.796 255.619 232.743C255.399 232.69 255.209 232.554 255.087 232.363C253.087 228.926 251.198 225.43 249.423 221.875C248.226 219.46 247.077 217.013 246 214.542C233.914 187.095 228.738 157.095 230.927 127.177C231.522 118.992 232.701 110.86 234.454 102.844C234.816 101.218 235.201 99.5921 235.627 97.9823C236.27 97.8777 236.897 97.7408 237.515 97.5798C233.739 111.296 232.22 125.76 232.172 139.91C232.116 155.917 234.172 171.861 238.287 187.328C242.383 202.8 248.539 217.65 256.59 231.477Z" fill="#E6E6E6"/>
<path d="M371.037 184.148C364.504 198.226 353.529 209.785 341.22 218.993C327.263 229.433 311.459 236.967 295.799 244.445C294.795 244.928 293.911 243.422 294.923 242.939C298.659 241.153 302.396 239.366 306.108 237.547C320.956 230.246 335.676 222.213 348.105 211.153C359.603 200.923 368.972 188.181 373.246 173.234C377.705 157.675 376.862 140.852 372.065 125.478C369.089 116.142 364.818 107.271 359.378 99.1253C357.578 96.3966 355.674 93.7431 353.665 91.1647C352.203 89.2892 350.693 87.4513 349.134 85.651C344.039 79.7976 338.5 74.3481 332.566 69.3515C326.393 64.0164 319.561 59.4987 312.238 55.9094C304.715 52.2432 296.49 50.2498 288.126 50.0657C280.222 49.9564 272.439 52.0163 265.621 56.0221C260.958 58.804 256.77 62.3148 253.215 66.4216C252.982 65.834 252.725 65.2544 252.436 64.691C258.574 57.8895 266.231 52.5448 275.142 50.0094C291.605 45.3248 308.984 50.8223 322.876 59.9179C329.655 64.4491 335.985 69.6186 341.782 75.3561C343.943 77.457 346.048 79.6222 348.073 81.8518C350.516 84.5241 352.849 87.2903 355.071 90.1505C355.071 90.1505 355.088 90.1585 355.088 90.1666C355.835 91.1244 356.569 92.0957 357.289 93.0804C366.682 105.879 373.696 120.568 376.492 136.272C379.352 152.33 377.938 169.266 371.037 184.148Z" fill="#E6E6E6"/>
<path d="M359.997 167.277C353.473 181.355 342.497 192.914 330.18 202.122C316.834 212.095 301.801 219.428 286.825 226.584C286.142 226.914 285.451 227.236 284.768 227.566C284.658 227.622 284.537 227.654 284.414 227.66C284.29 227.665 284.167 227.644 284.053 227.598C283.894 227.552 283.752 227.46 283.645 227.333C283.539 227.206 283.472 227.05 283.454 226.886C283.436 226.721 283.467 226.555 283.544 226.408C283.62 226.261 283.739 226.14 283.884 226.06C284.462 225.779 285.049 225.505 285.628 225.231C286.624 224.748 287.612 224.273 288.608 223.799C290.77 222.768 292.926 221.725 295.076 220.667C309.917 213.375 324.644 205.334 337.066 194.274C348.572 184.044 357.94 171.302 362.215 156.355C366.666 140.796 365.822 123.981 361.026 108.607C359.126 102.574 356.662 96.7336 353.666 91.1647C351.954 87.9772 350.082 84.8622 348.074 81.8518C345.032 77.2808 341.699 72.9117 338.094 68.7719C333.005 62.9192 327.468 57.4723 321.535 52.4805C315.36 47.1444 308.525 42.6266 301.199 39.0384C293.679 35.3698 285.457 33.3736 277.095 33.1866C269.188 33.0773 261.403 35.1371 254.581 39.143C248.611 42.7372 243.414 47.4842 239.291 53.1083C234.369 59.8623 230.583 67.3775 228.083 75.3561C225.851 82.3202 224.185 89.4535 223.101 96.6864C221.794 105.407 221.136 114.213 221.133 123.031C221.081 139.04 223.137 154.986 227.247 170.457C231.348 185.928 237.504 200.777 245.55 214.606C245.572 214.642 245.591 214.68 245.606 214.719C245.68 214.922 245.677 215.145 245.596 215.346C245.516 215.546 245.364 215.71 245.171 215.805C244.977 215.9 244.755 215.919 244.548 215.86C244.34 215.801 244.162 215.667 244.048 215.484C242.047 212.055 240.162 208.559 238.391 204.996C223.884 175.654 217.494 142.953 219.887 110.298C220.241 105.516 220.79 100.751 221.534 96.0023C222.057 92.6377 222.686 89.2919 223.422 85.965C225.127 77.7932 227.839 69.8656 231.497 62.3648C233.221 58.9335 235.234 55.6562 237.515 52.569C244.176 43.5459 253.207 36.2373 264.11 33.1384C280.574 28.4457 297.945 33.9433 311.845 43.0388C318.62 47.5741 324.95 52.7434 330.751 58.4771C336.398 63.9446 341.583 69.8731 346.25 76.2013C349.513 80.6379 352.461 85.2992 355.072 90.1505C355.072 90.1505 355.088 90.1585 355.088 90.1666C356.655 93.0884 358.093 96.0747 359.378 99.1253C362.155 105.632 364.192 112.43 365.453 119.393C368.321 135.459 366.907 152.387 359.997 167.277Z" fill="#E6E6E6"/>
<path d="M306.256 173.349C313.942 173.301 321.373 170.583 327.282 165.66C333.298 160.592 337.258 153.495 338.415 145.707C339.095 141.304 338.876 136.808 337.771 132.492C337.704 132.276 337.555 132.095 337.357 131.986C337.158 131.878 336.925 131.851 336.707 131.911C336.49 131.971 336.304 132.114 336.189 132.309C336.074 132.504 336.039 132.736 336.091 132.956C337.953 140.284 337.113 148.04 333.724 154.797C331.121 159.85 327.183 164.089 322.339 167.053C317.495 170.016 311.932 171.59 306.256 171.603C306.03 171.611 305.816 171.707 305.659 171.869C305.502 172.032 305.414 172.25 305.414 172.476C305.414 172.703 305.502 172.92 305.659 173.083C305.816 173.246 306.03 173.341 306.256 173.349Z" fill="#E6E6E6"/>
<path d="M240.819 272.573L235.21 262.682C235.089 262.491 234.899 262.353 234.679 262.3C234.46 262.246 234.228 262.28 234.033 262.394C233.837 262.509 233.694 262.694 233.633 262.912C233.572 263.13 233.598 263.364 233.705 263.563L239.314 273.454C239.435 273.646 239.625 273.783 239.845 273.836C240.065 273.89 240.296 273.856 240.492 273.742C240.687 273.627 240.83 273.442 240.891 273.224C240.952 273.006 240.926 272.772 240.819 272.573Z" fill="#E6E6E6"/>
<path d="M208.072 70.7967C206.393 69.6098 204.557 68.3721 202.503 68.4216C197.532 68.5413 194.852 75.8416 189.886 75.5849C186.719 75.4211 184.617 72.1983 181.668 71.0297C177.829 69.5085 172.944 72.4837 172.525 76.5981L173.018 76.146C187.941 79.7904 203.426 80.5071 218.621 78.2565C215.104 75.7699 211.588 73.2833 208.072 70.7967Z" fill="#E6E6E6"/>
<path d="M187.529 367.758C190.301 367.758 192.548 365.507 192.548 362.73C192.548 359.953 190.301 357.702 187.529 357.702C184.757 357.702 182.51 359.953 182.51 362.73C182.51 365.507 184.757 367.758 187.529 367.758Z" fill="white"/>
<path d="M202.085 367.758C204.856 367.758 207.104 365.507 207.104 362.73C207.104 359.953 204.856 357.702 202.085 357.702C199.313 357.702 197.065 359.953 197.065 362.73C197.065 365.507 199.313 367.758 202.085 367.758Z" fill="white"/>
<path d="M216.639 367.758C219.411 367.758 221.658 365.507 221.658 362.73C221.658 359.953 219.411 357.702 216.639 357.702C213.867 357.702 211.62 359.953 211.62 362.73C211.62 365.507 213.867 367.758 216.639 367.758Z" fill="white"/>
<path d="M202.131 366.752C204.348 366.752 206.146 364.952 206.146 362.73C206.146 360.508 204.348 358.708 202.131 358.708C199.913 358.708 198.115 360.508 198.115 362.73C198.115 364.952 199.913 366.752 202.131 366.752Z" fill="#3F3D56"/>
<path d="M437.833 364.495H432.332L429.714 343.237H437.833V364.495Z" fill="#FFB6B6"/>
<path d="M440.737 374.044H436.792L436.088 370.313L434.284 374.044H423.82C423.318 374.044 422.83 373.883 422.426 373.586C422.022 373.288 421.724 372.869 421.574 372.389C421.425 371.909 421.433 371.394 421.596 370.919C421.76 370.444 422.071 370.034 422.483 369.749L430.84 363.967V360.195L439.629 360.72L440.737 374.044Z" fill="#2F2E41"/>
<path d="M406.213 359.783L401.033 361.64L391.415 342.511L399.06 339.769L406.213 359.783Z" fill="#FFB6B6"/>
<path d="M412.866 365.184L409.458 367.175L406.973 364.308L407.292 368.441L398.253 373.723C397.82 373.977 397.317 374.084 396.819 374.031C396.32 373.978 395.851 373.766 395.481 373.427C395.111 373.088 394.858 372.64 394.761 372.147C394.663 371.654 394.725 371.143 394.938 370.688L399.248 361.476L397.351 358.217L405.207 354.235L412.866 365.184Z" fill="#2F2E41"/>
<path d="M438.874 351.506H438.808L437.639 313.303C438.395 311.841 438.78 310.214 438.757 308.567C438.734 306.92 438.305 305.304 437.508 303.863L437.34 303.56L437.775 301.544C438.332 298.954 438.076 296.254 437.042 293.816L435.951 258.179C439.849 232.875 421.579 213.061 421.579 213.061H392.348L387.476 236.933L371.878 296.665C371.187 297.718 370.756 298.921 370.623 300.174C370.49 301.427 370.658 302.694 371.113 303.868L393.264 347.77L393.094 347.857C392.77 348.038 392.528 348.337 392.418 348.692C392.308 349.047 392.339 349.431 392.504 349.763C392.794 350.604 393.527 351.113 394.142 350.9L402.777 346.525C403.101 346.344 403.343 346.045 403.453 345.69C403.563 345.335 403.532 344.951 403.367 344.618C403.077 343.777 402.344 343.269 401.728 343.481L400.729 343.988L394.046 310.986L393.809 304.253L394.296 296.614L408.669 263.909L417.194 306.162L429.759 351.932C429.519 352.15 429.35 352.435 429.276 352.751C429.201 353.067 429.224 353.398 429.341 353.701C429.458 354.003 429.664 354.264 429.931 354.447C430.199 354.63 430.515 354.727 430.839 354.726H438.874C439.3 354.726 439.709 354.556 440.011 354.255C440.312 353.953 440.481 353.543 440.481 353.116C440.481 352.689 440.312 352.28 440.011 351.978C439.709 351.676 439.3 351.506 438.874 351.506Z" fill="#2F2E41"/>
<path d="M424.845 196.158L424.066 204.883C424.066 204.883 423.728 212.127 422.66 213.729C421.599 215.323 392.658 215.524 392.658 215.524C392.658 215.524 390.746 205.197 389.099 196.158H424.845Z" fill="#FFB6B6"/>
<path d="M410.353 141.793C418.566 141.793 425.223 135.123 425.223 126.896C425.223 118.668 418.566 111.999 410.353 111.999C402.14 111.999 395.482 118.668 395.482 126.896C395.482 135.123 402.14 141.793 410.353 141.793Z" fill="#FFB6B6"/>
<path d="M417.983 144.643L406.049 146.05C405.545 146.109 405.073 146.324 404.697 146.665C404.322 147.006 404.062 147.456 403.954 147.952L402.056 156.653L390.224 170.611C390.224 170.611 385.975 178.592 387.568 187.637C389.162 196.681 389.862 203.402 389.862 203.402C389.862 203.402 421.601 215.324 422.663 213.727C423.725 212.131 424.07 204.881 424.07 204.881L428.318 157.53C428.318 157.53 423.539 149.549 420.883 149.549C419.169 149.491 419.389 145.627 417.983 144.643Z" fill="#6C63FF"/>
<path opacity="0.2" d="M412.714 175.238L407.404 214.609L401.833 214.899L412.714 175.238Z" fill="black"/>
<path d="M389.539 206.313C391.213 206.313 392.57 204.682 392.57 202.67C392.57 200.658 391.213 199.027 389.539 199.027C387.866 199.027 386.509 200.658 386.509 202.67C386.509 204.682 387.866 206.313 389.539 206.313Z" fill="#6C63FF"/>
<path d="M410.302 251.321C410.934 250.692 411.42 249.931 411.726 249.093C412.033 248.255 412.152 247.359 412.076 246.47C411.999 245.581 411.729 244.719 411.285 243.946C410.84 243.172 410.231 242.506 409.502 241.993L419.45 193.758L408.717 197.151L400.713 243.814C399.935 245.099 399.654 246.625 399.924 248.103C400.195 249.582 400.997 250.909 402.179 251.835C403.361 252.76 404.841 253.219 406.338 253.124C407.835 253.03 409.245 252.388 410.302 251.321Z" fill="#FFB6B6"/>
<path d="M418.215 150.845C418.215 150.845 425.367 147.744 429.709 155.552C434.051 163.361 427.785 190.5 426.906 194.905C426.026 199.31 413.966 220.305 413.966 220.305L401.914 217.891L418.215 150.845Z" fill="#6C63FF"/>
<path d="M403.589 112.655C408.746 109.102 413.286 108.561 417.016 109.569C417.5 108.82 418.178 108.216 418.978 107.824C421.887 100.481 430.74 96.0711 438.337 98.2148C445.983 100.372 451.259 108.858 449.821 116.684C448.929 121.536 445.881 125.737 444.655 130.514C442.282 139.763 448.071 150.357 457.127 153.339C448.553 155.064 439.115 149.817 436.039 141.616C434.545 137.632 434.455 133.283 434.265 129.032C434.075 124.781 433.733 120.402 431.81 116.607C430.521 114.005 428.38 111.924 425.744 110.712C425.98 111.443 426.039 112.22 425.916 112.979C425.793 113.738 425.492 114.456 425.038 115.075C427.048 117.599 428.143 120.328 428.143 121.962C432.32 129.61 426.347 136.179 418.712 140.364C415.667 142.042 412.151 142.656 408.719 142.109L408.399 140.743L407.967 141.974L406.522 146.099C404.855 146.906 403.203 147.792 401.566 148.755C402.188 145.828 402.691 142.906 403.037 140.05C403.517 136.162 401.845 130.374 400.64 126.854C399.892 124.684 399.508 122.406 399.504 120.111V120.01L398.33 123.788L394.056 121.962C394.851 117.392 394.056 112.205 403.589 112.655Z" fill="#2F2E41"/>
<path d="M492 375.042C492 375.296 491.899 375.539 491.72 375.719C491.541 375.898 491.298 375.999 491.044 376H310.029C309.776 376 309.533 375.899 309.353 375.719C309.174 375.54 309.073 375.296 309.073 375.042C309.073 374.788 309.174 374.544 309.353 374.365C309.533 374.185 309.776 374.084 310.029 374.084H491.044C491.17 374.084 491.294 374.108 491.411 374.156C491.527 374.204 491.632 374.275 491.721 374.364C491.81 374.453 491.881 374.559 491.928 374.675C491.976 374.791 492.001 374.916 492 375.042Z" fill="#CCCCCC"/>
</g>
<defs>
<clipPath id="clip0_284_3394">
<rect width="492" height="376" fill="white"/>
</clipPath>
</defs>
</svg>
