<svg width="460" height="338" viewBox="0 0 460 338" fill="none" xmlns="http://www.w3.org/2000/svg">
<g clip-path="url(#clip0_269_1210)">
<path d="M448.537 147.307C448.666 145.342 444.058 144.382 444.267 142.662C444.476 140.949 449.123 141.305 454.037 138.209C454.923 137.651 460.507 134.133 459.963 131.494C458.931 126.491 436.789 129.045 434.634 121.767C434.161 120.17 434.601 117.929 433.297 112.909C432.778 110.912 432.347 109.876 431.467 109.549C430.219 109.085 429.158 110.454 426.093 112.478C421.498 115.512 420.658 114.563 417.361 117.237C414.913 119.221 414.09 120.787 413.025 120.471C411.517 120.025 412.19 116.602 410.464 115.767C408.702 114.914 405.629 117.331 403.746 119.427C400.213 123.361 399.847 127.303 398.673 130.907C397.396 134.824 394.568 140.174 387.553 145.682L323.516 192.323C336.996 182.986 374.695 157.9 389.383 149.043C393.623 146.486 398.076 143.997 402.937 145.142C407.618 146.244 412.113 150.581 419.659 153.459C420.54 153.795 423.005 154.699 424.115 153.645C425.033 152.773 424.188 151.357 425.033 150.53C426.165 149.422 428.604 151.07 432.602 151.634C435.42 152.032 437.581 151.689 439.439 151.394C439.999 151.305 448.367 149.923 448.537 147.307Z" fill="#F2F2F2"/>
<path d="M340.337 120.814C339.41 120.184 337.609 122.171 336.826 121.571C336.046 120.975 337.561 118.795 337.461 115.489C337.443 114.892 337.328 111.135 335.876 110.641C333.125 109.704 327.989 121.314 323.797 120.273C322.877 120.044 321.905 119.182 319.066 118.374C317.937 118.053 317.304 117.965 316.89 118.303C316.302 118.782 316.668 119.698 316.776 121.787C316.938 124.919 316.231 125.058 316.591 127.448C316.858 129.223 317.389 130.079 316.926 130.511C316.272 131.123 314.787 129.804 313.88 130.411C312.953 131.031 313.252 133.237 313.737 134.766C314.647 137.636 316.475 138.954 317.904 140.57C319.458 142.327 321.266 145.26 321.944 150.294L326.345 195.199C325.655 185.885 324.227 160.134 324.12 150.365C324.089 147.545 324.153 144.64 326.117 142.583C328.008 140.603 331.433 139.647 335.022 136.771C335.441 136.435 336.596 135.486 336.399 134.636C336.236 133.934 335.298 133.94 335.136 133.287C334.919 132.411 336.431 131.689 337.861 129.889C338.87 128.619 339.325 127.459 339.716 126.462C339.834 126.161 341.571 121.653 340.337 120.814Z" fill="#F2F2F2"/>
<path d="M355.946 137.598L358.795 132.241L359.308 132.038C361.68 131.101 363.446 129.809 364.56 128.197C364.737 127.941 364.901 127.675 365.068 127.405C365.731 126.334 366.554 125.003 368.256 123.96C369.206 123.38 371.594 122.164 373.022 123.495C373.409 123.849 373.598 124.268 373.687 124.668C373.762 124.635 373.839 124.603 373.921 124.567C374.935 124.15 375.55 124.095 376.142 124.042C376.597 124.001 377.066 123.959 377.938 123.695C378.321 123.58 378.636 123.464 378.902 123.367C379.706 123.075 380.713 122.759 381.653 123.421C382.634 124.163 382.59 125.366 382.562 126.162C382.513 127.582 382.309 128.49 382.173 129.093C382.123 129.313 382.068 129.561 382.067 129.648C382.064 130.352 385.026 131.722 386.138 132.244C388.641 133.409 390.807 134.416 390.637 136.383C390.517 137.79 389.173 138.838 386.531 139.58C385.709 139.81 384.946 139.891 384.298 139.92C384.508 140.374 384.603 140.916 384.383 141.513C383.86 142.926 381.996 143.425 378.842 143C378.058 142.897 377.004 142.753 375.776 142.19C375.197 141.925 374.717 141.627 374.31 141.366C374.144 141.591 373.919 141.804 373.602 141.964C372.672 142.439 371.569 142.212 370.336 141.24C368.965 140.192 367.981 139.118 367.111 138.173C366.351 137.348 365.694 136.64 365.056 136.263C363.863 135.58 362.371 135.888 360.544 136.362L355.946 137.598Z" fill="#F2F2F2"/>
<path d="M378.81 109.744L372.908 108.346L372.582 107.901C371.074 105.843 369.377 104.462 367.536 103.792C367.244 103.686 366.945 103.594 366.642 103.501C365.439 103.132 363.943 102.673 362.503 101.29C361.701 100.517 359.92 98.5144 360.845 96.7951C361.088 96.3304 361.446 96.0408 361.809 95.8541C361.758 95.7894 361.708 95.7234 361.653 95.6526C360.992 94.7771 360.783 94.1963 360.581 93.6368C360.426 93.2069 360.267 92.763 359.791 91.9861C359.582 91.6452 359.39 91.3692 359.229 91.1368C358.743 90.4319 358.182 89.5378 358.583 88.4599C359.052 87.3228 360.226 87.0598 361.002 86.885C362.388 86.5729 363.318 86.5398 363.935 86.5181C364.16 86.5107 364.414 86.5011 364.498 86.4805C365.18 86.3041 365.753 83.0899 365.975 81.8814C366.466 79.1636 366.891 76.8119 368.835 76.4772C370.226 76.2366 371.581 77.2713 372.967 79.64C373.399 80.3777 373.67 81.0953 373.863 81.7149C374.249 81.397 374.748 81.1678 375.382 81.2294C376.881 81.3771 377.835 83.054 378.224 86.2142C378.323 86.9998 378.452 88.0559 378.219 89.3877C378.109 90.0148 377.943 90.5554 377.794 91.0154C378.054 91.1193 378.317 91.2831 378.552 91.5486C379.247 92.3282 379.308 93.4542 378.681 94.8936C378.015 96.486 377.226 97.7114 376.533 98.7929C375.929 99.7378 375.411 100.553 375.208 101.266C374.85 102.594 375.527 103.96 376.448 105.608L378.81 109.744Z" fill="#F2F2F2"/>
<path d="M386.259 93.3151L389.108 87.9577L389.62 87.7549C391.992 86.8178 393.758 85.5258 394.872 83.9138C395.049 83.6576 395.213 83.3923 395.381 83.1222C396.043 82.0514 396.866 80.7201 398.568 79.6769C399.519 79.0968 401.907 77.8812 403.334 79.2124C403.722 79.5662 403.911 79.9853 403.999 80.3846C404.075 80.3517 404.151 80.3195 404.234 80.2842C405.248 79.8672 405.862 79.8119 406.454 79.7587C406.909 79.7176 407.379 79.6758 408.251 79.4121C408.633 79.2965 408.949 79.181 409.214 79.0841C410.019 78.7922 411.026 78.476 411.966 79.138C412.946 79.8804 412.903 81.0825 412.875 81.8786C412.825 83.2987 412.621 84.2072 412.486 84.8097C412.436 85.0296 412.381 85.2777 412.379 85.3649C412.377 86.0692 415.339 87.439 416.451 87.9609C418.953 89.1255 421.119 90.1332 420.95 92.0995C420.83 93.5066 419.486 94.5551 416.844 95.2966C416.021 95.527 415.259 95.6079 414.611 95.637C414.82 96.0911 414.915 96.6326 414.695 97.23C414.172 98.6434 412.309 99.1418 409.155 98.7171C408.37 98.6135 407.317 98.4703 406.088 97.9073C405.51 97.6416 405.029 97.344 404.623 97.0829C404.456 97.3077 404.231 97.5206 403.915 97.6814C402.985 98.156 401.881 97.9289 400.648 96.9571C399.278 95.9085 398.293 94.8349 397.423 93.8895C396.663 93.065 396.007 92.3573 395.369 91.9802C394.175 91.2964 392.684 91.6049 390.857 92.0787L386.259 93.3151Z" fill="#F2F2F2"/>
<path d="M325.236 193.383L324.641 192.015L323.331 191.322C323.389 191.196 323.501 190.891 323.679 190.417C324.658 187.819 327.634 179.913 333.55 168.303C337.679 160.198 342.371 152.172 347.496 144.443C352.629 136.701 356.964 131.148 360.446 126.684C363.074 123.317 365.633 120.15 368.128 117.067C374.79 108.828 381.083 101.045 386.834 91.5946C388.119 89.4857 390.791 85.0945 391.403 78.8926C391.758 75.2955 391.37 71.6204 390.249 67.9717L393.099 67.0947C394.335 71.1253 394.762 75.1942 394.368 79.1882C393.69 86.0646 390.778 90.8493 389.379 93.1483C383.526 102.765 377.172 110.623 370.445 118.941C367.96 122.014 365.411 125.166 362.795 128.519C359.344 132.942 355.048 138.447 349.981 146.089C344.916 153.726 340.283 161.654 336.204 169.656C330.364 181.12 327.433 188.909 326.469 191.468C325.954 192.834 325.847 193.12 325.236 193.383Z" fill="#F2F2F2"/>
<path d="M383.063 68.7903C382.962 68.7212 382.861 68.6489 382.763 68.5709C380.747 67.0231 379.666 64.4403 379.55 60.8946C379.498 59.2285 379.949 57.6777 380.849 54.585C380.987 54.1077 381.715 51.705 383.195 48.7278C384.162 46.782 384.702 46.0611 385.502 45.6463C386.393 45.1833 387.373 45.1067 388.319 45.2502C388.449 44.9934 388.64 44.768 388.911 44.5905C390.033 43.8517 391.055 44.7498 391.613 45.2277C391.892 45.4751 392.238 45.7864 392.663 46.0461C393.33 46.4575 393.809 46.5031 394.532 46.5751C395.224 46.6436 396.085 46.7287 397.143 47.1749C399.234 48.0467 400.412 49.6163 400.801 50.1332C402.853 52.8421 402.748 55.8091 402.626 59.2444C402.6 59.9322 402.441 62.3929 401.485 65.2604C400.796 67.3292 400.2 68.0503 399.659 68.52C398.553 69.4875 397.378 69.6707 394.548 69.9123C391.589 70.1684 390.105 70.2953 388.965 70.2091C386.313 70.0046 384.647 69.8764 383.063 68.7903Z" fill="#F2F2F2"/>
<path d="M371.314 0H204.248C198.119 0 193.136 4.98629 193.136 11.1183V183.541C193.136 189.673 198.119 194.659 204.248 194.659H371.314C377.443 194.659 382.426 189.673 382.426 183.541V11.1183C382.426 4.98629 377.443 0 371.314 0ZM381.258 183.541C381.258 189.035 376.806 193.49 371.314 193.49H204.248C198.756 193.49 194.304 189.035 194.304 183.541V11.1183C194.304 5.62354 198.756 1.16912 204.248 1.16912H292.742C341.628 1.16912 381.258 40.8213 381.258 89.7348V183.541Z" fill="#3F3D56"/>
<path d="M381.258 183.541C381.258 189.035 376.806 193.49 371.314 193.49H204.248C198.756 193.49 194.304 189.035 194.304 183.541V11.1183C194.304 5.62354 198.756 1.16912 204.248 1.16912H292.742C341.628 1.16912 381.258 40.8213 381.258 89.7348V183.541Z" fill="white"/>
<path d="M189.6 129.588C183.745 131.172 179.815 135.479 180.823 139.207C181.831 142.936 187.394 144.673 193.251 143.088C195.6 142.487 197.77 141.332 199.581 139.72L224.307 132.697L220.765 121.157L196.766 129.306C194.389 128.826 191.932 128.923 189.6 129.588Z" fill="#FFB6B6"/>
<path d="M293.215 94.9688C293.215 94.9688 300.196 105.215 284.463 112.944C268.731 120.674 239.649 131.705 239.649 131.705L199.494 141.013L193.431 127.712L241.078 114.723L279.904 93.0427L293.215 94.9688Z" fill="#3F3D56"/>
<path d="M288.545 67.6965C288.366 72.5534 291.861 78.3189 295.555 78.4373C300 78.5797 321.012 80.0771 321.688 78.3333C326.378 66.2264 304.29 41.112 299.312 40.3875C296.636 39.9981 293.432 43.8417 292.201 47.0148C290.474 51.4613 293.022 53.5583 291.584 59.5486C290.488 64.1166 288.669 64.3011 288.545 67.6965Z" fill="#2F2E41"/>
<path d="M251.969 259.16L237.222 262.541L252.04 306.535L262.033 304.245L251.969 259.16Z" fill="#FFB6B6"/>
<path d="M246.699 292.815L252.403 293.652L253.283 296.709C253.283 296.709 253.473 292.821 259.772 290.156L261.41 292.892C261.41 292.892 264.782 295.063 265.872 300.445L268.292 315.001L263.339 316.315L259.705 306.753C259.705 306.753 257.706 304.924 254.525 317.295C254.525 317.295 253.237 321.453 241.553 320.972C239.947 320.905 238.534 319.833 238.106 318.283C237.869 317.428 237.974 316.544 238.96 315.951C241.47 314.443 244.39 314.584 245.516 311.903C246.642 309.222 246.699 292.815 246.699 292.815Z" fill="#2F2E41"/>
<path d="M284.007 279.161L270.838 278.836L272.681 325.162L282.932 325.345L284.007 279.161Z" fill="#FFB6B6"/>
<path d="M270.798 310.559L276.133 312.745L276.251 315.924C276.251 315.924 277.371 312.195 284.126 311.126L285.057 314.176C285.057 314.176 287.808 317.095 287.572 322.581L286.42 337.292L281.297 337.375L280.07 327.218C280.07 327.218 278.569 324.962 272.506 336.204C272.506 336.204 270.256 339.93 259.031 336.649C257.488 336.198 256.375 334.817 256.331 333.209C256.307 332.322 256.622 331.489 257.721 331.151C260.521 330.292 263.32 331.132 265.058 328.801C266.796 326.47 270.798 310.559 270.798 310.559Z" fill="#2F2E41"/>
<path d="M311.182 228.561L241.534 223.169L261.134 142.774L308.027 136.013L311.182 228.561Z" fill="#2F2E41"/>
<path d="M301.577 80.7822L316.252 72.9597L328.102 86.9597L304.289 163.326L260.729 144.027L293.814 87.4335L301.577 80.7822Z" fill="#6C63FF"/>
<path d="M303.437 149.538C303.437 149.538 308.11 173.647 293.64 186.178L289.21 200.269L284.427 226.277L284.86 293.45L267.333 291.696L260.323 227.397L260.239 195.395L234.364 217.566L261.444 270.784L239.378 280.451L212.429 216.32C210.556 212.413 211.055 207.782 213.718 204.365L260.73 144.027L303.437 149.538Z" fill="#2F2E41"/>
<path d="M321.606 79.2844L292.833 106.142C286.024 161.43 289.741 212.197 309.333 256.147L357.683 233.726C317.815 221.627 321.725 155.194 329.46 84.0121L321.606 79.2844Z" fill="#3F3D56"/>
<path d="M296.792 87.5218L301.218 80.6694L276.738 95.07L257.38 148.745L293.089 104.157L296.792 87.5218Z" fill="#3F3D56"/>
<path d="M358.028 188.484C359.716 194.313 364.09 198.168 367.797 197.093C371.505 196.018 373.142 190.421 371.453 184.59C370.811 182.251 369.618 180.1 367.974 178.317L360.513 153.707L349.046 157.457L357.618 181.32C357.181 183.706 357.322 186.163 358.028 188.484Z" fill="#FFB6B6"/>
<path d="M320.488 84.5853C320.488 84.5853 330.523 77.309 338.697 92.822C346.871 108.335 358.728 137.104 358.728 137.104L369.181 176.997L356.066 183.444L341.721 136.163L318.946 97.9543L320.488 84.5853Z" fill="#3F3D56"/>
<path d="M308.554 72.3301C317.555 72.3301 324.852 65.0294 324.852 56.0234C324.852 47.0174 317.555 39.7167 308.554 39.7167C299.553 39.7167 292.257 47.0174 292.257 56.0234C292.257 65.0294 299.553 72.3301 308.554 72.3301Z" fill="#FFB6B6"/>
<path d="M308.609 49.6615C307.691 49.5709 307.22 50.5415 303.716 51.8957C302.475 52.3754 301.84 52.6162 301.111 52.6631C298.894 52.8056 297.172 51.5809 296.021 50.7624C294.15 49.432 292.945 48.575 292.709 47.2049C292.402 45.4169 294.425 43.4196 298.483 39.4981C300.471 37.5776 301.682 36.4175 303.627 35.0368C306.889 32.721 308.52 31.5631 310.806 31.3359C313.834 31.035 316.136 32.4808 319.458 34.5671C320.355 35.1307 321.649 35.4018 323.021 35.505C327.511 35.8432 331.361 38.8379 332.582 43.1747C332.676 43.506 332.754 43.8059 332.813 44.0627C335.224 54.5929 334.551 65.5453 331.252 75.8316C331.163 76.1084 331.089 76.3663 331.031 76.6012C329.499 82.8656 308.447 85.3075 305.985 80.0117C304.434 76.6769 311.681 73.3402 312.763 63.3967C313.516 56.4744 310.897 49.8872 308.609 49.6615Z" fill="#2F2E41"/>
<path d="M245.133 53.343H68.5479V54.2487H245.133V53.343Z" fill="#E6E6E6"/>
<path d="M220.202 40.1011H93.4762C91.4798 40.1011 89.8555 38.4758 89.8555 36.4783C89.8555 34.4807 91.4798 32.8555 93.4762 32.8555H220.202C222.199 32.8555 223.823 34.4807 223.823 36.4783C223.823 38.4758 222.199 40.1011 220.202 40.1011Z" fill="#E6E6E6"/>
<path d="M68.9387 60.5505C73.1333 60.5505 76.5337 57.1482 76.5337 52.9512C76.5337 48.7542 73.1333 45.3519 68.9387 45.3519C64.7441 45.3519 61.3438 48.7542 61.3438 52.9512C61.3438 57.1482 64.7441 60.5505 68.9387 60.5505Z" fill="#E6E6E6"/>
<path d="M92.3079 44.1828C96.5025 44.1828 99.9029 40.7805 99.9029 36.5835C99.9029 32.3866 96.5025 28.9843 92.3079 28.9843C88.1133 28.9843 84.7129 32.3866 84.7129 36.5835C84.7129 40.7805 88.1133 44.1828 92.3079 44.1828Z" fill="#E6E6E6"/>
<path d="M185.541 138.104H8.95605V139.01H185.541V138.104Z" fill="#3F3D56"/>
<path d="M160.612 124.863H33.8854C31.8889 124.863 30.2646 123.237 30.2646 121.24C30.2646 119.242 31.8889 117.617 33.8854 117.617H160.612C162.608 117.617 164.232 119.242 164.232 121.24C164.232 123.237 162.608 124.863 160.612 124.863Z" fill="#6C63FF"/>
<path d="M7.59499 145.312C11.7896 145.312 15.19 141.91 15.19 137.713C15.19 133.516 11.7896 130.113 7.59499 130.113C3.40039 130.113 0 133.516 0 137.713C0 141.91 3.40039 145.312 7.59499 145.312Z" fill="#6C63FF"/>
<path d="M30.9641 128.944C35.1587 128.944 38.5591 125.542 38.5591 121.345C38.5591 117.148 35.1587 113.746 30.9641 113.746C26.7695 113.746 23.3691 117.148 23.3691 121.345C23.3691 125.542 26.7695 128.944 30.9641 128.944Z" fill="#6C63FF"/>
<path d="M206.573 231.634H29.9883V232.54H206.573V231.634Z" fill="#E6E6E6"/>
<path d="M181.644 218.392H54.9176C52.9212 218.392 51.2969 216.767 51.2969 214.77C51.2969 212.772 52.9212 211.147 54.9176 211.147H181.644C183.64 211.147 185.264 212.772 185.264 214.77C185.264 216.767 183.64 218.392 181.644 218.392Z" fill="#E6E6E6"/>
<path d="M51.4124 221.89C55.607 221.89 59.0074 218.487 59.0074 214.29C59.0074 210.093 55.607 206.691 51.4124 206.691C47.2178 206.691 43.8174 210.093 43.8174 214.29C43.8174 218.487 47.2178 221.89 51.4124 221.89Z" fill="#E6E6E6"/>
<path d="M28.6272 239.426C32.8218 239.426 36.2222 236.024 36.2222 231.827C36.2222 227.63 32.8218 224.228 28.6272 224.228C24.4326 224.228 21.0322 227.63 21.0322 231.827C21.0322 236.024 24.4326 239.426 28.6272 239.426Z" fill="#E6E6E6"/>
</g>
<defs>
<clipPath id="clip0_269_1210">
<rect width="460" height="338" fill="white"/>
</clipPath>
</defs>
</svg>
