<svg width="506" height="392" viewBox="0 0 506 392" fill="none" xmlns="http://www.w3.org/2000/svg">
<g clip-path="url(#clip0_279_3114)">
<path d="M22.4403 380.818C38.2122 392.193 58.6516 392.764 78.4084 391.367C81.1671 391.172 83.9064 390.943 86.6203 390.696C86.6367 390.692 86.6582 390.694 86.6749 390.689C86.8053 390.677 86.936 390.664 87.0608 390.657C87.6209 390.605 88.1813 390.552 88.7362 390.499L88.6051 390.75L88.1937 391.527C88.3416 391.267 88.4893 391.012 88.6372 390.752C88.6806 390.674 88.7294 390.596 88.7726 390.518C93.8907 381.602 98.967 372.358 100.262 362.177C101.6 351.61 97.8388 339.644 88.5482 334.45C87.3297 333.771 86.0394 333.23 84.7011 332.837C84.1455 332.668 83.5823 332.531 83.0128 332.409C79.5284 331.635 75.9008 331.803 72.5031 332.897C69.1053 333.992 66.06 335.972 63.6803 338.635C61.3005 341.298 59.6722 344.548 58.9629 348.049C58.2535 351.551 58.4886 355.179 59.644 358.56C51.7672 350.474 53.2366 337.357 55.9537 326.394C58.6761 315.432 61.9717 303.234 56.4347 293.388C53.3567 287.907 47.944 284.507 41.8696 283.137C41.6832 283.097 41.4971 283.057 41.3104 283.022C34.0729 281.554 26.5488 282.874 20.2409 286.717C8.62609 294.045 2.66058 307.937 0.724427 321.546C-2.39508 343.445 4.50843 367.885 22.4403 380.818Z" fill="#F2F2F2"/>
<path d="M27.5324 345.713C27.9903 350.544 29.1494 355.282 30.9731 359.777C32.6538 363.755 34.9193 367.46 37.6942 370.767C43.3629 377.594 50.8584 382.726 58.9987 386.146C65.223 388.698 71.7446 390.452 78.4083 391.366C81.1671 391.172 83.9063 390.943 86.6202 390.696C86.6366 390.692 86.6581 390.693 86.6748 390.689C86.8052 390.677 86.9359 390.664 87.0607 390.657C87.6209 390.605 88.1813 390.552 88.7361 390.499L88.6051 390.75L88.1937 391.527C88.3415 391.267 88.4892 391.012 88.6371 390.752C88.6806 390.674 88.7293 390.596 88.7726 390.518C83.7768 385.535 80.0468 379.426 77.8952 372.703C75.7435 365.98 75.2329 358.838 76.4062 351.877C77.6339 344.965 80.4761 338.44 84.7011 332.837C84.1454 332.668 83.5823 332.531 83.0127 332.409C81.407 334.607 79.9986 336.942 78.8038 339.388C74.5167 348.111 73.149 357.983 74.9031 367.545C76.5339 376.197 80.5966 384.204 86.6144 390.625C86.0875 390.588 85.5554 390.545 85.0348 390.498C75.1727 389.661 65.3308 387.539 56.3859 383.192C48.7399 379.566 42.1019 374.113 37.0566 367.314C31.6392 359.835 29.252 350.838 28.842 341.694C28.4071 331.905 29.6759 321.944 31.9076 312.424C34.1863 302.664 37.6495 293.22 42.2199 284.303C42.3221 284.101 42.3427 283.867 42.2775 283.65C42.2123 283.433 42.0662 283.249 41.8695 283.137C41.7056 283.026 41.5046 282.985 41.3104 283.022C41.2153 283.047 41.1272 283.093 41.0525 283.157C40.9778 283.221 40.9185 283.301 40.8791 283.392C40.3152 284.493 39.7619 285.596 39.2296 286.71C34.7965 295.995 31.5328 305.795 29.5134 315.885C27.5529 325.619 26.5065 335.801 27.5324 345.713Z" fill="white"/>
<path d="M495.853 337.024H235.001C232.311 337.021 229.731 335.95 227.829 334.046C225.927 332.141 224.857 329.559 224.854 326.866V10.1585C224.857 7.46526 225.927 4.88315 227.829 2.97871C229.731 1.07428 232.311 0.00303194 235.001 0H495.853C498.543 0.00303194 501.122 1.07428 503.025 2.97871C504.927 4.88315 505.997 7.46526 506 10.1585V326.866C505.997 329.559 504.927 332.141 503.025 334.046C501.122 335.95 498.543 337.021 495.853 337.024ZM235.001 1.19512C232.627 1.19781 230.351 2.14303 228.673 3.82341C226.994 5.50379 226.05 7.78212 226.047 10.1585V326.866C226.05 329.242 226.994 331.521 228.673 333.201C230.351 334.881 232.627 335.827 235.001 335.829H495.853C498.226 335.827 500.502 334.881 502.181 333.201C503.859 331.521 504.804 329.242 504.806 326.866V10.1585C504.804 7.78212 503.859 5.50379 502.181 3.82341C500.502 2.14303 498.226 1.19781 495.853 1.19512H235.001Z" fill="#3F3D56"/>
<path d="M235.001 1.19512C232.627 1.19781 230.351 2.14303 228.673 3.82341C226.994 5.50379 226.05 7.78212 226.047 10.1585V326.866C226.05 329.242 226.994 331.521 228.673 333.201C230.351 334.881 232.627 335.827 235.001 335.829H495.853C498.226 335.827 500.502 334.881 502.181 333.201C503.859 331.521 504.804 329.242 504.806 326.866V10.1585C504.804 7.78212 503.859 5.50379 502.181 3.82341C500.502 2.14303 498.226 1.19781 495.853 1.19512H235.001Z" fill="white"/>
<path d="M505.403 24.8528H225.45V26.0479H505.403V24.8528Z" fill="#3F3D56"/>
<path d="M239.18 17.9268C241.817 17.9268 243.955 15.7865 243.955 13.1463C243.955 10.5061 241.817 8.36584 239.18 8.36584C236.542 8.36584 234.404 10.5061 234.404 13.1463C234.404 15.7865 236.542 17.9268 239.18 17.9268Z" fill="#3F3D56"/>
<path d="M254.102 17.9268C256.74 17.9268 258.878 15.7865 258.878 13.1463C258.878 10.5061 256.74 8.36584 254.102 8.36584C251.465 8.36584 249.327 10.5061 249.327 13.1463C249.327 15.7865 251.465 17.9268 254.102 17.9268Z" fill="#3F3D56"/>
<path d="M269.025 17.9268C271.663 17.9268 273.801 15.7865 273.801 13.1463C273.801 10.5061 271.663 8.36584 269.025 8.36584C266.388 8.36584 264.25 10.5061 264.25 13.1463C264.25 15.7865 266.388 17.9268 269.025 17.9268Z" fill="#3F3D56"/>
<path d="M455.417 72.3049H269.18C267.122 72.3049 265.148 71.4865 263.693 70.0296C262.237 68.5728 261.42 66.5969 261.42 64.5366C261.42 62.4763 262.237 60.5004 263.693 59.0436C265.148 57.5868 267.122 56.7683 269.18 56.7683H455.417C457.475 56.7683 459.449 57.5868 460.904 59.0436C462.359 60.5004 463.177 62.4763 463.177 64.5366C463.177 66.5969 462.359 68.5728 460.904 70.0296C459.449 71.4865 457.475 72.3049 455.417 72.3049ZM269.18 57.9634C267.438 57.9634 265.768 58.656 264.537 59.8887C263.306 61.1214 262.614 62.7933 262.614 64.5366C262.614 66.2799 263.306 67.9518 264.537 69.1845C265.768 70.4172 267.438 71.1098 269.18 71.1098H455.417C457.158 71.1098 458.829 70.4172 460.06 69.1845C461.291 67.9518 461.983 66.2799 461.983 64.5366C461.983 62.7933 461.291 61.1214 460.06 59.8887C458.829 58.656 457.158 57.9634 455.417 57.9634H269.18Z" fill="#3F3D56"/>
<path d="M338.864 181.659H265.443C262.753 181.655 260.174 180.584 258.271 178.68C256.369 176.775 255.299 174.193 255.296 171.5V111.146C255.299 108.453 256.369 105.871 258.271 103.967C260.174 102.062 262.753 100.991 265.443 100.988H338.864C341.554 100.991 344.134 102.062 346.036 103.967C347.938 105.871 349.008 108.453 349.011 111.146V171.5C349.008 174.193 347.938 176.775 346.036 178.68C344.134 180.584 341.554 181.655 338.864 181.659ZM265.443 102.183C263.07 102.186 260.794 103.131 259.115 104.811C257.437 106.492 256.492 108.77 256.49 111.146V171.5C256.492 173.876 257.437 176.155 259.115 177.835C260.794 179.515 263.07 180.461 265.443 180.463H338.864C341.238 180.461 343.514 179.515 345.192 177.835C346.871 176.155 347.815 173.876 347.818 171.5V111.146C347.815 108.77 346.871 106.492 345.192 104.811C343.514 103.131 341.238 102.186 338.864 102.183H265.443Z" fill="#3F3D56"/>
<path d="M465.41 103.976H391.989C386.714 103.976 382.438 108.256 382.438 113.537V173.89C382.438 179.171 386.714 183.451 391.989 183.451H465.41C470.684 183.451 474.96 179.171 474.96 173.89V113.537C474.96 108.256 470.684 103.976 465.41 103.976Z" fill="#F2F2F2"/>
<path d="M338.864 294H265.443C262.753 293.997 260.174 292.926 258.271 291.021C256.369 289.117 255.299 286.535 255.296 283.841V223.488C255.299 220.795 256.369 218.212 258.271 216.308C260.174 214.404 262.753 213.332 265.443 213.329H338.864C341.554 213.332 344.134 214.404 346.036 216.308C347.938 218.212 349.008 220.795 349.011 223.488V283.841C349.008 286.535 347.938 289.117 346.036 291.021C344.134 292.926 341.554 293.997 338.864 294ZM265.443 214.524C263.07 214.527 260.794 215.472 259.115 217.153C257.437 218.833 256.492 221.111 256.49 223.488V283.841C256.492 286.218 257.437 288.496 259.115 290.177C260.794 291.857 263.07 292.802 265.443 292.805H338.864C341.238 292.802 343.514 291.857 345.192 290.177C346.871 288.496 347.815 286.218 347.818 283.841V223.488C347.815 221.111 346.871 218.833 345.192 217.153C343.514 215.472 341.238 214.527 338.864 214.524H265.443Z" fill="#3F3D56"/>
<path d="M465.41 216.317H391.989C386.714 216.317 382.438 220.598 382.438 225.878V286.232C382.438 291.512 386.714 295.793 391.989 295.793H465.41C470.684 295.793 474.96 291.512 474.96 286.232V225.878C474.96 220.598 470.684 216.317 465.41 216.317Z" fill="#F2F2F2"/>
<path d="M283.883 167.062C283.87 167.062 283.857 167.061 283.843 167.061L275.492 166.751C275.232 166.743 274.983 166.641 274.792 166.464C274.601 166.287 274.48 166.047 274.452 165.788C273.877 160.654 271.512 134.493 281.421 123.619C282.824 122.049 284.558 120.811 286.497 119.996C288.437 119.18 290.534 118.807 292.636 118.903C292.721 118.909 292.806 118.891 292.882 118.851C292.958 118.811 293.022 118.752 293.066 118.679L295.088 115.498C295.199 115.326 295.355 115.188 295.54 115.1C295.725 115.012 295.931 114.978 296.134 115.002C297.755 115.198 306.017 116.123 309.491 115.116C309.696 115.056 309.914 115.057 310.118 115.12C310.322 115.183 310.503 115.305 310.639 115.47L313.294 118.718C313.339 118.777 313.398 118.824 313.466 118.855C313.533 118.886 313.607 118.901 313.681 118.898C315.031 118.871 319.766 119.132 323.909 123.772C328.396 128.796 333.027 140.131 329.606 165.599C329.57 165.86 329.441 166.1 329.243 166.274C329.044 166.448 328.79 166.545 328.526 166.546H321.949C321.688 166.544 321.436 166.45 321.238 166.279C321.041 166.108 320.911 165.872 320.873 165.613L318.724 150.772C318.706 150.65 318.644 150.539 318.548 150.461C318.452 150.384 318.331 150.345 318.208 150.352C318.085 150.36 317.97 150.413 317.884 150.502C317.799 150.591 317.75 150.709 317.748 150.832L317.6 157.8C317.595 158.007 317.532 158.208 317.417 158.38C317.303 158.552 317.142 158.688 316.953 158.772C314.609 159.804 302.22 164.645 288.527 158.582C288.342 158.499 288.183 158.366 288.069 158.198C287.955 158.03 287.89 157.833 287.881 157.63L287.611 151.299C287.606 151.175 287.555 151.058 287.467 150.971C287.379 150.884 287.262 150.833 287.138 150.829C287.015 150.825 286.894 150.867 286.801 150.948C286.707 151.029 286.647 151.142 286.633 151.265L284.964 166.095C284.933 166.36 284.806 166.605 284.607 166.784C284.408 166.962 284.15 167.061 283.883 167.062Z" fill="#6C63FF"/>
<path d="M318.429 276.395H318.423L285.699 276.188C285.461 276.186 285.232 276.097 285.055 275.939C284.877 275.78 284.764 275.562 284.736 275.325L281.444 247.315C281.424 247.135 281.34 246.967 281.206 246.844C281.072 246.721 280.899 246.65 280.717 246.645C278.119 246.56 271.939 245.967 270.658 242.305C269.517 239.043 272.637 234.232 279.931 228.004C280.055 227.898 280.204 227.825 280.364 227.791C280.523 227.757 280.689 227.764 280.846 227.81C281.002 227.857 281.144 227.942 281.259 228.058C281.374 228.174 281.459 228.317 281.504 228.474L285.291 241.552C285.337 241.708 285.432 241.846 285.563 241.945C285.693 242.044 285.852 242.098 286.015 242.1L317.042 242.308C317.204 242.31 317.363 242.259 317.495 242.163C317.626 242.068 317.723 241.932 317.771 241.776L321.984 228.356C322.031 228.206 322.113 228.07 322.224 227.959C322.335 227.848 322.47 227.765 322.62 227.717C322.769 227.67 322.928 227.659 323.082 227.686C323.237 227.713 323.383 227.777 323.507 227.872C326.382 230.07 335.643 237.617 334.119 242.443C333.321 244.971 329.72 246.38 323.416 246.631C323.235 246.637 323.062 246.708 322.929 246.832C322.797 246.955 322.712 247.121 322.692 247.302L319.398 275.531C319.371 275.769 319.257 275.989 319.078 276.148C318.899 276.307 318.668 276.395 318.429 276.395Z" fill="#6C63FF"/>
<path d="M461.828 158.445C451.545 160.427 441.848 164.726 433.472 171.017C433.048 169.888 432.25 168.94 431.211 168.329C430.501 167.889 429.727 167.563 428.916 167.364C428.178 167.176 427.47 167.625 426.819 168.271C426.07 169.101 425.442 170.032 424.953 171.037C413.716 163.315 396.669 158.387 396.669 158.387V156.843C396.683 156.479 396.72 156.116 396.78 155.757C396.838 155.342 396.91 154.975 397.002 154.526C398.448 147.162 404.165 130.333 404.165 130.333H410.63L423.165 132.939L437.266 132.075L451.468 129.117L453.31 128.731C456.381 131.144 459.866 148.035 461.235 155.226C461.409 156.138 461.544 156.891 461.645 157.446C461.765 158.074 461.828 158.445 461.828 158.445Z" fill="white"/>
<path d="M423.254 232.582C423.254 232.582 420.251 233.334 415.594 245.961C410.937 258.588 409.287 274.903 409.287 274.903C409.287 274.903 406.668 279.342 417.846 279.639C417.846 279.639 416.947 282.571 423.254 282.121C429.56 281.671 428.653 281.675 428.653 281.675C428.653 281.675 432.707 279.119 434.51 279.569C436.312 280.019 437.438 280.172 439.389 281.824C441.34 283.475 447.577 282.802 447.651 281.527C447.702 280.9 447.702 280.27 447.651 279.643C447.651 279.643 457.188 280.246 455.385 273.33C453.583 266.413 452.081 255.062 452.081 255.062C452.081 255.062 447.202 232.888 441.641 232.586C436.081 232.285 423.254 232.582 423.254 232.582Z" fill="white"/>
<path d="M114.989 211.295C124.879 211.295 132.897 203.269 132.897 193.368C132.897 183.468 124.879 175.442 114.989 175.442C105.099 175.442 97.082 183.468 97.082 193.368C97.082 203.269 105.099 211.295 114.989 211.295Z" fill="#2F2E41"/>
<path d="M116.494 211.329C124.591 211.329 131.155 204.758 131.155 196.653C131.155 188.547 124.591 181.976 116.494 181.976C108.397 181.976 101.833 188.547 101.833 196.653C101.833 204.758 108.397 211.329 116.494 211.329Z" fill="#FFB8B8"/>
<path d="M172.328 241.293C172.095 241.528 171.881 241.781 171.688 242.049L142.104 241.002L138.72 234.65L128.476 238.509L133.374 250.338C133.77 251.293 134.465 252.095 135.354 252.621C136.243 253.148 137.279 253.372 138.307 253.259L171.784 249.579C172.562 250.587 173.628 251.334 174.84 251.721C176.053 252.108 177.354 252.116 178.571 251.745C179.788 251.373 180.863 250.639 181.654 249.641C182.444 248.643 182.912 247.427 182.995 246.156C183.079 244.885 182.774 243.619 182.121 242.525C181.468 241.432 180.498 240.564 179.34 240.036C178.182 239.508 176.891 239.346 175.638 239.57C174.386 239.795 173.231 240.396 172.328 241.293Z" fill="#FFB8B8"/>
<path d="M124.535 244.221C124.158 244.051 123.822 243.803 123.549 243.491C123.277 243.18 123.075 242.814 122.957 242.418L118.837 228.573C117.942 226.655 117.843 224.461 118.562 222.471C119.281 220.481 120.758 218.857 122.671 217.956C124.584 217.055 126.776 216.95 128.766 217.664C130.756 218.378 132.381 219.853 133.287 221.765L141.269 233.857C141.497 234.202 141.647 234.592 141.711 235.001C141.775 235.41 141.749 235.827 141.637 236.225C141.525 236.623 141.328 236.993 141.061 237.308C140.793 237.623 140.461 237.877 140.087 238.052L126.929 244.203C126.555 244.378 126.147 244.47 125.734 244.473C125.321 244.476 124.912 244.39 124.535 244.221Z" fill="#CCCCCC"/>
<path d="M153.673 384.786L160.101 381.283L149.664 354.798L140.178 359.967L153.673 384.786Z" fill="#FFB8B8"/>
<path d="M150.892 383.578L163.549 376.68C164.609 376.103 165.772 375.74 166.971 375.612C168.171 375.485 169.383 375.595 170.54 375.937C171.697 376.278 172.775 376.845 173.713 377.604C174.651 378.363 175.431 379.299 176.008 380.36L176.15 380.622L155.426 391.916L150.892 383.578Z" fill="#2F2E41"/>
<path d="M82.9461 384.814H90.2637L93.7455 356.557L82.9443 356.557L82.9461 384.814Z" fill="#FFB8B8"/>
<path d="M81.0801 382.423L95.4919 382.422C96.698 382.422 97.8929 382.66 99.0072 383.122C100.121 383.584 101.134 384.261 101.987 385.115C102.84 385.969 103.516 386.982 103.978 388.098C104.439 389.213 104.677 390.409 104.677 391.616V391.915L81.0805 391.916L81.0801 382.423Z" fill="#2F2E41"/>
<path d="M128.42 259.399L130.808 288.082L157.441 368.069C157.546 368.383 157.584 368.716 157.553 369.046C157.522 369.377 157.423 369.697 157.262 369.987C157.101 370.276 156.882 370.529 156.618 370.73C156.354 370.93 156.051 371.073 155.729 371.15L147.566 373.095C147.043 373.22 146.494 373.164 146.007 372.938C145.519 372.711 145.123 372.327 144.881 371.846L110.831 304.23C110.72 304.01 110.543 303.83 110.326 303.714C110.108 303.598 109.86 303.552 109.615 303.583C109.371 303.614 109.142 303.72 108.959 303.886C108.777 304.052 108.651 304.271 108.598 304.512L93.6137 372.85C93.497 373.383 93.2021 373.859 92.778 374.2C92.3538 374.542 91.8258 374.728 91.2815 374.728H83.6877C83.3714 374.728 83.0582 374.666 82.7664 374.544C82.4745 374.422 82.2099 374.243 81.9878 374.017C81.7658 373.792 81.5908 373.524 81.473 373.23C81.3553 372.937 81.2972 372.622 81.302 372.306C81.9979 324.921 79.7023 270.927 97.9772 262.387L100.962 254.618L128.42 259.399Z" fill="#2F2E41"/>
<path d="M100.102 256.653L97.0249 238.022C96.5155 234.967 96.7827 231.832 97.8017 228.908C98.8208 225.983 100.559 223.362 102.856 221.287C105.101 219.231 107.827 217.775 110.783 217.052C113.738 216.329 116.828 216.362 119.767 217.149C119.942 217.196 120.116 217.244 120.291 217.293C123.908 218.33 127.119 220.452 129.492 223.375C131.865 226.297 133.284 229.878 133.559 233.634C134.146 241.725 133.621 253.463 127.782 263.434L127.669 263.628L100.102 256.653Z" fill="#CCCCCC"/>
<path d="M131.078 188.852C127.728 191.164 123.752 192.394 119.683 192.378C121.134 193.385 122.787 194.066 124.526 194.372C119.116 195.534 113.525 195.565 108.103 194.465C106.897 194.271 105.734 193.871 104.665 193.283C104.131 192.985 103.667 192.578 103.301 192.088C102.936 191.599 102.677 191.037 102.542 190.441C102.182 188.381 103.786 186.508 105.453 185.247C108.005 183.344 110.948 182.034 114.068 181.409C117.188 180.785 120.408 180.863 123.494 181.638C125.51 182.159 127.529 183.04 128.838 184.66C130.147 186.281 130.534 188.779 129.287 190.447L131.078 188.852Z" fill="#2F2E41"/>
<path d="M114.754 175.353C116.454 168.484 110.363 160.851 103.295 160.994C96.1237 161.139 90.8467 167.626 87.2193 173.821C83.5918 180.015 79.9867 187.037 73.3273 189.703C71.1237 190.586 68.7356 190.907 66.3774 190.638C64.0192 190.37 61.7644 189.519 59.8153 188.163C57.8662 186.807 56.2837 184.988 55.2097 182.87C54.1357 180.751 53.6037 178.398 53.6614 176.023C52.7673 183.548 54.006 191.69 58.8538 197.511C63.7016 203.331 72.7221 205.955 79.2058 202.043C82.9088 199.809 85.2757 195.925 87.227 192.063C89.1783 188.201 90.9147 184.128 93.8714 180.97C96.8281 177.813 101.4 175.717 105.515 177.045C107.148 177.573 108.613 178.601 110.301 178.913C111.988 179.226 114.113 178.423 114.343 176.721L114.754 175.353Z" fill="#2F2E41"/>
<path d="M79.4182 299.91C78.8097 299.196 78.365 298.357 78.1154 297.453C77.8657 296.548 77.8172 295.6 77.9733 294.675C78.1294 293.749 78.4862 292.869 79.0187 292.097C79.5512 291.325 80.2464 290.679 81.0553 290.204L93.7728 233.139L106.674 238.44L90.1162 292.866C90.822 294.279 90.9855 295.903 90.5757 297.428C90.1658 298.954 89.2111 300.277 87.8925 301.145C86.5739 302.013 84.9829 302.367 83.421 302.139C81.8592 301.912 80.435 301.119 79.4182 299.91Z" fill="#FFB8B8"/>
<path d="M88.7343 241.325C88.5312 240.965 88.4081 240.565 88.3734 240.153C88.3387 239.741 88.3933 239.326 88.5334 238.937L93.4238 225.345C93.84 223.27 95.0612 221.445 96.8196 220.271C98.5779 219.096 100.73 218.667 102.804 219.078C104.877 219.489 106.704 220.706 107.882 222.463C109.061 224.22 109.495 226.374 109.09 228.451L108.347 242.925C108.326 243.338 108.216 243.742 108.025 244.108C107.834 244.475 107.566 244.796 107.239 245.05C106.913 245.304 106.536 245.484 106.134 245.579C105.732 245.674 105.314 245.681 104.909 245.599L90.672 242.733C90.2669 242.652 89.884 242.484 89.5496 242.241C89.2151 241.998 88.9371 241.686 88.7343 241.325Z" fill="#CCCCCC"/>
<path d="M192.932 234.925L192.72 234.896L193.518 229.086C193.64 228.194 193.404 227.29 192.86 226.573C192.317 225.856 191.511 225.384 190.62 225.261L178.324 223.569C177.433 223.447 176.53 223.683 175.814 224.227C175.097 224.771 174.626 225.578 174.503 226.47L170.126 258.344C170.004 259.236 170.24 260.14 170.784 260.857C171.327 261.574 172.133 262.046 173.024 262.169L185.32 263.861C186.211 263.984 187.114 263.747 187.83 263.203C188.547 262.659 189.018 261.852 189.141 260.961L192.152 239.032L192.364 239.061L192.932 234.925Z" fill="#3F3D56"/>
<path d="M190.234 226.966L188.703 226.755C188.75 226.938 188.751 227.129 188.707 227.312C188.662 227.495 188.573 227.664 188.448 227.805C188.323 227.945 188.165 228.053 187.988 228.118C187.812 228.183 187.622 228.204 187.435 228.178L180.716 227.253C180.53 227.228 180.353 227.157 180.2 227.046C180.048 226.936 179.925 226.79 179.842 226.62C179.759 226.451 179.719 226.264 179.726 226.076C179.732 225.888 179.785 225.704 179.879 225.541L178.449 225.344C178.135 225.301 177.815 225.32 177.508 225.4C177.201 225.481 176.913 225.621 176.661 225.813C176.408 226.005 176.196 226.244 176.035 226.519C175.875 226.793 175.771 227.096 175.727 227.41L171.559 257.769C171.515 258.083 171.535 258.403 171.615 258.71C171.695 259.018 171.835 259.306 172.027 259.559C172.219 259.812 172.458 260.025 172.732 260.185C173.006 260.345 173.308 260.45 173.622 260.493L185.408 262.115C186.042 262.202 186.685 262.034 187.196 261.646C187.706 261.259 188.042 260.684 188.129 260.049L192.298 229.69C192.385 229.055 192.217 228.411 191.83 227.9C191.443 227.389 190.869 227.053 190.234 226.966Z" fill="white"/>
<path d="M181.876 252.171C185.502 252.171 188.442 249.228 188.442 245.598C188.442 241.967 185.502 239.024 181.876 239.024C178.249 239.024 175.31 241.967 175.31 245.598C175.31 249.228 178.249 252.171 181.876 252.171Z" fill="#6C63FF"/>
<path d="M181.225 248.105C181.077 248.105 180.933 248.058 180.815 247.969L180.807 247.963L179.264 246.781C179.193 246.726 179.132 246.658 179.087 246.58C179.042 246.501 179.012 246.415 179 246.326C178.988 246.236 178.994 246.145 179.017 246.058C179.04 245.971 179.081 245.889 179.136 245.817C179.19 245.746 179.259 245.685 179.337 245.64C179.415 245.595 179.501 245.566 179.591 245.554C179.68 245.542 179.771 245.548 179.858 245.572C179.945 245.595 180.027 245.636 180.098 245.691L181.098 246.458L183.46 243.375C183.514 243.303 183.583 243.243 183.661 243.198C183.739 243.153 183.825 243.124 183.914 243.112C184.003 243.1 184.094 243.106 184.181 243.129C184.268 243.153 184.349 243.193 184.421 243.248C184.565 243.359 184.66 243.522 184.683 243.703C184.707 243.883 184.659 244.066 184.548 244.21L181.77 247.837C181.706 247.921 181.623 247.988 181.528 248.035C181.434 248.081 181.33 248.105 181.225 248.105Z" fill="white"/>
<path d="M242.391 392H14.967C14.8087 392 14.6569 391.937 14.545 391.825C14.433 391.713 14.3701 391.561 14.3701 391.402C14.3701 391.244 14.433 391.092 14.545 390.98C14.6569 390.868 14.8087 390.805 14.967 390.805H242.391C242.55 390.805 242.702 390.868 242.813 390.98C242.925 391.092 242.988 391.244 242.988 391.402C242.988 391.561 242.925 391.713 242.813 391.825C242.702 391.937 242.55 392 242.391 392Z" fill="#3F3D56"/>
</g>
<defs>
<clipPath id="clip0_279_3114">
<rect width="506" height="392" fill="white"/>
</clipPath>
</defs>
</svg>
