<svg width="380" height="401" viewBox="0 0 380 401" fill="none" xmlns="http://www.w3.org/2000/svg">
<g clip-path="url(#clip0_311_1880)">
<path d="M22.1031 366.607C25.816 379.479 36.6575 388.49 47.9665 396.144C49.5455 397.213 51.1251 398.258 52.7051 399.277C52.7158 399.282 52.7268 399.292 52.7377 399.297C52.8137 399.346 52.8899 399.395 52.9607 399.444C53.2868 399.654 53.613 399.864 53.9364 400.072L53.7588 400.151C53.7588 400.151 53.5843 400.244 53.7752 400.166C53.832 400.142 53.8915 400.121 53.9482 400.097C60.518 397.449 67.2045 394.606 72.2392 389.646C77.4621 384.495 80.5143 376.416 77.6861 369.649C77.3144 368.762 76.8449 367.92 76.2862 367.138C76.0568 366.81 75.8098 366.496 75.5525 366.188C73.9925 364.285 71.9536 362.832 69.6453 361.978C67.337 361.124 64.8427 360.899 62.4189 361.328C59.9951 361.756 57.7293 362.822 55.8544 364.416C53.9795 366.01 52.5632 368.074 51.7512 370.396C50.9203 362.665 57.299 356.19 63.4376 351.412C69.5789 346.637 76.5572 341.436 77.7445 333.749C78.4075 329.471 76.9191 325.326 74.2078 321.999C74.1238 321.898 74.04 321.797 73.9536 321.698C70.6531 317.823 66.011 315.334 60.9546 314.729C51.5377 313.751 42.3906 318.732 35.5495 325.275C24.5386 335.803 17.8821 351.972 22.1031 366.607Z" fill="#F2F2F2"/>
<path d="M39.8035 349.771C37.9962 352.581 36.6086 355.639 35.6846 358.849C34.9031 361.719 34.5553 364.688 34.6527 367.66C34.9048 373.776 36.6228 379.741 39.6622 385.055C41.9517 389.086 44.7419 392.812 47.9665 396.144C49.5455 397.213 51.1251 398.258 52.7051 399.277C52.7158 399.282 52.7268 399.292 52.7377 399.297C52.8137 399.346 52.8899 399.395 52.9607 399.444C53.2868 399.654 53.613 399.864 53.9364 400.072C53.9364 400.072 53.5843 400.244 53.7752 400.166C53.832 400.143 53.8915 400.121 53.9482 400.097C53.3593 395.273 53.9362 390.378 55.6303 385.822C57.3245 381.267 60.0867 377.183 63.6853 373.914C67.2927 370.695 71.6103 368.373 76.2863 367.138C76.0568 366.81 75.8098 366.496 75.5525 366.188C73.7466 366.694 71.989 367.359 70.3002 368.174C64.2634 371.071 59.3204 375.833 56.2028 381.756C53.4052 387.134 52.2012 393.199 52.7321 399.237C52.4621 398.992 52.1919 398.743 51.9297 398.495C46.9374 393.844 42.5032 388.505 39.5023 382.344C36.8988 377.126 35.6192 371.348 35.7763 365.52C36.0212 359.164 38.555 353.278 42.2238 348.153C46.2448 342.686 50.9949 337.794 56.3423 333.613C61.7313 329.299 67.6282 325.661 73.9016 322.779C74.043 322.713 74.1538 322.595 74.2108 322.45C74.2678 322.305 74.2667 322.143 74.2078 321.999C74.166 321.869 74.0746 321.761 73.9536 321.698C73.8913 321.672 73.8238 321.659 73.756 321.662C73.6883 321.665 73.6221 321.683 73.5623 321.715C72.7877 322.071 72.0186 322.433 71.2556 322.809C64.9004 325.948 58.9601 329.864 53.5712 334.467C48.3658 338.902 43.4652 343.969 39.8035 349.771Z" fill="white"/>
<path d="M148.918 170.387C159.534 164.588 163.282 151.007 157.291 140.054C151.299 129.101 137.836 124.923 127.22 130.722C116.604 136.521 112.855 150.102 118.847 161.055C124.838 172.008 138.302 176.186 148.918 170.387Z" fill="#2F2E41"/>
<path d="M138.068 174.4C148.038 174.4 156.119 166.323 156.119 156.361C156.119 146.399 148.038 138.323 138.068 138.323C128.099 138.323 120.018 146.399 120.018 156.361C120.018 166.323 128.099 174.4 138.068 174.4Z" fill="#FFB8B8"/>
<path d="M128.39 183.953L126.068 190.515L129.483 210.263L143.554 221.946L154.728 204.68L149.348 188.343L145.313 183.794C145.352 183.385 145.307 182.972 145.179 182.582C145.052 182.191 144.845 181.831 144.572 181.524C144.298 181.218 143.964 180.971 143.591 180.799C143.217 180.627 142.812 180.534 142.401 180.526L133.589 180.355C132.454 180.332 131.341 180.668 130.407 181.314C129.474 181.96 128.768 182.884 128.39 183.953Z" fill="#CCCCCC"/>
<path d="M165.784 391.964L174.795 391.963L176.039 357.233L165.781 357.234L165.784 391.964Z" fill="#FFB8B8"/>
<path d="M192.172 400.323L163.854 400.325L163.853 389.392L181.23 389.39C184.132 389.39 186.915 390.541 188.967 392.592C191.019 394.642 192.172 397.423 192.172 400.323Z" fill="#2F2E41"/>
<path d="M102.665 391.964L111.675 391.963L115.96 357.233L102.662 357.234L102.665 391.964Z" fill="#FFB8B8"/>
<path d="M129.053 400.323L100.735 400.325L100.734 389.392L118.111 389.39C121.013 389.39 123.796 390.541 125.848 392.592C127.9 394.642 129.052 397.423 129.053 400.323Z" fill="#2F2E41"/>
<path d="M181.889 148.067C182.814 148.625 183.604 149.38 184.206 150.277C184.807 151.174 185.204 152.192 185.368 153.259C185.533 154.326 185.462 155.417 185.159 156.453C184.857 157.49 184.331 158.447 183.618 159.259L191.07 174.403L182.965 181.173L172.742 159.639C171.457 158.351 170.69 156.638 170.585 154.824C170.48 153.009 171.044 151.219 172.172 149.792C173.3 148.366 174.912 147.402 176.703 147.084C178.494 146.766 180.339 147.116 181.889 148.067Z" fill="#FFB8B8"/>
<path d="M128.168 266.657C123.775 266.6 119.39 266.277 115.037 265.689C114.292 265.596 113.576 265.343 112.937 264.949C112.298 264.555 111.751 264.029 111.333 263.406C110.915 262.783 110.635 262.077 110.513 261.337C110.391 260.597 110.429 259.839 110.625 259.115L120.379 223.025L112.524 201.003C111.678 198.624 111.773 196.013 112.789 193.702C113.806 191.392 115.667 189.556 117.993 188.572L128.783 184.014L132.025 204.073L139.751 213.808C140.007 214.131 140.34 214.386 140.718 214.55C141.097 214.714 141.51 214.783 141.922 214.75C142.333 214.716 142.73 214.582 143.077 214.359C143.425 214.136 143.712 213.831 143.913 213.47L149.779 202.962L144.987 183.652L152.132 184.497C154.439 184.777 156.62 185.699 158.428 187.158C160.235 188.617 161.597 190.554 162.356 192.748C164.552 199.129 164.744 206.028 162.905 212.521L159.944 223.032L165.143 256.612C165.286 257.527 165.24 258.461 165.01 259.358C164.781 260.255 164.371 261.096 163.806 261.83C163.242 262.564 162.534 263.176 161.725 263.629C160.917 264.081 160.025 264.365 159.104 264.463C155.782 264.846 152.437 264.986 149.094 264.882C146.061 264.753 143.931 262.904 142.934 259.537C142.88 259.34 142.763 259.166 142.6 259.042C142.438 258.917 142.239 258.849 142.035 258.848C141.83 258.847 141.631 258.913 141.467 259.036C141.304 259.158 141.185 259.331 141.129 259.528C140.852 260.506 140.549 261.595 140.218 262.795C139.414 265.708 134.384 266.657 128.168 266.657Z" fill="#2F2E41"/>
<path d="M159.518 201.513C158.622 201.516 157.735 201.34 156.907 200.998C155.935 200.595 155.077 199.96 154.408 199.149C153.739 198.337 153.28 197.374 153.072 196.343C152.757 194.709 152.976 193.016 153.697 191.516C154.418 190.015 155.602 188.786 157.076 188.009L178.129 176.586L176.978 172.036C176.818 171.338 176.867 170.609 177.119 169.939C177.37 169.269 177.813 168.687 178.392 168.266L183.821 164.236C184.234 163.92 184.712 163.7 185.22 163.593C185.729 163.485 186.255 163.493 186.761 163.616C187.206 163.727 187.621 163.937 187.974 164.23C188.328 164.523 188.611 164.891 188.803 165.308L191.624 171.393C193.855 176.208 191.948 182.137 187.186 185.185L163.573 200.301C162.364 201.084 160.957 201.504 159.518 201.513Z" fill="#2F2E41"/>
<path d="M115.161 375.819C115.088 375.819 115.014 375.817 114.94 375.812L103.468 375.352C103.023 375.324 102.589 375.207 102.19 375.007C101.792 374.807 101.438 374.529 101.15 374.189C100.862 373.849 100.646 373.454 100.514 373.028C100.383 372.602 100.339 372.155 100.385 371.712L112.028 259.776L142.583 248.672L160.577 258.848L180.263 367.309C180.418 368.139 180.249 368.996 179.791 369.706C179.332 370.415 178.62 370.923 177.8 371.124L177.752 371.136L166.009 370.847C165.2 371.03 164.351 370.903 163.631 370.492C162.91 370.08 162.37 369.414 162.117 368.624L137.108 280.923C137.033 280.694 136.885 280.496 136.687 280.359C136.488 280.222 136.25 280.154 136.01 280.165C135.769 280.176 135.538 280.266 135.353 280.421C135.168 280.575 135.039 280.786 134.986 281.021L118.383 373.231C118.222 373.965 117.815 374.622 117.229 375.093C116.642 375.564 115.913 375.82 115.161 375.819Z" fill="#2F2E41"/>
<path d="M122.304 144.974C119.432 148.731 121.618 155.125 126.189 156.342C130.76 157.558 135.839 153.097 135.218 148.411C134.231 153.328 138.442 158.473 143.441 158.91C148.44 159.347 153.301 155.433 154.394 150.539C155.488 145.645 153.047 140.298 148.892 137.486C144.737 134.675 139.172 134.309 134.471 136.062C129.671 137.856 125.461 140.94 122.304 144.974Z" fill="#2F2E41"/>
<path d="M144.062 128.938C141.388 123.331 138.641 117.616 134.32 113.152C129.998 108.687 123.746 105.612 117.621 106.665C111.495 107.718 106.22 113.896 107.576 119.958C108.266 123.037 105.627 126.088 102.586 126.936C99.5452 127.784 96.3042 126.991 93.2979 126.027C90.2915 125.063 87.2459 123.912 84.0916 124.048C77.7666 124.32 72.4785 130.303 72.2563 136.625C72.0341 142.948 76.338 148.966 82.1123 151.56C87.8866 154.154 94.7936 153.573 100.489 150.81C106.185 148.048 110.739 143.286 114.069 137.906C118.99 129.955 131.356 127.994 138.498 134.032C139.263 134.632 140.226 134.922 141.195 134.844C142.164 134.767 143.069 134.327 143.728 133.613C144.991 132.14 144.808 129.655 144.062 128.938Z" fill="#2F2E41"/>
<path d="M179.812 134.758C179.248 134.561 178.759 134.193 178.415 133.705C178.071 133.217 177.888 132.633 177.893 132.036V6.60989C177.895 4.85745 178.592 3.17737 179.832 1.93821C181.072 0.699045 182.753 0.00200407 184.507 0H373.386C375.14 0.00200407 376.821 0.699045 378.061 1.93821C379.301 3.17737 379.998 4.85745 380 6.60989V112.368C379.998 114.121 379.301 115.801 378.061 117.04C376.821 118.279 375.14 118.976 373.386 118.978H195.211L183.022 133.866C182.754 134.198 182.416 134.466 182.031 134.65C181.647 134.834 181.226 134.93 180.8 134.93C180.463 134.93 180.129 134.872 179.812 134.758ZM184.507 1.46886C183.143 1.47039 181.835 2.01253 180.871 2.97632C179.907 3.94012 179.364 5.24688 179.363 6.60989V132.036C179.363 132.329 179.453 132.615 179.622 132.855C179.791 133.094 180.03 133.276 180.306 133.374C180.582 133.473 180.882 133.484 181.165 133.405C181.447 133.327 181.699 133.163 181.884 132.936L194.515 117.509H373.386C374.75 117.508 376.057 116.965 377.022 116.002C377.986 115.038 378.529 113.731 378.53 112.368V6.60989C378.529 5.24688 377.986 3.94012 377.022 2.97632C376.057 2.01253 374.75 1.47039 373.386 1.46886H184.507Z" fill="#3F3D56"/>
<path d="M184.507 1.46886C183.143 1.47039 181.835 2.01253 180.871 2.97632C179.907 3.94012 179.364 5.24688 179.363 6.60989V132.036C179.363 132.329 179.453 132.615 179.622 132.855C179.791 133.094 180.03 133.276 180.306 133.374C180.582 133.473 180.882 133.484 181.165 133.405C181.447 133.327 181.699 133.163 181.884 132.936L194.515 117.509H373.386C374.75 117.508 376.057 116.965 377.022 116.002C377.986 115.038 378.529 113.731 378.53 112.368V6.60989C378.529 5.24688 377.986 3.94012 377.022 2.97632C376.057 2.01253 374.75 1.47039 373.386 1.46886H184.507Z" fill="white"/>
<path d="M278.946 97.4253L272.924 91.9968C251.54 72.3768 237.422 59.6425 237.422 43.7795C237.422 30.8373 247.387 20.8184 260.26 20.8184C263.825 20.8373 267.343 21.6314 270.569 23.1454C273.796 24.6593 276.654 26.857 278.946 29.5857C281.237 26.8569 284.096 24.6592 287.322 23.1453C290.549 21.6313 294.067 20.8373 297.632 20.8184C310.504 20.8184 320.47 30.8373 320.47 43.7795C320.47 59.6427 306.352 72.377 284.968 91.9968L278.946 97.4253Z" fill="#6C63FF"/>
<path d="M124.115 249.232L122.839 246.267C118.363 235.615 115.372 228.662 118.011 222.922C118.968 220.738 120.754 219.025 122.975 218.158C125.197 217.29 127.672 217.341 129.857 218.297C129.937 218.332 130.016 218.368 130.094 218.405C131.381 219.004 132.522 219.876 133.438 220.96C134.354 222.044 135.023 223.314 135.398 224.682C136.681 224.075 138.081 223.754 139.501 223.742C140.92 223.73 142.326 224.027 143.619 224.613C144.697 225.093 145.671 225.781 146.484 226.637C147.297 227.493 147.933 228.501 148.356 229.603C148.779 230.705 148.98 231.879 148.949 233.059C148.918 234.239 148.655 235.401 148.174 236.479C148.139 236.558 148.102 236.637 148.065 236.715C145.426 242.456 138.199 244.719 127.197 248.268L124.115 249.232Z" fill="#6C63FF"/>
<path d="M129.034 234.669C128.69 233.645 128.126 232.709 127.381 231.927C126.637 231.145 125.729 230.536 124.723 230.142C123.717 229.748 122.637 229.58 121.559 229.648C120.481 229.717 119.431 230.021 118.483 230.538L105.273 220.622L102.084 229.693L115.736 241.062C116.712 242.596 118.217 243.718 119.967 244.217C121.716 244.716 123.587 244.556 125.227 243.768C126.866 242.98 128.159 241.618 128.861 239.941C129.562 238.264 129.624 236.388 129.034 234.669Z" fill="#FFB8B8"/>
<path d="M110.093 237.796C109.511 237.796 108.941 237.631 108.449 237.32L102.776 233.737C98.2879 230.903 96.6715 224.887 99.0166 219.745L110.646 194.244C111.113 193.175 111.831 192.235 112.74 191.504C113.65 190.773 114.722 190.273 115.867 190.046C116.902 189.857 117.968 189.925 118.97 190.244C119.973 190.563 120.881 191.124 121.616 191.876C122.768 193.079 123.503 194.619 123.712 196.271C123.921 197.922 123.593 199.597 122.777 201.048L111.293 222.058L114.73 225.256C115.243 225.755 115.598 226.395 115.75 227.094C115.903 227.793 115.847 228.522 115.589 229.19L113.216 235.519C113.041 236.008 112.759 236.452 112.39 236.817C112.021 237.183 111.575 237.462 111.084 237.634C110.765 237.741 110.43 237.796 110.093 237.796Z" fill="#2F2E41"/>
<path d="M231.505 401H0.734937C0.54002 401 0.353096 400.923 0.215269 400.785C0.0774413 400.647 0 400.46 0 400.266C0 400.071 0.0774413 399.884 0.215269 399.746C0.353096 399.609 0.54002 399.531 0.734937 399.531H231.505C231.7 399.531 231.887 399.609 232.025 399.746C232.163 399.884 232.24 400.071 232.24 400.266C232.24 400.46 232.163 400.647 232.025 400.785C231.887 400.923 231.7 401 231.505 401Z" fill="#CCCCCC"/>
</g>
<defs>
<clipPath id="clip0_311_1880">
<rect width="380" height="401" fill="white"/>
</clipPath>
</defs>
</svg>
